# This file uses centimeters as units for non-parametric coordinates.

mtllib GymBuilding.mtl
g default
v 7.614192 0.084483 -12.000991
v 7.614192 8.050365 -12.000991
v 7.614192 0.084483 -11.530063
v 7.614192 8.050365 -11.530063
v 7.614192 7.855324 -7.736855
v 7.614192 7.855324 -6.981593
v 7.614192 7.855324 -1.747749
v 7.614192 7.855324 -0.866610
v 0.283099 0.084483 1.829801
v 0.301012 6.887101 1.829801
v 0.283099 6.887101 -10.757904
v 0.283099 0.084483 -10.757904
v 0.283099 6.887101 -12.000991
v 0.283099 0.084483 -12.000991
v 0.822360 0.084483 -12.000991
v 0.822360 6.887101 -12.000991
v -0.928130 6.887101 -12.000991
v -0.928130 0.084483 -12.000991
v -0.928130 0.084483 1.829796
v -0.928130 6.887101 1.829796
v -0.928130 6.887101 -10.757898
v -0.928130 0.084483 -10.757898
v 0.822360 0.084483 -11.528395
v 0.822360 6.887101 -11.530062
v 0.283099 2.125268 1.829801
v 0.283099 0.084483 -6.981593
v 0.283099 6.887101 -6.981593
v -0.928130 6.887101 -6.981590
v -0.928130 0.084483 -6.981590
v 0.283099 0.084483 -7.736855
v 0.283099 6.887101 -7.736855
v -0.928130 6.887101 -7.736852
v -0.928130 0.084483 -7.736852
v 0.283099 6.887101 -1.747749
v 0.283099 0.084483 -1.747749
v -0.928130 0.084483 -1.747750
v -0.928130 6.887101 -1.747750
v 0.283099 6.887101 -0.866610
v 0.283099 0.084483 -0.866610
v -0.928130 0.084483 -0.866612
v -0.928130 6.887101 -0.866612
v 0.283099 0.084483 -11.526727
v -0.928130 0.084483 -11.526726
v -0.928130 6.887101 -11.526726
v 0.283099 6.887101 -11.526727
v 0.887233 0.084483 2.478145
v 0.887233 2.125268 2.478145
v 0.887233 6.887101 2.478145
v -0.928130 6.887101 2.478145
v -0.928130 0.084483 2.478145
v 0.301013 6.887101 2.478145
v 7.614192 0.084483 16.957281
v 7.614192 8.050365 16.957281
v 7.614192 0.084483 16.486353
v 7.614192 8.050365 16.486353
v 7.614192 7.855324 12.693146
v 7.614192 7.855324 11.937883
v 7.614192 7.855324 6.704040
v 7.614192 7.855324 5.822900
v 0.283099 0.084483 3.126490
v 0.301012 6.887101 3.126490
v 0.283099 6.887101 15.714194
v 0.283099 0.084483 15.714194
v 0.283099 6.887101 16.957281
v 0.283099 0.084483 16.957281
v 0.822360 0.084483 16.957281
v 0.822360 6.887101 16.957281
v -0.928130 6.887101 16.957281
v -0.928130 0.084483 16.957281
v -0.928130 0.084483 3.126494
v -0.928130 6.887101 3.126494
v -0.928130 6.887101 15.714189
v -0.928130 0.084483 15.714189
v 0.822360 0.084483 16.484684
v 0.822360 6.887101 16.486351
v 0.283099 2.125268 3.126490
v 0.283099 0.084483 11.937883
v 0.283099 6.887101 11.937883
v -0.928130 6.887101 11.937880
v -0.928130 0.084483 11.937880
v 0.283099 0.084483 12.693145
v 0.283099 6.887101 12.693146
v -0.928130 6.887101 12.693142
v -0.928130 0.084483 12.693142
v 0.283099 6.887101 6.704040
v 0.283099 0.084483 6.704040
v -0.928130 0.084483 6.704041
v -0.928130 6.887101 6.704041
v 0.283099 6.887101 5.822900
v 0.283099 0.084483 5.822900
v -0.928130 0.084483 5.822902
v -0.928130 6.887101 5.822902
v 0.283099 0.084483 16.483017
v -0.928130 0.084483 16.483017
v -0.928130 6.887101 16.483017
v 0.283099 6.887101 16.483017
v 0.822360 6.887101 -11.051972
v 0.552757 6.887101 -10.770002
v 0.822360 0.084483 -11.051972
v 0.552757 0.084483 -10.770002
v 0.611376 0.084483 1.829801
v 0.887232 0.084483 2.105657
v 0.887233 2.125268 2.105657
v 0.611377 2.125268 1.829801
v 0.887233 6.887101 2.105657
v 0.611377 6.887101 1.829801
v 0.822360 6.887101 16.008263
v 0.552757 6.887101 15.726293
v 0.552757 0.084483 15.726293
v 0.822360 0.084483 16.008263
v 0.887232 0.084483 2.850634
v 0.611376 0.084483 3.126490
v 0.611377 2.125268 3.126490
v 0.887233 2.125268 2.850633
v 0.887233 6.887101 2.850633
v 0.611377 6.887101 3.126490
v 1.056019 0.084483 2.035743
v 0.681290 0.084483 1.661014
v 0.681290 0.084483 3.295276
v 1.056019 0.084483 2.920547
v 0.283099 0.084483 1.639758
v 1.084978 0.084483 2.478145
v 0.283099 0.084483 3.319121
v 0.299732 6.887101 3.319121
v -0.928130 6.887101 3.319125
v -0.928130 0.084483 3.319125
v -0.928130 0.084483 1.639752
v -0.928130 6.887100 1.639752
v 0.299750 6.887100 1.639756
v 0.611376 0.084483 2.478145
v 0.283099 0.084483 2.478145
v 7.614192 2.064266 -11.530063
v 7.614192 2.186271 -11.530063
v 0.822360 2.064266 -11.530062
v 0.822360 2.186271 -11.530062
v 0.283099 2.186271 -10.757904
v 0.283099 2.064266 -10.757904
v 0.283099 2.064266 -7.736855
v 0.283099 2.186271 -7.736855
v 0.283099 2.064266 -0.866610
v 0.283099 2.186271 -0.866610
v 0.283269 2.186271 1.639758
v 0.283099 2.125268 1.726151
v 0.283099 2.051632 1.639758
v 0.283099 2.064266 -6.981593
v 0.283099 2.186271 -6.981593
v 0.283099 2.064266 -1.747749
v 0.283099 2.186271 -1.747749
v 7.614192 2.186271 16.486353
v 7.614192 2.064266 16.486353
v 0.822360 2.186271 16.486351
v 0.822360 2.064266 16.486351
v 0.283099 2.064266 15.714194
v 0.283099 2.186271 15.714194
v 0.283099 2.064266 12.693145
v 0.283099 2.186271 12.693145
v 0.283099 2.064266 5.822900
v 0.283099 2.186271 5.822900
v 0.283269 2.186270 3.319121
v 0.283099 2.051594 3.319121
v 0.283099 2.125268 3.232774
v 0.283099 2.064266 11.937883
v 0.283099 2.186271 11.937883
v 0.283099 2.064266 6.704040
v 0.283099 2.186271 6.704040
v 0.552757 2.064266 -10.770002
v 0.552757 2.186271 -10.770002
v 0.822360 2.186271 -11.051972
v 0.822360 2.064266 -11.051972
v 0.822360 2.064266 16.008263
v 0.822360 2.186271 16.008263
v 0.552757 2.186271 15.726293
v 0.552757 2.064266 15.726293
v 0.643671 2.125268 1.745399
v 0.681290 2.038998 1.661014
v 1.056020 2.038998 2.035743
v 0.972055 2.125268 2.073783
v 0.972055 2.125268 2.882508
v 1.056020 2.038998 2.920547
v 0.681290 2.038998 3.295276
v 0.643444 2.125268 3.211118
v 1.084979 2.038998 2.478145
v 0.998524 2.125268 2.478145
v 7.614192 7.712498 -7.736855
v 7.614192 7.569700 -7.596149
v 7.614192 7.569700 -7.122299
v 7.614192 7.712498 -6.981593
v 7.614192 7.712498 -1.747749
v 7.614192 7.569700 -1.607044
v 7.614192 7.569700 -1.007316
v 7.614192 7.712498 -0.866610
v 7.614192 6.406672 -11.530063
v 7.614192 6.207684 -11.530063
v 0.283099 6.406672 -10.757904
v 0.283099 6.207684 -10.757904
v 0.283099 6.427795 -7.736855
v 0.422763 6.331352 -7.595115
v 0.283099 6.207684 -7.736855
v 0.411246 6.329359 -0.996662
v 0.283099 6.427795 -0.866610
v 0.283099 6.177126 -0.866610
v 0.295611 6.406669 1.639757
v 0.294477 6.207684 1.639758
v 0.411246 6.329359 -7.111645
v 0.283099 6.427795 -6.981593
v 0.283099 6.177126 -6.981593
v 0.283099 6.427795 -1.747749
v 0.422763 6.331352 -1.606009
v 0.283099 6.207684 -1.747749
v 0.822360 6.406672 -11.530062
v 0.822360 6.207684 -11.530062
v 7.614192 6.406672 16.486353
v 7.614192 6.207684 16.486353
v 7.614192 7.569700 12.552440
v 7.614192 7.712498 12.693146
v 7.614192 7.712498 11.937883
v 7.614192 7.569700 12.078589
v 7.614192 7.569700 6.563334
v 7.614192 7.712498 6.704040
v 7.614192 7.712498 5.822900
v 7.614192 7.569700 5.963606
v 0.283099 6.406672 15.714194
v 0.283099 6.207684 15.714194
v 0.411246 6.329359 12.563094
v 0.283099 6.427795 12.693146
v 0.283099 6.177126 12.693146
v 0.283099 6.427795 5.822900
v 0.422763 6.331352 5.964641
v 0.283099 6.207684 5.822900
v 0.295598 6.406669 3.319121
v 0.294465 6.207684 3.319121
v 0.283099 6.427795 11.937883
v 0.422763 6.331352 12.079623
v 0.283099 6.207684 11.937883
v 0.411246 6.329359 6.573988
v 0.283099 6.427795 6.704040
v 0.283099 6.177126 6.704040
v 0.822360 6.406672 16.486351
v 0.822360 6.207684 16.486351
v 0.822360 6.406672 -11.051972
v 0.822360 6.207684 -11.051972
v 0.552757 6.406672 -10.770002
v 0.552757 6.207684 -10.770002
v 0.611377 6.406672 1.829801
v 0.611377 6.207684 1.829801
v 0.887233 6.207684 2.105657
v 0.887233 6.406672 2.105657
v 0.552757 6.406672 15.726293
v 0.552757 6.207684 15.726293
v 0.822360 6.406672 16.008263
v 0.822360 6.207684 16.008263
v 0.887233 6.406672 2.850633
v 0.887233 6.207684 2.850633
v 0.611377 6.207684 3.126490
v 0.611377 6.406672 3.126490
v 0.296560 6.406668 1.829801
v 0.295340 6.207684 1.829801
v 0.887233 6.207684 2.478145
v 0.887233 6.406672 2.478145
v 0.295340 6.207684 3.126490
v 0.296560 6.406668 3.126490
v 0.283258 2.178374 1.829801
v 0.611377 2.178374 1.829801
v 0.887233 2.178372 2.105657
v 0.887233 2.178372 2.478145
v 0.887233 2.178374 2.850633
v 0.611377 2.178372 3.126490
v 0.283258 2.178372 3.126490
v 14.945284 0.084483 1.829801
v 14.927372 6.887101 1.829802
v 14.945285 6.887101 -10.757903
v 14.945284 0.084483 -10.757904
v 14.945284 6.887101 -12.000991
v 14.945284 0.084483 -12.000991
v 14.406023 0.084483 -12.000991
v 14.406023 6.887101 -12.000991
v 16.156513 6.887101 -12.000991
v 16.156513 0.084483 -12.000991
v 16.156513 0.084483 1.829796
v 16.156513 6.887101 1.829796
v 16.156513 6.887101 -10.757898
v 16.156513 0.084483 -10.757898
v 14.406023 0.084483 -11.528395
v 14.406023 6.887101 -11.530062
v 14.945284 2.125268 1.829801
v 14.945284 0.084483 -6.981593
v 14.945284 6.887101 -6.981593
v 16.156513 6.887101 -6.981590
v 16.156513 0.084483 -6.981590
v 14.945284 0.084483 -7.736855
v 14.945284 6.887101 -7.736855
v 16.156513 6.887101 -7.736852
v 16.156513 0.084483 -7.736852
v 14.945284 6.887101 -1.747749
v 14.945284 0.084483 -1.747749
v 16.156513 0.084483 -1.747750
v 16.156513 6.887101 -1.747750
v 14.945284 6.887101 -0.866610
v 14.945284 0.084483 -0.866610
v 16.156513 0.084483 -0.866612
v 16.156513 6.887101 -0.866612
v 14.945284 0.084483 -11.526727
v 16.156513 0.084483 -11.526726
v 16.156513 6.887101 -11.526726
v 14.945284 6.887101 -11.526727
v 14.341150 0.084483 2.478145
v 14.341150 2.125268 2.478145
v 14.341150 6.887101 2.478145
v 16.156513 6.887101 2.478145
v 16.156513 0.084483 2.478145
v 14.927370 6.887101 2.478145
v 14.945284 0.084483 3.126490
v 14.927371 6.887101 3.126490
v 14.945284 6.887101 15.714194
v 14.945284 0.084483 15.714194
v 14.945284 6.887101 16.957281
v 14.945284 0.084483 16.957281
v 14.406023 0.084483 16.957281
v 14.406023 6.887101 16.957281
v 16.156513 6.887101 16.957281
v 16.156513 0.084483 16.957281
v 16.156513 0.084483 3.126494
v 16.156513 6.887101 3.126494
v 16.156513 6.887101 15.714189
v 16.156513 0.084483 15.714189
v 14.406023 0.084483 16.484684
v 14.406023 6.887101 16.486351
v 14.945284 2.125268 3.126490
v 14.945284 0.084483 11.937883
v 14.945284 6.887101 11.937883
v 16.156513 6.887101 11.937880
v 16.156513 0.084483 11.937880
v 14.945284 0.084483 12.693145
v 14.945284 6.887101 12.693146
v 16.156513 6.887101 12.693142
v 16.156513 0.084483 12.693142
v 14.945284 6.887101 6.704040
v 14.945284 0.084483 6.704040
v 16.156513 0.084483 6.704041
v 16.156513 6.887101 6.704041
v 14.945284 6.887101 5.822900
v 14.945284 0.084483 5.822900
v 16.156513 0.084483 5.822902
v 16.156513 6.887101 5.822902
v 14.945284 0.084483 16.483017
v 16.156513 0.084483 16.483017
v 16.156513 6.887101 16.483017
v 14.945284 6.887101 16.483017
v 14.406023 6.887101 -11.051972
v 14.675627 6.887101 -10.770002
v 14.406023 0.084483 -11.051972
v 14.675627 0.084483 -10.770002
v 14.617007 0.084483 1.829801
v 14.341151 0.084483 2.105657
v 14.341150 2.125268 2.105657
v 14.617006 2.125268 1.829801
v 14.341150 6.887101 2.105657
v 14.617006 6.887101 1.829801
v 14.406023 6.887101 16.008263
v 14.675627 6.887101 15.726293
v 14.675627 0.084483 15.726293
v 14.406023 0.084483 16.008263
v 14.341151 0.084483 2.850634
v 14.617007 0.084483 3.126490
v 14.617006 2.125268 3.126490
v 14.341150 2.125268 2.850633
v 14.341150 6.887101 2.850633
v 14.617006 6.887101 3.126490
v 14.172364 0.084483 2.035743
v 14.547093 0.084483 1.661014
v 14.547093 0.084483 3.295276
v 14.172364 0.084483 2.920547
v 14.945284 0.084483 1.639758
v 14.143405 0.084483 2.478145
v 14.945284 0.084483 3.319121
v 14.928651 6.887101 3.319121
v 16.156513 6.887101 3.319125
v 16.156513 0.084483 3.319125
v 16.156513 0.084483 1.639752
v 16.156513 6.887100 1.639752
v 14.928634 6.887100 1.639756
v 14.617007 0.084483 2.478145
v 14.945284 0.084483 2.478145
v 14.406023 2.064266 -11.530062
v 14.406023 2.186271 -11.530062
v 14.945284 2.186271 -10.757904
v 14.945284 2.064266 -10.757904
v 14.945284 2.064266 -7.736855
v 14.945284 2.186271 -7.736855
v 14.945284 2.064266 -0.866610
v 14.945284 2.186271 -0.866610
v 14.945114 2.186271 1.639758
v 14.945284 2.125268 1.726151
v 14.945284 2.051632 1.639758
v 14.945284 2.064266 -6.981593
v 14.945284 2.186271 -6.981593
v 14.945284 2.064266 -1.747749
v 14.945284 2.186271 -1.747749
v 14.406023 2.186271 16.486351
v 14.406023 2.064266 16.486351
v 14.945284 2.064266 15.714194
v 14.945284 2.186271 15.714194
v 14.945284 2.064266 12.693145
v 14.945284 2.186271 12.693145
v 14.945284 2.064266 5.822900
v 14.945284 2.186271 5.822900
v 14.945114 2.186270 3.319121
v 14.945284 2.051594 3.319121
v 14.945284 2.125268 3.232774
v 14.945284 2.064266 11.937883
v 14.945284 2.186271 11.937883
v 14.945284 2.064266 6.704040
v 14.945284 2.186271 6.704040
v 14.675627 2.064266 -10.770002
v 14.675627 2.186271 -10.770002
v 14.406023 2.186271 -11.051972
v 14.406023 2.064266 -11.051972
v 14.406023 2.064266 16.008263
v 14.406023 2.186271 16.008263
v 14.675627 2.186271 15.726293
v 14.675627 2.064266 15.726293
v 14.584712 2.125268 1.745399
v 14.547092 2.038998 1.661014
v 14.172363 2.038998 2.035743
v 14.256329 2.125268 2.073783
v 14.256329 2.125268 2.882508
v 14.172363 2.038998 2.920547
v 14.547092 2.038998 3.295276
v 14.584939 2.125268 3.211118
v 14.143404 2.038998 2.478145
v 14.229859 2.125268 2.478145
v 14.945284 6.406672 -10.757904
v 14.945284 6.207684 -10.757904
v 14.945284 6.427795 -7.736855
v 14.805620 6.331352 -7.595115
v 14.945284 6.207684 -7.736855
v 14.817138 6.329359 -0.996662
v 14.945284 6.427795 -0.866610
v 14.945284 6.177126 -0.866610
v 14.932772 6.406669 1.639757
v 14.933906 6.207684 1.639758
v 14.817138 6.329359 -7.111645
v 14.945284 6.427795 -6.981593
v 14.945284 6.177126 -6.981593
v 14.945284 6.427795 -1.747749
v 14.805620 6.331352 -1.606009
v 14.945284 6.207684 -1.747749
v 14.406023 6.406672 -11.530062
v 14.406023 6.207684 -11.530062
v 14.945284 6.406672 15.714194
v 14.945284 6.207684 15.714194
v 14.817138 6.329359 12.563094
v 14.945284 6.427795 12.693146
v 14.945284 6.177126 12.693146
v 14.945284 6.427795 5.822900
v 14.805620 6.331352 5.964641
v 14.945284 6.207684 5.822900
v 14.932785 6.406669 3.319121
v 14.933918 6.207684 3.319121
v 14.945284 6.427795 11.937883
v 14.805620 6.331352 12.079623
v 14.945284 6.207684 11.937883
v 14.817138 6.329359 6.573988
v 14.945284 6.427795 6.704040
v 14.945284 6.177126 6.704040
v 14.406023 6.406672 16.486351
v 14.406023 6.207684 16.486351
v 14.406023 6.406672 -11.051972
v 14.406023 6.207684 -11.051972
v 14.675627 6.406672 -10.770002
v 14.675627 6.207684 -10.770002
v 14.617006 6.406672 1.829801
v 14.617006 6.207684 1.829801
v 14.341150 6.207684 2.105657
v 14.341150 6.406672 2.105657
v 14.675627 6.406672 15.726293
v 14.675627 6.207684 15.726293
v 14.406023 6.406672 16.008263
v 14.406023 6.207684 16.008263
v 14.341150 6.406672 2.850633
v 14.341150 6.207684 2.850633
v 14.617006 6.207684 3.126490
v 14.617006 6.406672 3.126490
v 14.931823 6.406668 1.829801
v 14.933043 6.207684 1.829801
v 14.341150 6.207684 2.478145
v 14.341150 6.406672 2.478145
v 14.933043 6.207684 3.126490
v 14.931823 6.406668 3.126490
v 14.945125 2.178374 1.829801
v 14.617006 2.178374 1.829801
v 14.341150 2.178372 2.105657
v 14.341150 2.178372 2.478145
v 14.341150 2.178374 2.850633
v 14.617006 2.178372 3.126490
v 14.945125 2.178372 3.126490
vt 0.226573 0.232321
vt 0.235889 0.213732
vt 0.251956 0.211065
vt 0.233409 0.228412
vt 0.239494 0.203925
vt 0.299997 0.304111
vt 0.307211 0.302194
vt 0.252461 0.202380
vt 0.295381 0.302160
vt 0.287557 0.305786
vt 0.290026 0.301896
vt 0.295243 0.298274
vt 0.303038 0.296546
vt 0.211425 0.205033
vt 0.066925 0.199362
vt 0.208032 0.214639
vt 0.201849 0.230306
vt 0.294529 0.320898
vt 0.295261 0.312572
vt 0.048519 0.281088
vt 0.171748 0.291976
vt 0.820197 0.974394
vt 0.190305 0.296304
vt 0.409894 0.289308
vt 0.409826 0.296154
vt 0.131245 0.490035
vt 0.130840 0.503978
vt 0.016813 0.506678
vt 0.280366 0.491204
vt 0.280563 0.488531
vt 0.259846 0.486652
vt 0.262231 0.448596
vt 0.020385 0.430274
vt 0.131370 0.485977
vt 0.134529 0.433360
vt 0.150742 0.484005
vt 0.153373 0.434206
vt 0.271958 0.359052
vt 0.044376 0.296508
vt 0.165155 0.307677
vt 0.183149 0.311916
vt 0.137251 0.414929
vt 0.156106 0.416633
vt 0.022520 0.410283
vt 0.901928 0.011609
vt 0.259785 0.489911
vt 0.261804 0.501431
vt 0.869367 0.738268
vt 0.893739 0.738265
vt 0.848657 0.247691
vt 0.820225 0.247689
vt 0.411085 0.178949
vt 0.410998 0.185360
vt 0.226623 0.773204
vt 0.233195 0.776980
vt 0.250534 0.794211
vt 0.235014 0.791585
vt 0.238074 0.801371
vt 0.250398 0.802886
vt 0.257967 0.929502
vt 0.319850 0.703230
vt 0.312684 0.705192
vt 0.317906 0.709517
vt 0.308969 0.708411
vt 0.303646 0.704997
vt 0.301555 0.701563
vt 0.318383 0.701094
vt 0.211318 0.800479
vt 0.208064 0.791056
vt 0.071703 0.803868
vt 0.310822 0.690553
vt 0.202173 0.775650
vt 0.292633 0.652141
vt 0.172951 0.715030
vt 0.277612 0.660377
vt 0.191722 0.710284
vt 0.395590 0.963869
vt 0.402899 0.708513
vt 0.131338 0.517991
vt 0.279731 0.510499
vt 0.259352 0.516477
vt 0.017387 0.525971
vt 0.280496 0.551816
vt 0.990653 0.011596
vt 0.131419 0.522105
vt 0.135883 0.574504
vt 0.150905 0.523079
vt 0.154731 0.573069
vt 0.981431 0.502142
vt 0.290922 0.642136
vt 0.166522 0.699551
vt 0.184530 0.694904
vt 0.138530 0.592937
vt 0.157609 0.590585
vt 0.280781 0.564867
vt 0.261424 0.569044
vt 0.259418 0.513121
vt 0.932237 0.738269
vt 0.907906 0.738269
vt 0.937405 0.247691
vt 0.909030 0.247694
vt 0.399666 0.828253
vt 0.399841 0.821607
vt 0.149203 0.488707
vt 0.146962 0.503740
vt 0.254025 0.496919
vt 0.256484 0.492571
vt 0.253982 0.501525
vt 0.256190 0.510633
vt 0.254181 0.506090
vt 0.241912 0.220932
vt 0.241246 0.784236
vt 0.154063 0.497457
vt 0.152053 0.491161
vt 0.153940 0.489493
vt 0.156027 0.497153
vt 0.152220 0.515841
vt 0.154170 0.509678
vt 0.156278 0.510012
vt 0.153991 0.517403
vt 0.153798 0.503586
vt 0.156097 0.503578
vt 0.149353 0.518375
vt 0.150539 0.503618
vt 0.410718 0.210865
vt 0.410693 0.212520
vt 0.268901 0.240273
vt 0.268143 0.238665
vt 0.261137 0.246661
vt 0.260122 0.245234
vt 0.251171 0.256452
vt 0.249862 0.255139
vt 0.253792 0.250922
vt 0.255081 0.252311
vt 0.217375 0.309300
vt 0.215914 0.308287
vt 0.212202 0.323460
vt 0.210562 0.322689
vt 0.184777 0.435794
vt 0.186732 0.436005
vt 0.184644 0.479845
vt 0.182378 0.480172
vt 0.186316 0.419875
vt 0.188164 0.420256
vt 0.183855 0.481544
vt 0.183070 0.487552
vt 0.181477 0.486718
vt 0.400621 0.793194
vt 0.400577 0.794954
vt 0.268904 0.766623
vt 0.270019 0.765112
vt 0.261155 0.760625
vt 0.262428 0.759093
vt 0.251203 0.750931
vt 0.252651 0.749775
vt 0.256550 0.753685
vt 0.255108 0.754962
vt 0.218346 0.697983
vt 0.220013 0.697064
vt 0.211831 0.683932
vt 0.213452 0.683302
vt 0.186002 0.570193
vt 0.187928 0.570020
vt 0.190205 0.585929
vt 0.188283 0.586248
vt 0.182746 0.525546
vt 0.185003 0.525783
vt 0.184194 0.524121
vt 0.181809 0.519071
vt 0.183355 0.518113
vt 0.183190 0.495658
vt 0.181645 0.495427
vt 0.183417 0.502753
vt 0.181971 0.502751
vt 0.183280 0.509861
vt 0.181739 0.510079
vt 0.184123 0.488345
vt 0.184282 0.495727
vt 0.184368 0.509803
vt 0.184381 0.517223
vt 0.184587 0.482989
vt 0.184654 0.502759
vt 0.184893 0.522617
vt 0.836760 0.738271
vt 0.843143 0.738271
vt 0.840715 0.974138
vt 0.268818 0.344742
vt 0.858421 0.738269
vt 0.864815 0.738268
vt 0.861911 0.977488
vt 0.856294 0.974956
vt 0.885314 0.247692
vt 0.878933 0.247692
vt 0.881415 0.011852
vt 0.256130 0.433811
vt 0.859601 0.247691
vt 0.853207 0.247691
vt 0.856174 0.008436
vt 0.861790 0.010982
vt 0.410185 0.262677
vt 0.410159 0.265546
vt 0.299975 0.290959
vt 0.298775 0.288604
vt 0.284543 0.301096
vt 0.283207 0.299120
vt 0.286462 0.296031
vt 0.287574 0.297845
vt 0.266165 0.342918
vt 0.261965 0.353767
vt 0.250467 0.445945
vt 0.252605 0.432940
vt 0.251629 0.484344
vt 0.248251 0.483505
vt 0.251110 0.486904
vt 0.247673 0.486159
vt 0.292968 0.294055
vt 0.291796 0.292343
vt 0.402214 0.735976
vt 0.402125 0.739260
vt 0.309855 0.716737
vt 0.312389 0.714764
vt 0.943183 0.738269
vt 0.936788 0.738269
vt 0.939718 0.499050
vt 0.945334 0.501582
vt 0.964845 0.738269
vt 0.958462 0.738269
vt 0.960913 0.502399
vt 0.268620 0.652207
vt 0.948350 0.247690
vt 0.941956 0.247691
vt 0.944900 0.008437
vt 0.950515 0.010981
vt 0.974064 0.247688
vt 0.967683 0.247689
vt 0.970140 0.011845
vt 0.253378 0.557199
vt 0.296983 0.705036
vt 0.294984 0.706368
vt 0.268562 0.665686
vt 0.299930 0.708303
vt 0.298031 0.709457
vt 0.265744 0.653554
vt 0.249795 0.558087
vt 0.247845 0.519960
vt 0.251216 0.519040
vt 0.250036 0.571830
vt 0.247270 0.517260
vt 0.250680 0.516466
vt 0.303106 0.713191
vt 0.305326 0.711948
vt 0.249663 0.490732
vt 0.246707 0.490611
vt 0.248178 0.496336
vt 0.245604 0.496184
vt 0.247778 0.501744
vt 0.245313 0.501671
vt 0.247992 0.507137
vt 0.245491 0.507153
vt 0.249416 0.512536
vt 0.246393 0.512795
vt 0.184851 0.488758
vt 0.184980 0.495852
vt 0.185066 0.509654
vt 0.185070 0.516751
vt 0.185102 0.483090
vt 0.185252 0.502739
vt 0.185414 0.522454
vt 0.594291 0.238143
vt 0.587534 0.234023
vt 0.569328 0.216069
vt 0.585319 0.219237
vt 0.581911 0.209273
vt 0.569009 0.207341
vt 0.557196 0.079527
vt 0.519394 0.308608
vt 0.523660 0.307293
vt 0.516368 0.300840
vt 0.524171 0.302584
vt 0.529405 0.306124
vt 0.531860 0.309942
vt 0.524050 0.317140
vt 0.609878 0.211165
vt 0.613135 0.220897
vt 0.754847 0.217876
vt 0.524878 0.324265
vt 0.619035 0.236790
vt 0.527595 0.360078
vt 0.647769 0.299544
vt 0.543742 0.352413
vt 0.629156 0.303379
vt 0.682440 0.499976
vt 0.796800 0.505870
vt 0.533003 0.504827
vt 0.682295 0.514005
vt 0.533084 0.492229
vt 0.795184 0.443435
vt 0.841580 0.484538
vt 0.553792 0.491375
vt 0.682491 0.495894
vt 0.681215 0.442846
vt 0.663198 0.493199
vt 0.662400 0.443056
vt 0.876444 0.501454
vt 0.528215 0.369955
vt 0.654001 0.315497
vt 0.635955 0.319254
vt 0.679029 0.424208
vt 0.660139 0.425323
vt 0.532092 0.442571
vt 0.552041 0.439811
vt 0.553702 0.494654
vt 0.551130 0.506135
vt 0.575067 0.780689
vt 0.565784 0.798828
vt 0.550201 0.800809
vt 0.568330 0.784207
vt 0.562244 0.808555
vt 0.485669 0.706459
vt 0.481222 0.706852
vt 0.549869 0.809530
vt 0.492743 0.708687
vt 0.503991 0.705458
vt 0.501750 0.708831
vt 0.496298 0.712057
vt 0.487355 0.712856
vt 0.588963 0.808798
vt 0.726112 0.826321
vt 0.592664 0.799441
vt 0.599295 0.784175
vt 0.495240 0.694100
vt 0.488420 0.703128
vt 0.751698 0.746150
vt 0.631325 0.724409
vt 0.925136 0.975079
vt 0.612848 0.718856
vt 0.681231 0.528062
vt 0.532926 0.514595
vt 0.553124 0.521330
vt 0.550360 0.560338
vt 0.530841 0.555905
vt 0.794756 0.540445
vt 0.674386 0.584651
vt 0.680971 0.532191
vt 0.655604 0.582444
vt 0.661407 0.532402
vt 0.532965 0.653973
vt 0.756996 0.730965
vt 0.638439 0.709111
vt 0.620705 0.703676
vt 0.670998 0.603073
vt 0.652034 0.599934
vt 0.785210 0.617867
vt 0.930363 0.484535
vt 0.553141 0.517963
vt 0.666164 0.513166
vt 0.664539 0.497986
vt 0.559110 0.501969
vt 0.558960 0.506580
vt 0.556865 0.497486
vt 0.556433 0.515601
vt 0.558590 0.511137
vt 0.579180 0.226269
vt 0.559947 0.791160
vt 0.659326 0.506570
vt 0.657377 0.506183
vt 0.659775 0.498581
vt 0.661591 0.500336
vt 0.660398 0.525083
vt 0.658560 0.526578
vt 0.656587 0.519071
vt 0.658706 0.518822
vt 0.659335 0.512730
vt 0.657037 0.512624
vt 0.663161 0.527747
vt 0.662591 0.512901
vt 0.552613 0.243322
vt 0.551814 0.244913
vt 0.560495 0.250126
vt 0.559451 0.251526
vt 0.569222 0.261614
vt 0.565393 0.257357
vt 0.566710 0.255999
vt 0.570554 0.260333
vt 0.603347 0.314603
vt 0.601860 0.315557
vt 0.608359 0.329210
vt 0.606704 0.329922
vt 0.630910 0.443600
vt 0.631713 0.488166
vt 0.629453 0.487789
vt 0.628946 0.443742
vt 0.628010 0.427893
vt 0.629872 0.427596
vt 0.632350 0.494760
vt 0.630722 0.495544
vt 0.630182 0.489509
vt 0.532310 0.770696
vt 0.533344 0.772263
vt 0.540164 0.764968
vt 0.541355 0.766559
vt 0.551730 0.757238
vt 0.547650 0.761126
vt 0.546277 0.759780
vt 0.550347 0.756015
vt 0.585287 0.704396
vt 0.586910 0.705384
vt 0.592424 0.690822
vt 0.594011 0.691520
vt 0.624477 0.578260
vt 0.621576 0.594298
vt 0.619667 0.593911
vt 0.622560 0.578019
vt 0.627154 0.533723
vt 0.629425 0.533587
vt 0.628039 0.532096
vt 0.629147 0.526117
vt 0.630651 0.527140
vt 0.631825 0.503475
vt 0.630267 0.503649
vt 0.631192 0.510793
vt 0.629742 0.510740
vt 0.629578 0.517856
vt 0.631112 0.518138
vt 0.629633 0.496303
vt 0.629168 0.503679
vt 0.628490 0.517754
vt 0.628161 0.525182
vt 0.629385 0.490929
vt 0.628500 0.510695
vt 0.627411 0.530559
vt 0.834684 0.499516
vt 0.840666 0.502403
vt 0.856246 0.501583
vt 0.552830 0.360222
vt 0.887379 0.486418
vt 0.881398 0.483531
vt 0.861773 0.484400
vt 0.560603 0.451949
vt 0.520846 0.292807
vt 0.519567 0.295178
vt 0.534977 0.305396
vt 0.531941 0.302146
vt 0.533085 0.300353
vt 0.536324 0.303457
vt 0.552482 0.347636
vt 0.556396 0.358515
vt 0.563094 0.438138
vt 0.564848 0.451185
vt 0.565553 0.488834
vt 0.562123 0.489469
vt 0.565965 0.491518
vt 0.562502 0.492067
vt 0.527781 0.296626
vt 0.526549 0.298331
vt 0.492617 0.718344
vt 0.495063 0.720422
vt 0.945333 0.974956
vt 0.535237 0.668825
vt 0.966894 0.977029
vt 0.960912 0.974140
vt 0.950554 0.484399
vt 0.556574 0.576108
vt 0.976161 0.486419
vt 0.970179 0.483531
vt 0.508353 0.709157
vt 0.538334 0.670907
vt 0.510274 0.710583
vt 0.507120 0.713565
vt 0.505280 0.712322
vt 0.541620 0.658807
vt 0.561168 0.524259
vt 0.564508 0.525306
vt 0.561237 0.563504
vt 0.560552 0.577313
vt 0.561761 0.521693
vt 0.565144 0.522617
vt 0.499759 0.715773
vt 0.501918 0.717114
vt 0.563761 0.495982
vt 0.566721 0.496010
vt 0.567581 0.501627
vt 0.564994 0.501659
vt 0.567647 0.507118
vt 0.565168 0.507082
vt 0.564748 0.512462
vt 0.567259 0.512585
vt 0.566162 0.518185
vt 0.563142 0.517804
vt 0.628462 0.503779
vt 0.628886 0.496692
vt 0.627492 0.524680
vt 0.627796 0.517578
vt 0.628865 0.491013
vt 0.627900 0.510654
vt 0.626897 0.530372
vt 0.254048 0.570731
vt 0.930323 0.010848
vt 0.274630 0.649331
vt 0.966895 0.499510
vt 0.260810 0.555527
vt 0.976121 0.008957
vt 0.271815 0.663845
vt 0.925137 0.501459
vt 0.265410 0.355793
vt 0.876492 0.975080
vt 0.263503 0.435570
vt 0.887397 0.008966
vt 0.254611 0.447003
vt 0.841597 0.010843
vt 0.274484 0.348527
vt 0.834733 0.977027
vt 0.947702 0.004387
vt 0.964302 0.495828
vt 0.973558 0.005354
vt 0.942534 0.494941
vt 0.884836 0.005362
vt 0.859094 0.981597
vt 0.858979 0.004387
vt 0.837325 0.980709
vt 0.944939 0.486944
vt 0.549339 0.573861
vt 0.901967 0.483588
vt 0.557716 0.562410
vt 0.861862 0.499049
vt 0.546186 0.363022
vt 0.813241 0.483584
vt 0.559510 0.438668
vt 0.856157 0.486945
vt 0.552925 0.452988
vt 0.900745 0.502268
vt 0.549673 0.349128
vt 0.947743 0.490993
vt 0.973599 0.490023
vt 0.884818 0.490022
vt 0.859044 0.494941
vt 0.858961 0.490994
vt 0.837275 0.495833
vt 0.900793 0.974265
vt 0.538820 0.657313
vt 0.939717 0.977488
vt 0.529720 0.665022
vt 0.964301 0.980710
vt 0.942533 0.981596
vt 0.990692 0.483778
vt 0.978601 0.247688
vt 0.981430 0.974397
vt 0.969383 0.738269
vt 0.901911 0.483776
vt 0.889851 0.247692
vt 0.820149 0.502152
vt 0.832222 0.738272
vt 0.901928 0.011800
vt 0.900794 0.502273
vt 0.813258 0.011795
vt 0.900793 0.974262
vt 0.533140 0.494991
vt 0.797006 0.501458
vt 0.795189 0.535992
vt 0.532876 0.517497
vt 0.566885 0.938858
vt 0.487205 0.704439
vt 0.727934 0.817921
vt 0.788711 0.597919
vt 0.530123 0.568972
vt 0.517039 0.646247
vt 0.514987 0.656233
vt 0.796120 0.520949
vt 0.403089 0.700624
vt 0.535076 0.936433
vt 0.731590 0.804152
vt 0.544983 0.936974
vt 0.754262 0.209323
vt 0.524329 0.317243
vt 0.532590 0.455125
vt 0.793659 0.423120
vt 0.774910 0.307533
vt 0.771098 0.291873
vt 0.756711 0.231991
vt 0.016675 0.487420
vt 0.282406 0.451677
vt 0.279715 0.513431
vt 0.021110 0.582994
vt 0.226064 0.929970
vt 0.073074 0.812345
vt 0.317267 0.699804
vt 0.023738 0.602864
vt 0.046978 0.716069
vt 0.051537 0.731370
vt 0.017155 0.521558
vt 0.280011 0.500797
vt 0.324307 0.703788
vt 0.068771 0.789959
vt 0.248034 0.929457
vt 0.234974 0.074288
vt 0.066206 0.207898
vt 0.283321 0.439157
vt 0.289625 0.366710
vt 0.290555 0.356759
vt 0.016711 0.491778
vt 0.064107 0.221929
vt 0.412699 0.044499
vt 0.512166 0.306515
vt 0.567347 0.079668
vt 0.589566 0.079246
vt 0.267352 0.075345
vt 0.257191 0.075236
vt 0.295537 0.312496
vn 0.000000 0.000000 -1.000000
vn 0.000000 0.000000 -1.000000
vn 0.000000 0.000000 -1.000000
vn 0.000000 0.000000 -1.000000
vn 0.000000 1.000000 0.000000
vn 0.000000 1.000000 0.000001
vn 0.000000 1.000000 0.000000
vn 0.000000 0.000000 -1.000000
vn 0.000000 0.000000 -1.000000
vn 0.000000 0.000000 -1.000000
vn 0.000000 0.000000 -1.000000
vn -1.000000 0.000000 0.000000
vn -1.000000 0.000000 0.000000
vn -1.000000 0.000000 0.000000
vn -1.000000 0.000000 0.000000
vn -1.000000 0.000000 0.000000
vn -1.000000 0.000000 0.000000
vn -1.000000 0.000000 0.000000
vn -1.000000 0.000000 0.000000
vn 0.000000 1.000000 0.000000
vn 0.000000 1.000000 0.000000
vn 0.000000 1.000000 0.000000
vn 0.000000 1.000000 0.000000
vn 0.000000 1.000000 0.000000
vn 0.000000 1.000000 0.000000
vn 0.000000 1.000000 0.000000
vn 0.000000 1.000000 0.000000
vn 0.000000 -1.000000 0.000000
vn 0.000000 -1.000000 0.000000
vn 0.000000 -1.000000 0.000000
vn 0.000000 -1.000000 0.000000
vn 0.000000 -1.000000 0.000000
vn 0.000000 -1.000000 0.000000
vn 0.000000 -1.000000 0.000000
vn 0.000000 -1.000000 0.000000
vn -0.168816 0.985648 0.000000
vn -0.168816 0.985648 0.000000
vn 0.000000 1.000000 0.000000
vn 0.000000 1.000000 0.000000
vn -1.000000 0.000000 0.000000
vn -1.000000 0.000000 0.000000
vn -1.000000 0.000000 0.000000
vn -1.000000 0.000000 0.000000
vn 0.000000 1.000000 0.000000
vn 0.000000 1.000000 -0.000000
vn -0.000000 1.000000 0.000000
vn -0.000000 1.000000 0.000000
vn -1.000000 0.000000 0.000000
vn -1.000000 0.000000 0.000000
vn -1.000000 0.000000 0.000000
vn -1.000000 0.000000 0.000000
vn 0.000000 -1.000000 0.000000
vn 0.000000 -1.000000 0.000000
vn 0.000000 -1.000000 0.000000
vn 0.000000 -1.000000 0.000000
vn 0.000000 1.000000 0.000000
vn 0.000000 1.000000 0.000000
vn -1.000000 0.000000 0.000000
vn -1.000000 0.000000 0.000000
vn 0.000000 -1.000000 0.000000
vn 0.000000 -1.000000 0.000000
vn 0.000000 -1.000000 0.000000
vn 0.000000 -1.000000 0.000000
vn -1.000000 0.000000 0.000000
vn -1.000000 0.000000 0.000000
vn 0.000000 1.000000 0.000000
vn 0.000000 1.000000 0.000000
vn 0.000000 -1.000000 0.000000
vn 0.000000 -1.000000 0.000000
vn 0.000000 -1.000000 0.000000
vn 0.000000 -1.000000 0.000000
vn 0.000000 -1.000000 0.000000
vn 0.000000 -1.000000 0.000000
vn -1.000000 0.000000 0.000000
vn -1.000000 0.000000 0.000000
vn 0.000000 1.000000 0.000000
vn 0.000000 1.000000 0.000000
vn 0.000000 1.000000 0.000000
vn 0.000000 1.000000 0.000000
vn 0.000000 1.000000 -0.000000
vn 0.000000 1.000000 -0.000000
vn 0.000000 1.000000 -0.000000
vn 0.000000 1.000000 -0.000000
vn -0.130934 0.991391 0.000000
vn -0.000000 1.000000 0.000000
vn -0.000000 1.000000 0.000000
vn -0.130934 0.991391 0.000000
vn -0.130934 0.991391 0.000000
vn 0.000000 1.000000 0.000000
vn 0.000000 1.000000 0.000000
vn -0.130934 0.991391 0.000000
vn 0.000000 0.000000 -1.000000
vn 0.000000 0.000000 -1.000000
vn 0.000000 0.000000 -1.000000
vn 0.000000 0.000000 -1.000000
vn 0.000000 -1.000000 0.000000
vn 0.000000 -1.000000 0.000000
vn 0.000000 -1.000000 0.000000
vn 0.000000 -1.000000 0.000000
vn 0.000000 0.000000 1.000000
vn 0.000000 0.000000 1.000000
vn 0.000000 0.000000 1.000000
vn 0.000000 0.000000 1.000000
vn 0.000000 1.000000 -0.000000
vn 0.000000 1.000000 -0.000000
vn 0.000000 1.000000 -0.000000
vn 0.000000 1.000000 -0.000000
vn 0.000000 0.000000 1.000000
vn 0.000000 0.000000 1.000000
vn 0.000000 0.000000 1.000000
vn 0.000000 0.000000 1.000000
vn -1.000000 0.000000 0.000000
vn -1.000000 0.000000 0.000000
vn -1.000000 0.000000 0.000000
vn -1.000000 0.000000 0.000000
vn -1.000000 0.000000 0.000000
vn -1.000000 0.000000 0.000000
vn -1.000000 0.000000 0.000000
vn -1.000000 0.000000 0.000000
vn 0.000000 1.000000 0.000000
vn 0.000000 1.000000 0.000000
vn 0.000000 1.000000 0.000000
vn 0.000000 1.000000 0.000000
vn 0.000000 1.000000 0.000000
vn 0.000000 1.000000 0.000000
vn 0.000000 1.000000 0.000000
vn 0.000000 1.000000 0.000000
vn 0.000000 -1.000000 0.000000
vn 0.000000 -1.000000 0.000000
vn 0.000000 -1.000000 0.000000
vn 0.000000 -1.000000 0.000000
vn 0.000000 -1.000000 0.000000
vn 0.000000 -1.000000 0.000000
vn 0.000000 -1.000000 0.000000
vn 0.000000 -1.000000 0.000000
vn -0.168816 0.985648 0.000000
vn 0.000000 1.000000 0.000000
vn 0.000000 1.000000 0.000000
vn -0.168816 0.985648 0.000000
vn -1.000000 0.000000 0.000000
vn -1.000000 0.000000 0.000000
vn 0.000000 1.000000 0.000000
vn 0.000000 1.000000 0.000000
vn 0.000000 1.000000 0.000000
vn 0.000000 1.000000 0.000000
vn -1.000000 0.000000 0.000000
vn -1.000000 0.000000 0.000000
vn -1.000000 0.000000 0.000000
vn -1.000000 0.000000 0.000000
vn 0.000000 -1.000000 0.000000
vn 0.000000 -1.000000 0.000000
vn 0.000000 -1.000000 0.000000
vn 0.000000 -1.000000 0.000000
vn 0.000000 1.000000 0.000000
vn 0.000000 1.000000 0.000000
vn -1.000000 0.000000 0.000000
vn -1.000000 0.000000 0.000000
vn 0.000000 -1.000000 0.000000
vn 0.000000 -1.000000 0.000000
vn 0.000000 -1.000000 0.000000
vn 0.000000 -1.000000 0.000000
vn -1.000000 0.000000 0.000000
vn -1.000000 0.000000 0.000000
vn 0.000000 1.000000 0.000000
vn 0.000000 1.000000 0.000000
vn 0.000000 -1.000000 0.000000
vn 0.000000 -1.000000 0.000000
vn 0.000000 -1.000000 0.000000
vn 0.000000 -1.000000 0.000000
vn 0.000000 -1.000000 0.000000
vn 0.000000 -1.000000 0.000000
vn -1.000000 0.000000 0.000000
vn -1.000000 0.000000 0.000000
vn 0.000000 1.000000 0.000000
vn 0.000000 1.000000 0.000000
vn 0.000000 1.000000 0.000000
vn 0.000000 1.000000 0.000000
vn 0.000000 1.000000 0.000000
vn 0.000000 1.000000 0.000000
vn 0.000000 1.000000 0.000000
vn -0.130934 0.991391 0.000000
vn -0.130934 0.991391 0.000000
vn 0.000000 1.000000 0.000000
vn 0.000000 1.000000 0.000000
vn -0.130934 0.991391 0.000000
vn -0.130934 0.991391 0.000000
vn 0.000000 1.000000 0.000000
vn 0.000000 1.000000 0.000000
vn 0.000000 0.000000 1.000000
vn 0.000000 0.000000 1.000000
vn 0.000000 0.000000 1.000000
vn 0.000000 0.000000 1.000000
vn 0.000000 -1.000000 0.000000
vn 0.000000 -1.000000 0.000000
vn 0.000000 -1.000000 0.000000
vn 0.000000 -1.000000 0.000000
vn 0.000000 -1.000000 0.000000
vn 0.000000 -1.000000 0.000000
vn 0.000000 -1.000000 0.000000
vn 0.000000 -1.000000 0.000000
vn 0.000000 1.000000 0.000000
vn 0.000000 1.000000 0.000001
vn 0.000000 1.000000 0.000001
vn 0.000000 1.000000 -0.000001
vn 0.000000 1.000000 -0.000000
vn 0.000000 1.000000 0.000000
vn 0.000000 -1.000000 0.000000
vn 0.000000 -1.000000 -0.000000
vn 0.000000 -1.000000 -0.000000
vn 0.000000 -1.000000 0.000000
vn 0.000000 -1.000000 0.000000
vn 0.000000 -1.000000 0.000000
vn 0.000000 -1.000000 0.000000
vn 0.000000 -1.000000 0.000000
vn 0.000000 -1.000000 -0.000000
vn 0.000000 -1.000000 -0.000000
vn 0.000000 -1.000000 0.000000
vn 0.000000 -1.000000 0.000000
vn 0.000000 -1.000000 0.000000
vn 0.000000 -1.000000 0.000000
vn 0.000000 1.000000 0.000000
vn 0.000000 1.000000 0.000000
vn -1.000000 0.000000 0.000000
vn -1.000000 0.000000 0.000000
vn 0.000000 -1.000000 0.000000
vn 0.000000 -1.000000 0.000000
vn 0.000000 -1.000000 0.000000
vn 0.000000 -1.000000 0.000000
vn -1.000000 0.000000 0.000000
vn -1.000000 0.000000 0.000000
vn 0.000000 1.000000 -0.000002
vn 0.000000 1.000000 -0.000002
vn 0.000000 -1.000000 0.000000
vn 0.000000 -1.000000 0.000000
vn 0.000000 -1.000000 0.000000
vn 0.000000 -1.000000 0.000000
vn 0.000000 -1.000000 0.000000
vn 0.000000 -1.000000 0.000000
vn 0.000000 -1.000000 0.000000
vn 0.000000 -1.000000 0.000000
vn 0.000000 -1.000000 0.000000
vn 0.000000 -1.000000 0.000000
vn 0.000000 -1.000000 0.000000
vn 0.000000 0.000397 1.000000
vn 0.000000 0.000000 1.000000
vn 0.000000 0.000000 1.000000
vn 0.000116 0.000397 1.000000
vn 1.000000 0.000000 0.000000
vn 1.000000 0.000000 0.000000
vn 1.000000 0.000000 0.000000
vn 1.000000 0.000000 0.000000
vn 0.044821 0.000000 0.998995
vn 0.044821 0.000000 0.998995
vn 0.044821 0.000000 0.998995
vn 0.044821 0.000000 0.998995
vn 1.000000 0.000000 0.000000
vn 1.000000 0.000000 0.000000
vn 1.000000 0.000000 0.000000
vn 1.000000 0.000000 0.000000
vn 1.000000 0.000000 0.000000
vn 1.000000 0.000000 0.000000
vn 1.000000 -0.000030 -0.000002
vn 0.999998 -0.001018 -0.001647
vn 0.999996 -0.001483 -0.002229
vn 1.000000 -0.000041 -0.000002
vn 1.000000 0.000000 0.000000
vn 1.000000 0.000000 0.000000
vn 0.048368 0.734398 -0.676993
vn 0.048368 0.734398 -0.676993
vn 0.317858 0.740329 -0.592351
vn 0.319787 0.740150 -0.591535
vn 0.000000 0.000000 -1.000000
vn 0.000000 0.000397 -1.000000
vn 0.000116 0.000397 -1.000000
vn 0.000000 0.000000 -1.000000
vn 1.000000 0.000000 0.000000
vn 1.000000 0.000000 0.000000
vn 1.000000 0.000000 0.000000
vn 1.000000 0.000000 0.000000
vn 0.044821 0.000000 -0.998995
vn 0.044821 0.000000 -0.998995
vn 0.044821 0.000000 -0.998995
vn 0.044821 0.000000 -0.998995
vn 1.000000 -0.000000 0.000000
vn 1.000000 0.000000 0.000000
vn 1.000000 0.000000 0.000000
vn 1.000000 -0.000000 0.000000
vn 1.000000 0.000000 0.000000
vn 1.000000 0.000000 0.000000
vn 1.000000 -0.000030 0.000002
vn 0.999998 -0.001014 0.001654
vn 1.000000 0.000000 0.000000
vn 1.000000 0.000000 0.000000
vn 1.000000 -0.000041 0.000002
vn 0.999996 -0.001478 0.002237
vn 0.052797 0.734136 0.676947
vn 0.052797 0.734136 0.676947
vn 0.321561 0.739651 0.591198
vn 0.319671 0.739826 0.592004
vn 0.722779 0.000000 0.691079
vn 0.722778 0.000000 0.691080
vn 0.722778 0.000000 0.691080
vn 0.722779 0.000000 0.691079
vn 0.722778 0.000000 -0.691080
vn 0.722778 0.000000 -0.691080
vn 0.722778 0.000000 -0.691080
vn 0.722778 0.000000 -0.691080
vn 0.613896 0.729972 -0.300453
vn 0.613896 0.729972 -0.300453
vn 0.706350 0.707862 0.000000
vn 0.706350 0.707862 0.000000
vn 0.613879 0.729971 0.300491
vn 0.613879 0.729971 0.300491
vn 0.000123 0.000421 1.000000
vn 0.000000 0.000421 1.000000
vn 1.000000 0.000000 0.000000
vn 1.000000 0.000000 0.000000
vn 1.000000 0.000000 0.000000
vn 1.000000 0.000000 0.000000
vn 1.000000 0.000000 0.000000
vn 1.000000 0.000000 0.000000
vn 0.000000 0.000421 -1.000000
vn 0.000123 0.000421 -1.000000
vn 1.000000 0.000000 0.000000
vn 1.000000 0.000000 0.000000
vn 1.000000 0.000000 0.000000
vn 1.000000 0.000000 0.000000
vn 1.000000 0.000000 0.000000
vn 1.000000 0.000000 0.000000
vn 0.722778 0.000000 0.691080
vn 0.722778 0.000000 0.691080
vn 0.707106 -0.000000 -0.707107
vn 0.707106 -0.000000 -0.707107
vn 0.707106 -0.000000 -0.707107
vn 0.707106 -0.000000 -0.707107
vn 0.722778 0.000000 -0.691080
vn 0.722778 0.000000 -0.691080
vn 0.707107 -0.000000 0.707107
vn 0.707107 -0.000000 0.707107
vn 0.707107 -0.000000 0.707107
vn 0.707107 -0.000000 0.707107
vn 1.000000 0.000000 0.000000
vn 1.000000 0.000000 0.000000
vn 0.044821 0.000000 0.998995
vn 0.044821 0.000000 0.998995
vn 0.053307 -0.000000 -0.998578
vn 0.053307 -0.000000 -0.998578
vn 0.053307 -0.000000 -0.998578
vn 0.053307 -0.000000 -0.998578
vn 0.997864 -0.000000 -0.065320
vn 1.000000 -0.000000 -0.000000
vn 1.000000 -0.000000 -0.000000
vn 0.997864 -0.000000 -0.065320
vn 1.000000 0.000000 0.000000
vn 1.000000 0.000000 0.000000
vn 0.044821 0.000000 -0.998995
vn 0.044821 0.000000 -0.998995
vn 0.059776 -0.000000 0.998212
vn 0.059776 -0.000000 0.998212
vn 0.059776 -0.000000 0.998212
vn 0.059776 -0.000000 0.998212
vn 0.997864 -0.000000 0.065320
vn 0.997864 -0.000000 0.065320
vn 0.000000 1.000000 -0.000000
vn 0.000000 1.000000 -0.000000
vn 0.000000 1.000000 -0.000000
vn 0.000000 1.000000 -0.000000
vn 0.000000 1.000000 -0.000000
vn 0.000000 1.000000 -0.000000
vn 0.000000 1.000000 -0.000000
vn 0.000000 1.000000 0.000000
vn 0.000000 1.000000 -0.000000
vn 0.000000 1.000000 -0.000000
vn 0.000000 1.000000 0.000000
vn 0.000000 1.000000 0.000000
vn 0.000000 1.000000 0.000000
vn 0.000000 1.000000 0.000000
vn 0.999997 -0.002470 0.000260
vn 0.999997 -0.002474 -0.000257
vn 0.000000 -0.731211 -0.682151
vn 0.000000 -0.731211 -0.682151
vn 0.125975 -0.725386 -0.676717
vn 0.125975 -0.725386 -0.676717
vn 0.000000 -0.716530 0.697557
vn 0.000000 -0.716530 0.697557
vn 0.124032 -0.710997 0.692170
vn 0.124032 -0.710997 0.692170
vn 0.000000 -0.731211 -0.682151
vn 0.000000 -0.731211 -0.682151
vn 0.125976 -0.725386 -0.676716
vn 0.125976 -0.725386 -0.676716
vn -0.000000 -0.716530 0.697556
vn -0.000000 -0.716530 0.697556
vn 0.124031 -0.710997 0.692170
vn 0.124031 -0.710997 0.692170
vn 0.000000 0.000000 1.000000
vn 0.000000 0.000000 1.000000
vn 0.000000 0.000000 1.000000
vn 0.000000 0.000000 1.000000
vn 0.044819 0.000000 0.998995
vn 0.044821 0.000000 0.998995
vn 0.044821 0.000000 0.998995
vn 0.044819 0.000000 0.998995
vn 1.000000 0.000000 0.000000
vn 1.000000 0.000000 0.000000
vn 1.000000 0.000000 0.000000
vn 1.000000 0.000000 0.000000
vn 0.717747 -0.696207 -0.011622
vn 0.717747 -0.696207 -0.011622
vn 0.717747 -0.696207 -0.011622
vn 0.717747 -0.696207 -0.011622
vn 0.717720 -0.696265 -0.009660
vn 0.717720 -0.696265 -0.009660
vn 0.717720 -0.696265 -0.009660
vn 0.717720 -0.696265 -0.009660
vn 0.999998 -0.001090 -0.001812
vn 0.999978 -0.003799 -0.005491
vn 0.999977 -0.004085 -0.005487
vn 0.999996 -0.001571 -0.002427
vn 0.999952 -0.008054 -0.005509
vn 0.999993 -0.003035 -0.002417
vn 1.000000 0.000000 0.000000
vn 1.000000 -0.000000 0.000000
vn 1.000000 -0.000000 0.000000
vn 1.000000 0.000000 0.000000
vn 1.000000 0.000000 0.000000
vn 1.000000 0.000000 0.000000
vn 1.000000 0.000000 0.000000
vn 1.000000 0.000000 0.000000
vn -0.000000 0.000000 -1.000000
vn 0.000000 0.000000 -1.000000
vn 0.000000 0.000000 -1.000000
vn 0.000000 0.000000 -1.000000
vn -0.000000 -0.716530 0.697556
vn -0.000000 -0.716530 0.697556
vn 0.124031 -0.710998 0.692170
vn 0.124031 -0.710998 0.692170
vn 0.000001 -0.731211 -0.682151
vn 0.000001 -0.731211 -0.682151
vn 0.125977 -0.725386 -0.676717
vn 0.125977 -0.725386 -0.676717
vn -0.000000 -0.716530 0.697557
vn -0.000000 -0.716530 0.697557
vn 0.124031 -0.710997 0.692170
vn 0.124031 -0.710997 0.692170
vn 0.000000 -0.731211 -0.682151
vn 0.000000 -0.731211 -0.682151
vn 0.125976 -0.725386 -0.676717
vn 0.125976 -0.725386 -0.676717
vn 1.000000 0.000000 0.000000
vn 1.000000 -0.000000 0.000000
vn 1.000000 -0.000000 0.000000
vn 1.000000 0.000000 0.000000
vn 0.044821 0.000000 -0.998995
vn 0.044819 0.000000 -0.998995
vn 0.044819 0.000000 -0.998995
vn 0.044821 0.000000 -0.998995
vn 0.717747 -0.696207 -0.011622
vn 0.717747 -0.696207 -0.011622
vn 0.717747 -0.696207 -0.011622
vn 0.717747 -0.696207 -0.011622
vn 0.999977 -0.003880 0.005512
vn 0.999998 -0.001099 0.001830
vn 0.999996 -0.001570 0.002426
vn 0.999976 -0.004171 0.005507
vn 0.717720 -0.696265 -0.009660
vn 0.717720 -0.696265 -0.009660
vn 0.717720 -0.696265 -0.009660
vn 0.717720 -0.696265 -0.009660
vn 0.999992 -0.003034 0.002418
vn 0.999952 -0.008050 0.005509
vn 1.000000 0.000000 0.000000
vn 1.000000 0.000000 0.000000
vn 1.000000 0.000000 0.000000
vn 1.000000 0.000000 0.000000
vn 1.000000 0.000000 0.000000
vn 1.000000 0.000000 0.000000
vn 1.000000 0.000000 0.000000
vn 1.000000 0.000000 0.000000
vn 0.722779 0.000000 0.691079
vn 0.722779 0.000000 0.691079
vn 0.722779 0.000000 0.691079
vn 0.722779 0.000000 0.691079
vn -0.000000 0.000000 -1.000000
vn -0.000000 0.000000 -1.000000
vn -0.000000 0.000000 -1.000000
vn -0.000000 0.000000 -1.000000
vn 0.707107 0.000000 -0.707107
vn 0.707107 0.000000 -0.707107
vn 0.707107 0.000000 -0.707107
vn 0.707107 0.000000 -0.707107
vn 1.000000 0.000000 0.000000
vn 1.000000 0.000000 0.000000
vn 1.000000 0.000000 0.000000
vn 1.000000 0.000000 0.000000
vn 0.722778 0.000000 -0.691080
vn 0.722779 0.000000 -0.691079
vn 0.722779 0.000000 -0.691079
vn 0.722778 0.000000 -0.691080
vn 1.000000 0.000000 0.000000
vn 1.000000 0.000000 0.000000
vn 0.707107 0.000000 0.707107
vn 0.707107 0.000000 0.707107
vn 0.707107 0.000000 0.707107
vn 0.707107 0.000000 0.707107
vn 0.000000 0.000000 1.000000
vn 0.000000 0.000000 1.000000
vn 0.000000 0.000000 1.000000
vn 0.000000 0.000000 1.000000
vn 1.000000 0.000000 0.000000
vn 1.000000 0.000000 0.000000
vn 0.999973 -0.004403 -0.005836
vn 0.999972 -0.004730 -0.005835
vn 1.000000 -0.000000 0.000000
vn 1.000000 -0.000000 0.000000
vn 0.000000 0.000000 -1.000000
vn -0.000000 0.000000 -1.000000
vn -0.000000 0.000000 -1.000000
vn 0.000000 0.000000 -1.000000
vn 0.169701 -0.985496 -0.000009
vn 0.000000 -1.000000 -0.000010
vn 0.000000 -1.000000 -0.000010
vn 0.169701 -0.985496 -0.000009
vn 0.000000 -0.000002 1.000000
vn 0.000000 -0.000002 1.000000
vn 0.000000 -0.000002 1.000000
vn 0.000000 -0.000002 1.000000
vn 0.000000 -0.000000 -1.000000
vn 0.000000 -0.000000 -1.000000
vn 0.000000 -0.000000 -1.000000
vn 0.000000 -0.000000 -1.000000
vn 0.169701 -0.985496 -0.000007
vn -0.000000 -1.000000 -0.000008
vn -0.000000 -1.000000 -0.000008
vn 0.169701 -0.985496 -0.000007
vn -0.000000 0.000000 1.000000
vn 0.000000 0.000000 1.000000
vn 0.000000 0.000000 1.000000
vn -0.000000 0.000000 1.000000
vn 0.000000 0.000000 1.000000
vn 0.000000 0.000000 1.000000
vn 1.000000 0.000000 0.000000
vn 1.000000 0.000000 0.000000
vn 0.999973 -0.004399 0.005836
vn 0.999972 -0.004730 0.005835
vn 1.000000 0.000000 0.000000
vn 1.000000 0.000000 0.000000
vn 0.000000 0.000000 1.000000
vn 0.000000 0.000000 1.000000
vn 0.000000 0.000000 1.000000
vn 0.000000 0.000000 1.000000
vn 0.169701 -0.985496 -0.000009
vn 0.169701 -0.985496 -0.000009
vn -0.000000 -1.000000 -0.000009
vn -0.000000 -1.000000 -0.000009
vn -0.000000 0.000000 -1.000000
vn -0.000000 0.000000 -1.000000
vn -0.000000 0.000000 -1.000000
vn -0.000000 0.000000 -1.000000
vn 0.000000 0.000000 1.000000
vn 0.000000 0.000000 1.000000
vn 0.000000 0.000000 1.000000
vn 0.000000 0.000000 1.000000
vn 0.169701 -0.985496 -0.000007
vn 0.169701 -0.985496 -0.000007
vn 0.000000 -1.000000 -0.000007
vn 0.000000 -1.000000 -0.000007
vn 0.000000 0.000000 -1.000000
vn 0.000000 0.000000 -1.000000
vn 0.000000 0.000000 -1.000000
vn 0.000000 0.000000 -1.000000
vn -0.000000 0.000000 -1.000000
vn 0.000000 0.000000 -1.000000
vn 0.722779 0.000000 0.691079
vn 0.722779 0.000000 0.691079
vn 0.707107 0.000000 -0.707107
vn 0.707107 0.000000 -0.707107
vn 0.707107 0.000000 -0.707107
vn 0.707107 0.000000 -0.707107
vn 0.707107 0.000000 -0.707107
vn 0.707107 0.000000 -0.707107
vn 0.722779 0.000000 -0.691079
vn 0.722779 0.000000 -0.691079
vn 0.707107 0.000000 0.707106
vn 0.707107 0.000000 0.707106
vn 0.707107 0.000000 0.707107
vn 0.707107 0.000000 0.707107
vn 0.707107 0.000000 0.707107
vn 0.707107 0.000000 0.707107
vn 0.044819 0.000000 0.998995
vn 0.044819 0.000000 0.998995
vn 1.000000 0.000000 0.000000
vn 1.000000 0.000000 0.000000
vn 0.000000 0.000000 -1.000000
vn 0.000000 0.000000 -1.000000
vn 1.000000 0.000000 0.000000
vn 1.000000 0.000000 0.000000
vn 0.000000 0.000000 -1.000000
vn 0.000000 0.000000 -1.000000
vn 0.000000 0.000000 -1.000000
vn 0.000000 0.000000 -1.000000
vn 1.000000 0.000000 0.000000
vn 1.000000 0.000000 0.000000
vn 1.000000 0.000000 0.000000
vn 1.000000 0.000000 0.000000
vn 0.044819 0.000000 -0.998995
vn 0.044819 0.000000 -0.998995
vn 1.000000 0.000000 0.000000
vn 1.000000 0.000000 0.000000
vn 0.000000 0.000000 1.000000
vn 0.000000 0.000000 1.000000
vn 1.000000 0.000000 0.000000
vn 0.000000 0.000000 1.000000
vn 0.000000 0.000000 1.000000
vn 0.000000 0.000000 1.000000
vn 0.000000 0.000000 1.000000
vn 1.000000 0.000000 0.000000
vn 1.000000 0.000000 0.000000
vn 0.999993 -0.002892 0.002276
vn 0.999996 -0.002915 0.000042
vn 0.999943 -0.008935 0.005817
vn 0.999943 -0.008940 -0.005817
vn 0.999993 -0.002893 -0.002276
vn 0.712306 0.000000 -0.701869
vn 0.712306 0.000000 -0.701869
vn 0.712306 0.000000 -0.701869
vn 0.712306 0.000000 0.701869
vn 0.712306 0.000000 0.701869
vn 0.712306 0.000000 0.701869
vn 0.712304 0.000000 0.701872
vn 0.712304 0.000000 0.701872
vn 0.712304 0.000000 0.701872
vn 0.712307 0.000000 -0.701868
vn 0.712307 0.000000 -0.701868
vn 0.712307 0.000000 -0.701868
vn 0.712304 0.000000 0.701872
vn 0.712304 0.000000 0.701872
vn 0.712304 0.000000 0.701872
vn 0.712306 0.000000 -0.701869
vn 0.712306 0.000000 -0.701869
vn 0.712306 0.000000 -0.701869
vn 0.712301 0.000000 -0.701874
vn 0.712301 0.000000 -0.701874
vn 0.712301 0.000000 -0.701874
vn 0.712304 0.000000 0.701872
vn 0.712304 0.000000 0.701872
vn 0.712304 0.000000 0.701872
vn 0.999996 -0.002917 -0.000042
vn 0.000000 0.000000 -1.000000
vn 0.000000 0.000000 -1.000000
vn 0.000000 0.000000 -1.000000
vn 0.000000 0.000000 -1.000000
vn 0.000000 1.000000 -0.000000
vn 0.000000 1.000000 -0.000000
vn 0.000000 1.000000 -0.000000
vn 0.000000 1.000000 -0.000000
vn 0.000000 0.000000 -1.000000
vn 0.000000 0.000000 -1.000000
vn 0.000000 0.000000 -1.000000
vn 0.000000 0.000000 -1.000000
vn 1.000000 0.000000 0.000000
vn 1.000000 0.000000 0.000000
vn 1.000000 0.000000 0.000000
vn 1.000000 0.000000 0.000000
vn 1.000000 0.000000 0.000000
vn 1.000000 0.000000 0.000000
vn 1.000000 0.000000 0.000000
vn 1.000000 0.000000 0.000000
vn 0.000000 1.000000 0.000000
vn 0.000000 1.000000 0.000000
vn 0.000000 1.000000 0.000000
vn 0.000000 1.000000 0.000000
vn 0.000000 1.000000 -0.000000
vn 0.000000 1.000000 -0.000000
vn 0.000000 1.000000 -0.000000
vn 0.000000 1.000000 -0.000000
vn 0.000000 -1.000000 0.000000
vn 0.000000 -1.000000 0.000000
vn 0.000000 -1.000000 0.000000
vn 0.000000 -1.000000 0.000000
vn 0.000000 -1.000000 0.000000
vn 0.000000 -1.000000 0.000000
vn 0.000000 -1.000000 0.000000
vn 0.000000 -1.000000 0.000000
vn 0.168816 0.985648 0.000000
vn 0.168816 0.985648 0.000000
vn 1.000000 0.000000 0.000000
vn 1.000000 0.000000 0.000000
vn 1.000000 0.000000 0.000000
vn 1.000000 0.000000 0.000000
vn -0.000000 1.000000 -0.000000
vn 0.000000 1.000000 0.000000
vn 0.000000 1.000000 0.000000
vn -0.000000 1.000000 -0.000000
vn 1.000000 0.000000 0.000000
vn 1.000000 0.000000 0.000000
vn 1.000000 0.000000 0.000000
vn 1.000000 0.000000 0.000000
vn 0.000000 -1.000000 0.000000
vn 0.000000 -1.000000 0.000000
vn 0.000000 -1.000000 0.000000
vn 0.000000 -1.000000 0.000000
vn 0.000000 1.000000 0.000000
vn 0.000000 1.000000 0.000000
vn 1.000000 0.000000 0.000000
vn 1.000000 0.000000 0.000000
vn 0.000000 -1.000000 0.000000
vn 0.000000 -1.000000 0.000000
vn 0.000000 -1.000000 0.000000
vn 0.000000 -1.000000 0.000000
vn 1.000000 0.000000 0.000000
vn 1.000000 0.000000 0.000000
vn 0.000000 1.000000 0.000000
vn 0.000000 1.000000 0.000000
vn 0.000000 -1.000000 0.000000
vn 0.000000 -1.000000 0.000000
vn 0.000000 -1.000000 0.000000
vn 0.000000 -1.000000 0.000000
vn 0.000000 -1.000000 0.000000
vn 0.000000 -1.000000 0.000000
vn 1.000000 0.000000 0.000000
vn 1.000000 0.000000 0.000000
vn 0.000000 1.000000 0.000000
vn 0.000000 1.000000 0.000000
vn 0.000000 1.000000 0.000000
vn 0.000000 1.000000 0.000000
vn 0.000000 1.000000 0.000000
vn 0.000000 1.000000 0.000000
vn 0.000000 1.000000 -0.000000
vn 0.000000 1.000000 -0.000000
vn 0.000000 1.000000 0.000000
vn 0.130934 0.991391 0.000000
vn 0.130934 0.991391 0.000000
vn 0.130934 0.991391 0.000000
vn 0.130934 0.991391 0.000000
vn 0.000000 0.000000 -1.000000
vn 0.000000 0.000000 -1.000000
vn 0.000000 -1.000000 0.000000
vn 0.000000 -1.000000 0.000000
vn 0.000000 0.000000 1.000000
vn 0.000000 0.000000 1.000000
vn 0.000000 0.000000 1.000000
vn 0.000000 0.000000 1.000000
vn 0.000000 1.000000 0.000000
vn 0.000000 1.000000 0.000000
vn 0.000000 1.000000 0.000000
vn 0.000000 0.000000 1.000000
vn 0.000000 0.000000 1.000000
vn 0.000000 0.000000 1.000000
vn 0.000000 0.000000 1.000000
vn 1.000000 0.000000 0.000000
vn 1.000000 0.000000 0.000000
vn 1.000000 0.000000 0.000000
vn 1.000000 0.000000 0.000000
vn 1.000000 0.000000 0.000000
vn 1.000000 0.000000 0.000000
vn 1.000000 0.000000 0.000000
vn 1.000000 0.000000 0.000000
vn 0.000000 1.000000 0.000000
vn 0.000000 1.000000 0.000000
vn 0.000000 1.000000 0.000000
vn 0.000000 1.000000 0.000000
vn 0.000000 1.000000 0.000000
vn 0.000000 1.000000 0.000000
vn 0.000000 1.000000 0.000000
vn 0.000000 1.000000 0.000000
vn 0.000000 -1.000000 0.000000
vn 0.000000 -1.000000 0.000000
vn 0.000000 -1.000000 0.000000
vn 0.000000 -1.000000 0.000000
vn 0.000000 -1.000000 0.000000
vn 0.000000 -1.000000 0.000000
vn 0.000000 -1.000000 0.000000
vn 0.000000 -1.000000 0.000000
vn 0.168816 0.985648 0.000000
vn 0.168816 0.985648 0.000000
vn 1.000000 0.000000 0.000000
vn 1.000000 0.000000 0.000000
vn 0.000000 1.000000 0.000000
vn 0.000000 1.000000 0.000000
vn 0.000000 1.000000 0.000000
vn 0.000000 1.000000 0.000000
vn 1.000000 0.000000 0.000000
vn 1.000000 0.000000 0.000000
vn 1.000000 0.000000 0.000000
vn 1.000000 0.000000 0.000000
vn 0.000000 -1.000000 0.000000
vn 0.000000 -1.000000 0.000000
vn 0.000000 -1.000000 0.000000
vn 0.000000 -1.000000 0.000000
vn 0.000000 1.000000 0.000000
vn 0.000000 1.000000 0.000000
vn 1.000000 0.000000 0.000000
vn 1.000000 0.000000 0.000000
vn 0.000000 -1.000000 0.000000
vn 0.000000 -1.000000 0.000000
vn 0.000000 -1.000000 0.000000
vn 0.000000 -1.000000 0.000000
vn 1.000000 0.000000 0.000000
vn 1.000000 0.000000 0.000000
vn 0.000000 1.000000 0.000000
vn 0.000000 1.000000 0.000000
vn 0.000000 -1.000000 0.000000
vn 0.000000 -1.000000 0.000000
vn 0.000000 -1.000000 0.000000
vn 0.000000 -1.000000 0.000000
vn 0.000000 -1.000000 0.000000
vn 0.000000 -1.000000 0.000000
vn 1.000000 0.000000 0.000000
vn 1.000000 0.000000 0.000000
vn 0.000000 1.000000 0.000000
vn 0.000000 1.000000 0.000000
vn 0.000000 1.000000 0.000000
vn 0.000000 1.000000 0.000000
vn 0.000000 1.000000 -0.000000
vn 0.000000 1.000000 -0.000000
vn 0.130934 0.991391 0.000000
vn 0.130934 0.991391 0.000000
vn 0.130934 0.991391 0.000000
vn 0.130934 0.991391 0.000000
vn 0.000000 0.000000 1.000000
vn 0.000000 0.000000 1.000000
vn 0.000000 -1.000000 0.000000
vn 0.000000 -1.000000 0.000000
vn 0.000000 -1.000000 0.000000
vn 0.000000 -1.000000 0.000000
vn 0.000000 -1.000000 0.000000
vn 0.000000 -1.000000 0.000000
vn 0.000000 1.000000 0.000000
vn 0.000000 1.000000 -0.000000
vn 0.000000 1.000000 -0.000001
vn 0.000000 1.000000 -0.000000
vn 0.000000 1.000000 0.000000
vn 0.000000 -1.000000 -0.000000
vn 0.000000 -1.000000 -0.000000
vn 0.000000 -1.000000 0.000000
vn 0.000000 -1.000000 0.000000
vn 0.000000 -1.000000 0.000000
vn 0.000000 -1.000000 0.000000
vn 0.000000 -1.000000 0.000000
vn 0.000000 -1.000000 0.000000
vn 0.000000 -1.000000 0.000000
vn 0.000000 -1.000000 0.000000
vn 0.000000 -1.000000 0.000000
vn 0.000000 -1.000000 0.000000
vn 0.000000 -1.000000 0.000000
vn 0.000000 -1.000000 0.000000
vn 0.000000 1.000000 0.000000
vn 0.000000 1.000000 0.000000
vn 1.000000 0.000000 0.000000
vn 1.000000 0.000000 0.000000
vn 0.000000 -1.000000 0.000000
vn 0.000000 -1.000000 0.000000
vn 0.000000 -1.000000 0.000000
vn 0.000000 -1.000000 0.000000
vn 1.000000 0.000000 0.000000
vn 1.000000 0.000000 0.000000
vn -0.000000 1.000000 -0.000003
vn -0.000000 1.000000 -0.000003
vn 0.000000 -1.000000 0.000000
vn 0.000000 -1.000000 0.000000
vn 0.000000 -1.000000 0.000000
vn 0.000000 -1.000000 0.000000
vn 0.000000 -1.000000 0.000000
vn 0.000000 -1.000000 0.000000
vn 0.000000 -1.000000 0.000000
vn 0.000000 -1.000000 0.000000
vn 0.000000 -1.000000 0.000000
vn 0.000000 -1.000000 0.000000
vn 0.000000 -1.000000 0.000000
vn -0.000116 0.000397 1.000000
vn -0.000000 0.000000 1.000000
vn -1.000000 0.000000 0.000000
vn -1.000000 0.000000 0.000000
vn -1.000000 0.000000 0.000000
vn -1.000000 0.000000 0.000000
vn -0.044821 0.000000 0.998995
vn -0.044821 0.000000 0.998995
vn -0.044821 0.000000 0.998995
vn -0.044821 0.000000 0.998995
vn -1.000000 0.000000 0.000000
vn -1.000000 0.000000 0.000000
vn -1.000000 0.000000 0.000000
vn -1.000000 0.000000 0.000000
vn -1.000000 0.000000 0.000000
vn -1.000000 -0.000000 0.000000
vn -1.000000 -0.000030 -0.000002
vn -1.000000 -0.000041 -0.000002
vn -0.999996 -0.001484 -0.002229
vn -0.999998 -0.001019 -0.001647
vn -1.000000 -0.000000 0.000000
vn -1.000000 0.000000 0.000000
vn -0.048368 0.734397 -0.676994
vn -0.319788 0.740149 -0.591536
vn -0.317859 0.740328 -0.592351
vn -0.048368 0.734397 -0.676994
vn -0.000000 0.000000 -1.000000
vn -0.000116 0.000397 -1.000000
vn -1.000000 0.000000 0.000000
vn -1.000000 0.000000 0.000000
vn -1.000000 0.000000 0.000000
vn -1.000000 0.000000 0.000000
vn -0.044821 0.000000 -0.998995
vn -0.044821 0.000000 -0.998995
vn -0.044821 0.000000 -0.998995
vn -0.044821 0.000000 -0.998995
vn -1.000000 0.000000 0.000000
vn -1.000000 0.000000 0.000000
vn -1.000000 0.000000 0.000000
vn -1.000000 0.000000 0.000000
vn -1.000000 0.000000 0.000000
vn -1.000000 0.000000 0.000000
vn -1.000000 -0.000030 0.000002
vn -1.000000 0.000000 0.000000
vn -1.000000 0.000000 0.000000
vn -0.999998 -0.001014 0.001654
vn -0.999996 -0.001478 0.002237
vn -1.000000 -0.000040 0.000002
vn -0.052797 0.734136 0.676947
vn -0.319670 0.739827 0.592003
vn -0.321561 0.739652 0.591197
vn -0.052797 0.734136 0.676947
vn -0.722779 0.000000 0.691080
vn -0.722779 0.000000 0.691080
vn -0.722778 0.000000 0.691080
vn -0.722778 0.000000 0.691080
vn -0.722778 0.000000 -0.691081
vn -0.722778 0.000000 -0.691081
vn -0.722778 0.000000 -0.691080
vn -0.722778 0.000000 -0.691080
vn -0.613896 0.729972 -0.300454
vn -0.613896 0.729972 -0.300455
vn -0.706349 0.707864 0.000000
vn -0.706349 0.707864 0.000000
vn -0.613877 0.729973 0.300491
vn -0.613877 0.729973 0.300490
vn -0.000123 0.000421 1.000000
vn -1.000000 0.000000 0.000000
vn -1.000000 0.000000 0.000000
vn -1.000000 0.000000 0.000000
vn -1.000000 0.000000 0.000000
vn -1.000000 0.000000 0.000000
vn -1.000000 0.000000 0.000000
vn -0.000123 0.000421 -1.000000
vn -1.000000 0.000000 0.000000
vn -1.000000 0.000000 0.000000
vn -1.000000 0.000000 0.000000
vn -1.000000 0.000000 0.000000
vn -1.000000 0.000000 0.000000
vn -1.000000 0.000000 0.000000
vn -0.722778 0.000000 0.691080
vn -0.722778 0.000000 0.691080
vn -0.707106 0.000000 -0.707107
vn -0.707106 0.000000 -0.707107
vn -0.707106 0.000000 -0.707107
vn -0.707106 0.000000 -0.707107
vn -0.722778 0.000000 -0.691080
vn -0.722778 0.000000 -0.691080
vn -0.707107 -0.000000 0.707107
vn -0.707107 -0.000000 0.707107
vn -0.707107 -0.000000 0.707107
vn -0.707107 -0.000000 0.707107
vn -1.000000 0.000000 0.000000
vn -1.000000 0.000000 0.000000
vn -0.044821 0.000000 0.998995
vn -0.044821 0.000000 0.998995
vn -0.053307 -0.000000 -0.998578
vn -0.053307 -0.000000 -0.998578
vn -0.053307 -0.000000 -0.998578
vn -0.053307 -0.000000 -0.998578
vn -0.997864 -0.000001 -0.065319
vn -0.997864 -0.000001 -0.065319
vn -1.000000 -0.000001 0.000000
vn -1.000000 -0.000001 0.000000
vn -1.000000 0.000000 0.000000
vn -1.000000 0.000000 0.000000
vn -0.044821 0.000000 -0.998995
vn -0.044821 0.000000 -0.998995
vn -0.059776 -0.000000 0.998212
vn -0.059776 -0.000000 0.998212
vn -0.059776 -0.000000 0.998212
vn -0.059776 -0.000000 0.998212
vn -0.997864 -0.000001 0.065319
vn -0.997864 -0.000001 0.065319
vn 0.000000 1.000000 0.000000
vn 0.000000 1.000000 0.000000
vn 0.000000 1.000000 0.000000
vn 0.000000 1.000000 0.000000
vn 0.000000 1.000000 0.000000
vn 0.000000 1.000000 0.000000
vn 0.000000 1.000000 0.000000
vn 0.000000 1.000000 0.000000
vn 0.000000 1.000000 0.000000
vn 0.000000 1.000000 0.000000
vn 0.000000 1.000000 0.000000
vn 0.000000 1.000000 0.000000
vn 0.000000 1.000000 0.000000
vn 0.000000 1.000000 0.000000
vn -0.999997 -0.002479 0.000259
vn -0.999997 -0.002467 -0.000256
vn -0.125975 -0.725386 -0.676717
vn -0.125975 -0.725386 -0.676717
vn -0.124032 -0.710997 0.692170
vn -0.124032 -0.710997 0.692170
vn -0.125976 -0.725386 -0.676717
vn -0.125976 -0.725386 -0.676716
vn -0.124031 -0.710997 0.692170
vn -0.124031 -0.710997 0.692170
vn -0.000000 0.000000 1.000000
vn -0.000000 0.000000 1.000000
vn -0.044819 -0.000001 0.998995
vn -0.044819 -0.000001 0.998995
vn -0.044821 0.000000 0.998995
vn -0.044821 0.000000 0.998995
vn -1.000000 0.000000 0.000000
vn -1.000000 0.000000 0.000000
vn -1.000000 -0.000000 -0.000000
vn -1.000000 -0.000000 -0.000000
vn -0.717747 -0.696207 -0.011621
vn -0.717747 -0.696207 -0.011621
vn -0.717747 -0.696207 -0.011621
vn -0.717747 -0.696207 -0.011621
vn -0.717717 -0.696268 -0.009660
vn -0.717717 -0.696268 -0.009660
vn -0.717717 -0.696268 -0.009660
vn -0.717717 -0.696268 -0.009660
vn -0.999998 -0.001089 -0.001812
vn -0.999996 -0.001571 -0.002427
vn -0.999977 -0.004083 -0.005487
vn -0.999978 -0.003797 -0.005491
vn -0.999993 -0.003035 -0.002417
vn -0.999952 -0.008053 -0.005508
vn -1.000000 -0.000000 0.000000
vn -1.000000 -0.000000 0.000000
vn -1.000000 0.000000 0.000000
vn -1.000000 0.000000 0.000000
vn -1.000000 0.000000 0.000000
vn -1.000000 0.000000 0.000000
vn -1.000000 0.000000 0.000000
vn -1.000000 0.000000 0.000000
vn -0.000001 0.000000 -1.000000
vn -0.000000 0.000000 -1.000000
vn -0.124031 -0.710998 0.692170
vn -0.124031 -0.710998 0.692170
vn -0.125976 -0.725386 -0.676717
vn -0.125976 -0.725386 -0.676717
vn -0.124031 -0.710997 0.692170
vn -0.124031 -0.710997 0.692170
vn -0.125976 -0.725386 -0.676717
vn -0.125976 -0.725386 -0.676717
vn -1.000000 0.000000 0.000000
vn -1.000000 0.000000 0.000000
vn -1.000000 0.000000 0.000000
vn -1.000000 0.000000 0.000000
vn -0.044821 0.000000 -0.998995
vn -0.044821 0.000000 -0.998995
vn -0.044819 0.000000 -0.998995
vn -0.044819 0.000000 -0.998995
vn -0.717743 -0.696211 -0.011621
vn -0.717743 -0.696211 -0.011621
vn -0.717743 -0.696211 -0.011621
vn -0.717743 -0.696211 -0.011621
vn -0.999977 -0.003879 0.005512
vn -0.999976 -0.004170 0.005507
vn -0.999996 -0.001569 0.002426
vn -0.999998 -0.001099 0.001830
vn -0.717720 -0.696264 -0.009660
vn -0.717720 -0.696264 -0.009660
vn -0.717720 -0.696264 -0.009660
vn -0.717720 -0.696264 -0.009660
vn -0.999952 -0.008052 0.005511
vn -0.999993 -0.003034 0.002418
vn -1.000000 0.000000 0.000000
vn -1.000000 0.000000 0.000000
vn -1.000000 0.000000 0.000000
vn -1.000000 0.000000 0.000000
vn -1.000000 0.000000 0.000000
vn -1.000000 0.000000 0.000000
vn -1.000000 0.000000 0.000000
vn -1.000000 0.000000 0.000000
vn -0.722779 0.000000 0.691080
vn -0.722779 0.000000 0.691080
vn -0.722779 0.000000 0.691080
vn -0.722779 0.000000 0.691080
vn 0.000001 0.000001 -1.000000
vn 0.000001 0.000001 -1.000000
vn 0.000000 0.000000 -1.000000
vn 0.000000 0.000000 -1.000000
vn -0.707107 0.000000 -0.707107
vn -0.707107 0.000000 -0.707107
vn -0.707107 0.000000 -0.707107
vn -0.707107 0.000000 -0.707107
vn -1.000000 0.000000 0.000000
vn -1.000000 0.000000 0.000000
vn -1.000000 0.000000 0.000000
vn -1.000000 0.000000 0.000000
vn -0.722778 0.000000 -0.691081
vn -0.722778 0.000000 -0.691081
vn -0.722779 0.000000 -0.691080
vn -0.722779 0.000000 -0.691080
vn -1.000000 0.000000 0.000000
vn -1.000000 0.000000 0.000000
vn -0.707107 0.000000 0.707107
vn -0.707107 0.000000 0.707107
vn -0.707107 0.000000 0.707107
vn -0.707107 0.000000 0.707107
vn 0.000000 0.000000 1.000000
vn 0.000000 0.000000 1.000000
vn 0.000000 0.000000 1.000000
vn 0.000000 0.000000 1.000000
vn -1.000000 -0.000001 -0.000000
vn -1.000000 -0.000001 -0.000000
vn -0.999973 -0.004405 -0.005836
vn -0.999972 -0.004731 -0.005835
vn -1.000000 0.000000 0.000000
vn -1.000000 0.000000 0.000000
vn -0.000000 0.000000 -1.000000
vn -0.000000 0.000000 -1.000000
vn -0.169701 -0.985496 -0.000010
vn -0.169701 -0.985496 -0.000010
vn 0.000000 -0.000002 1.000000
vn 0.000000 -0.000002 1.000000
vn -0.000000 -0.000000 -1.000000
vn -0.000000 -0.000000 -1.000000
vn -0.169701 -0.985496 -0.000008
vn -0.169701 -0.985496 -0.000008
vn 0.000000 0.000000 1.000000
vn 0.000000 0.000000 1.000000
vn -0.000000 0.000000 1.000000
vn -1.000000 0.000000 0.000000
vn -1.000000 0.000000 0.000000
vn -0.999973 -0.004400 0.005836
vn -0.999972 -0.004731 0.005835
vn -1.000000 0.000000 0.000000
vn -1.000000 0.000000 0.000000
vn 0.000000 0.000000 1.000000
vn 0.000000 0.000000 1.000000
vn -0.169701 -0.985496 -0.000009
vn -0.169701 -0.985496 -0.000009
vn -0.000000 0.000000 -1.000000
vn -0.000000 0.000000 -1.000000
vn 0.000000 0.000000 1.000000
vn 0.000000 0.000000 1.000000
vn -0.169701 -0.985496 -0.000008
vn -0.169701 -0.985496 -0.000008
vn 0.000000 0.000000 -1.000000
vn 0.000000 0.000000 -1.000000
vn -0.000001 0.000000 -1.000000
vn -0.722779 0.000000 0.691080
vn -0.722779 0.000000 0.691080
vn -0.707107 0.000000 -0.707106
vn -0.707107 0.000000 -0.707107
vn -0.707107 0.000000 -0.707107
vn -0.707107 0.000000 -0.707106
vn -0.707107 0.000000 -0.707106
vn -0.707107 0.000000 -0.707106
vn -0.722779 0.000000 -0.691080
vn -0.722779 0.000000 -0.691080
vn -0.707107 0.000000 0.707106
vn -0.707107 0.000000 0.707107
vn -0.707107 0.000000 0.707107
vn -0.707107 0.000000 0.707106
vn -0.707107 0.000000 0.707106
vn -0.707107 0.000000 0.707106
vn -0.044819 -0.000001 0.998995
vn -0.044819 -0.000001 0.998995
vn -1.000000 0.000000 0.000000
vn -1.000000 0.000000 0.000000
vn 0.000002 0.000001 -1.000000
vn 0.000002 0.000001 -1.000000
vn -1.000000 0.000000 0.000000
vn -1.000000 0.000000 0.000000
vn 0.000000 0.000000 -1.000000
vn 0.000000 0.000000 -1.000000
vn 0.000000 0.000000 -1.000000
vn 0.000000 0.000000 -1.000000
vn -1.000000 0.000000 0.000000
vn -1.000000 0.000000 0.000000
vn -1.000000 0.000000 0.000000
vn -1.000000 0.000000 0.000000
vn -0.044819 0.000000 -0.998995
vn -0.044819 0.000000 -0.998995
vn -1.000000 0.000000 0.000000
vn -1.000000 0.000000 0.000000
vn 0.000000 0.000000 1.000000
vn 0.000000 0.000000 1.000000
vn -1.000000 0.000000 0.000000
vn 0.000000 0.000000 1.000000
vn 0.000000 0.000000 1.000000
vn 0.000000 0.000000 1.000000
vn 0.000000 0.000000 1.000000
vn -1.000000 0.000000 0.000000
vn -1.000000 0.000000 0.000000
vn -0.999993 -0.002891 0.002277
vn -0.999996 -0.002910 0.000042
vn -0.999943 -0.008937 0.005819
vn -0.999943 -0.008937 -0.005816
vn -0.999993 -0.002893 -0.002275
vn -0.712305 0.000000 -0.701870
vn -0.712305 0.000000 -0.701870
vn -0.712305 0.000000 -0.701870
vn -0.712306 0.000000 0.701869
vn -0.712306 0.000000 0.701869
vn -0.712306 0.000000 0.701869
vn -0.712305 0.000000 0.701870
vn -0.712305 0.000000 0.701870
vn -0.712305 0.000000 0.701870
vn -0.712306 0.000000 -0.701869
vn -0.712306 0.000000 -0.701869
vn -0.712306 0.000000 -0.701869
vn -0.712304 0.000000 0.701872
vn -0.712304 0.000000 0.701872
vn -0.712304 0.000000 0.701872
vn -0.712305 0.000000 -0.701870
vn -0.712305 0.000000 -0.701870
vn -0.712305 0.000000 -0.701870
vn -0.712302 0.000000 -0.701873
vn -0.712302 0.000000 -0.701873
vn -0.712302 0.000000 -0.701873
vn -0.712304 0.000000 0.701872
vn -0.712304 0.000000 0.701872
vn -0.712304 0.000000 0.701872
vn -0.999996 -0.002934 -0.000043
vn 0.000000 -1.000000 -0.000000
vn 0.000000 -1.000000 -0.000000
vn 0.000000 -1.000000 -0.000000
vn 0.000000 -1.000000 -0.000000
vn 0.000000 -1.000000 -0.000000
vn 0.000000 -1.000000 -0.000000
vn 0.000000 -1.000000 0.000000
vn 0.000000 -1.000000 0.000000
vn 0.000000 -1.000000 0.000000
vn 0.000000 -1.000000 0.000000
vn 0.000000 -1.000000 0.000000
vn 0.000000 -1.000000 0.000000
vn 0.000000 -1.000000 0.000000
vn 0.000000 -1.000000 0.000000
vn 0.000000 -1.000000 -0.000000
vn 0.000000 -1.000000 -0.000000
vn 0.000000 -1.000000 0.000000
vn 0.000000 -1.000000 0.000000
vn 0.000000 -1.000000 0.000000
vn 0.000000 1.000000 0.000000
vn 0.000000 1.000000 0.000000
vn 0.000000 1.000000 0.000001
vn 0.000000 1.000000 0.000001
vn 0.000000 1.000000 -0.000001
vn 0.000000 1.000000 0.000001
vn 0.000000 1.000000 0.000000
vn 0.000000 1.000000 0.000000
vn 0.000000 1.000000 -0.000000
vn 0.000000 -1.000000 0.000000
vn 0.000000 -1.000000 0.000000
vn 0.000000 -1.000000 0.000000
s off
g polySurface1 pCube1
usemtl standardSurface2SG
f 14/5/1 13/607/2 16/606/3 15/8/4
s 1
f 45/9/5 97/12/6 24/13/7
s off
f 13/607/8 14/5/9 18/14/10 17/595/11
s 2
f 43/16/12 22/17/13 21/601/14 44/596/15
s 3
f 32/20/16 21/601/17 22/17/18 33/21/19
s 4
f 31/511/20 11/10/21 21/18/22 32/599/23
s 5
f 11/10/24 45/9/25 44/19/26 21/18/27
s 6
usemtl lambert1SG
f 33/21/28 22/17/29 12/1/30 30/23/31
s 7
f 12/1/32 22/17/33 43/16/34 42/2/35
s 8
usemtl standardSurface2SG
f 16/7/36 24/13/37 4/24/38 2/25/39
s 9
f 19/26/40 50/27/41 49/28/42 20/600/43
s 4
f 128/30/44 129/31/45 38/32/46 41/581/47
s 3
f 127/34/48 128/580/49 41/33/50 40/35/51
s 6
usemtl lambert1SG
f 121/36/52 127/34/53 40/35/54 39/37/55
s 4
usemtl standardSurface2SG
f 27/38/56 31/511/20 32/599/23 28/598/57
s 3
f 28/39/58 32/20/16 33/21/19 29/40/59
s 6
usemtl lambert1SG
f 29/40/60 33/21/28 30/23/31 26/41/61
f 36/42/62 29/40/60 26/41/61 35/43/63
s 3
usemtl standardSurface2SG
f 37/44/64 28/39/58 29/40/59 36/42/65
s 4
f 34/507/66 27/38/56 28/598/57 37/597/67
s 6
usemtl lambert1SG
f 40/35/54 36/42/62 35/43/63 39/37/55
s 3
usemtl standardSurface2SG
f 41/33/50 37/44/64 36/42/65 40/35/51
s 4
f 38/32/46 34/507/66 37/597/67 41/581/47
s off
usemtl lambert1SG
f 42/2/68 14/5/69 15/8/70 23/3/71
s 7
f 43/16/34 18/14/72 14/5/73 42/2/35
s 2
usemtl standardSurface2SG
f 17/15/74 18/14/75 43/16/12 44/596/15
s 5
f 45/9/25 13/6/76 17/608/77 44/19/26
s 1
f 13/6/78 45/9/5 24/13/7 16/7/79
s 13
f 10/46/80 20/29/81 49/591/82 51/47/83
s 14
f 27/506/84 6/48/85 5/49/86 31/556/87
s 15
f 38/510/88 8/50/89 7/51/90 34/555/91
s 16
f 1/52/92 15/8/93 16/606/94 2/602/95
s 17
usemtl lambert1SG
f 3/53/96 23/3/97 15/8/98 1/52/99
s off
usemtl standardSurface2SG
f 65/58/100 66/59/101 67/60/102 64/594/103
s 18
f 96/62/104 107/64/105 108/65/106 62/66/107
s off
f 64/594/108 68/584/109 69/68/110 65/58/111
s 19
f 94/69/112 95/70/113 72/593/114 73/72/115
s 20
f 83/589/116 84/74/117 73/72/118 72/593/119
s 21
f 82/75/120 83/73/121 72/71/122 62/66/123
s 22
f 62/66/124 72/71/125 95/586/126 96/62/127
s 23
usemtl lambert1SG
f 84/74/128 81/76/129 63/54/130 73/72/131
s 24
f 63/54/132 93/57/133 94/69/134 73/72/135
s 25
usemtl standardSurface2SG
f 67/592/136 53/569/137 55/78/138 75/63/139
s 9
f 70/79/140 71/590/141 49/28/42 50/27/41
s 21
f 124/81/142 125/582/143 92/83/144 89/501/145
s 20
f 125/82/146 126/85/147 91/86/148 92/583/149
s 23
usemtl lambert1SG
f 126/85/150 123/87/151 90/88/152 91/86/153
s 21
usemtl standardSurface2SG
f 78/499/154 79/90/155 83/73/121 82/75/120
s 20
f 79/588/156 80/91/157 84/74/117 83/589/116
s 23
usemtl lambert1SG
f 80/91/158 77/92/159 81/76/129 84/74/128
f 87/93/160 86/94/161 77/92/159 80/91/158
s 20
usemtl standardSurface2SG
f 88/587/162 87/93/163 80/91/157 79/588/156
s 21
f 85/96/164 88/95/165 79/90/155 78/499/154
s 23
usemtl lambert1SG
f 91/86/153 90/88/152 86/94/161 87/93/160
s 20
usemtl standardSurface2SG
f 92/583/149 91/86/148 87/93/163 88/587/162
s 21
f 89/501/145 92/83/144 88/95/165 85/96/164
s off
usemtl lambert1SG
f 93/57/166 74/56/167 66/59/168 65/58/169
s 24
f 94/69/134 93/57/133 65/58/170 69/68/171
s 19
usemtl standardSurface2SG
f 68/585/172 95/70/113 94/69/112 69/68/173
s 22
f 96/62/127 95/586/126 68/67/174 64/61/175
s 18
f 64/61/176 67/592/177 75/63/178 96/62/104
s 13
f 61/97/179 51/47/83 49/591/82 71/80/180
s 29
f 78/554/181 82/504/182 56/98/183 57/99/184
s 30
f 89/553/185 85/498/186 58/100/187 59/101/188
s 31
f 52/102/189 53/77/190 67/60/191 66/59/192
s 32
usemtl lambert1SG
f 54/103/193 52/102/194 66/59/195 74/56/196
s 33
f 19/26/197 9/104/198 131/105/199 50/27/200
s 34
usemtl standardSurface2SG
f 51/47/201 106/107/202 10/46/203
f 116/109/204 115/110/205 48/108/206 51/47/201
s 35
usemtl lambert1SG
f 102/113/207 101/114/208 118/115/209 117/116/210
f 112/117/211 111/118/212 120/119/213 119/120/214
f 101/114/208 9/104/215 121/36/216 118/115/209
f 46/121/217 102/113/207 117/116/210 122/122/218
f 60/123/219 112/117/211 119/120/214 123/87/220
f 111/118/212 46/121/217 122/122/218 120/119/213
s 21
usemtl standardSurface2SG
f 61/97/221 71/80/222 125/582/143 124/81/142
s 20
f 70/79/223 126/85/147 125/82/146 71/590/224
s 23
usemtl lambert1SG
f 60/123/225 123/87/151 126/85/150 70/79/226
s 6
f 9/104/227 19/26/228 127/34/53 121/36/52
s 3
usemtl standardSurface2SG
f 19/26/229 20/600/230 128/580/49 127/34/48
s 4
f 10/46/231 129/31/45 128/30/44 20/29/232
s 37
usemtl lambert1SG
f 9/104/233 101/114/234 130/124/235 131/105/236
f 130/124/235 102/113/237 46/121/238
f 130/124/235 111/118/239 112/117/240
f 101/114/234 102/113/237 130/124/235
f 130/124/235 46/121/238 111/118/239
f 60/123/241 131/105/236 130/124/235 112/117/240
s 33
f 50/27/200 131/105/199 60/123/242 70/79/243
s 38
g set5 polySurface1 pCube1
f 132/125/244 133/126/245 135/127/246 134/128/247
s 39
f 134/128/248 135/127/249 168/129/250 169/130/251
s 40
f 136/131/252 137/132/253 166/133/254 167/134/255
s 41
f 137/132/256 136/131/257 139/135/258 138/136/259
f 138/136/259 139/135/258 146/137/260 145/138/261
f 140/139/262 141/140/263 142/141/264 144/142/265
f 141/140/263 140/139/262 147/143/266 148/144/267
s 43
f 144/142/268 143/145/269 174/146/270 175/147/271
s 41
f 145/138/261 146/137/260 148/144/267 147/143/266
s 44
f 149/148/272 150/149/273 152/150/274 151/151/275
s 45
f 151/151/276 152/150/277 170/152/278 171/153/279
s 46
f 153/154/280 154/155/281 172/156/282 173/157/283
s 47
f 154/155/284 153/154/285 155/158/286 156/159/287
f 156/159/287 155/158/286 162/160/288 163/161/289
f 157/162/290 158/163/291 165/164/292 164/165/293
f 158/163/291 157/162/290 160/166/294 159/167/295
s 43
f 161/168/296 160/166/297 180/169/298 181/170/299
s 47
f 163/161/289 162/160/288 164/165/293 165/164/292
s 50
f 167/134/300 166/133/301 169/130/302 168/129/303
s 51
f 171/153/304 170/152/305 173/157/306 172/156/307
s 43
f 175/147/271 174/146/270 177/171/308 176/172/309
f 176/172/309 177/171/308 183/173/310 182/174/311
f 178/175/312 179/176/313 182/174/311 183/173/310
f 179/176/313 178/175/312 181/170/299 180/169/298
s 38
f 134/128/247 23/3/314 3/53/315 132/125/244
s 41
f 30/23/316 12/1/317 137/132/256 138/136/259
f 140/139/262 144/142/265 121/36/318 39/37/319
f 26/41/320 30/23/316 138/136/259 145/138/261
f 35/43/321 26/41/320 145/138/261 147/143/266
f 39/37/319 35/43/321 147/143/266 140/139/262
s 44
f 152/150/274 150/149/273 54/103/322 74/56/323
s 47
f 81/76/324 155/158/286 153/154/285 63/54/325
f 123/87/326 160/166/294 157/162/290 90/88/327
f 77/92/328 162/160/288 155/158/286 81/76/324
f 86/94/329 164/165/293 162/160/288 77/92/328
f 90/88/327 157/162/290 164/165/293 86/94/329
s 50
f 100/4/330 99/111/331 169/130/302 166/133/301
s off
f 117/116/332 118/115/333 175/147/334 176/172/335
s 51
f 110/112/336 109/55/337 173/157/306 170/152/305
s off
f 119/120/338 120/119/339 179/176/340 180/169/341
s 39
f 169/130/251 99/111/342 23/3/343 134/128/248
s 40
f 137/132/253 12/1/344 100/4/345 166/133/254
s off
f 144/142/346 175/147/347 118/115/348 121/36/349
s 52
f 176/172/350 182/174/351 122/122/352 117/116/353
s 45
f 110/112/354 170/152/278 152/150/277 74/56/355
s 46
f 153/154/280 173/157/283 109/55/356 63/54/357
s off
f 180/169/358 160/166/359 123/87/360 119/120/361
s 52
f 179/176/362 120/119/363 122/122/352 182/174/351
s 53
f 104/177/364 103/178/365 177/171/366 174/146/367
f 114/179/368 113/180/369 181/170/370 178/175/371
f 25/181/372 104/177/364 174/146/367 143/145/373
f 103/178/365 47/182/374 183/173/375 177/171/366
f 113/180/369 76/183/376 161/168/377 181/170/370
f 47/182/374 114/179/368 178/175/371 183/173/375
s 41
f 142/141/264 143/145/378 144/142/265
s 47
f 159/167/295 160/166/294 161/168/379
s 55
g polySurface1 pCube1
usemtl standardSurface2SG
f 184/184/380 185/185/381 197/186/382 196/512/383
s 56
f 186/188/384 187/189/385 205/190/386 204/191/387
s 57
f 188/192/388 189/193/389 208/194/390 207/508/391
s 58
f 190/196/392 191/197/393 200/198/394 199/199/395
s 38
f 193/200/396 192/201/397 210/202/398 211/203/399
s 40
f 194/204/400 195/205/401 243/206/402 242/207/403
s 41
f 195/205/404 194/204/405 196/187/406 198/208/407
s off
f 198/520/408 197/186/409 204/191/410 206/518/411
f 199/199/412 201/519/413 209/517/414 208/194/415
s 41
f 201/210/416 200/509/417 202/212/418 203/213/419
f 203/213/419 202/212/418 256/214/420 257/215/421
f 206/209/422 205/505/423 207/195/424 209/211/425
s 39
f 211/203/426 210/202/427 240/216/428 241/217/429
s 44
f 212/218/430 213/219/431 239/220/432 238/221/433
s 65
f 214/222/434 215/223/435 225/224/436 224/225/437
s 66
f 216/226/438 217/227/439 233/228/440 232/500/441
s 67
f 218/230/442 219/231/443 236/232/444 235/233/445
s 68
f 220/234/446 221/235/447 228/236/448 227/502/449
s 47
f 222/238/450 223/239/451 226/240/452 225/503/453
s 46
f 223/239/454 222/238/455 248/241/456 249/242/457
s off
f 224/225/458 226/516/459 234/514/460 233/228/461
s 47
f 227/237/462 229/244/463 231/245/464 230/246/465
s off
f 229/515/466 228/236/467 235/233/468 237/513/469
s 47
f 230/246/465 231/245/464 260/248/470 261/249/471
f 232/229/472 234/243/473 237/247/474 236/497/475
s 45
f 238/221/476 239/220/477 251/250/478 250/251/479
s 50
f 241/217/480 240/216/481 242/207/482 243/206/483
s 71
f 244/252/484 245/253/485 257/215/486 256/214/487
s 72
f 245/253/488 244/252/489 247/254/490 246/255/491
s 73
f 246/255/492 247/254/493 259/256/494 258/257/495
s 51
f 249/242/496 248/241/497 250/251/498 251/250/499
s 73
f 252/258/500 253/259/501 258/257/495 259/256/494
s 75
f 253/259/502 252/258/503 255/260/504 254/261/505
s 76
f 254/261/506 255/260/507 261/249/508 260/248/509
s 41
f 194/204/405 11/10/510 31/511/511 196/187/406
f 38/32/512 129/31/513 202/212/418 200/509/417
f 27/38/514 34/507/515 207/195/424 205/505/423
s 77
f 31/22/516 5/552/517 184/184/518 196/512/519
s 78
f 197/186/520 185/185/521 186/188/522 204/191/523
s 79
f 205/190/524 187/189/525 6/48/526 27/506/527
s 80
f 34/45/528 7/550/529 188/192/530 207/508/531
s 81
f 208/194/532 189/193/533 190/196/534 199/199/535
s 82
f 200/198/536 191/197/537 8/50/538 38/510/539
s 38
f 4/24/540 24/13/541 210/202/398 192/201/397
s 47
f 222/238/450 225/503/453 82/75/542 62/66/543
f 89/501/544 227/237/462 230/246/465 124/81/545
f 78/499/546 232/229/472 236/497/475 85/96/547
s 83
f 82/504/548 225/224/549 215/223/550 56/98/551
s 84
f 224/225/552 233/228/553 217/227/554 214/222/555
s 85
f 232/500/556 78/89/557 57/548/558 216/226/559
s 86
f 85/498/560 236/232/561 219/231/562 58/100/563
s 87
f 235/233/564 228/236/565 221/235/566 218/230/567
s 88
f 227/502/568 89/84/569 59/546/570 220/234/571
s 44
f 55/78/572 212/218/430 238/221/433 75/63/573
s 50
f 97/12/574 98/11/575 242/207/482 240/216/481
s 72
usemtl lambert1SG
f 103/178/576 104/177/577 263/262/578 264/263/579
usemtl standardSurface2SG
f 106/107/580 105/106/581 247/254/490 244/252/489
s 51
f 108/65/582 107/64/583 250/251/498 248/241/497
s 75
usemtl lambert1SG
f 113/180/584 114/179/585 266/264/586 267/265/587
usemtl standardSurface2SG
f 115/110/588 116/109/589 255/260/504 252/258/503
s 40
f 11/10/590 194/204/400 242/207/403 98/11/591
s 39
f 210/202/427 24/13/592 97/12/593 240/216/428
s 71
f 10/46/594 106/107/595 244/252/484 256/214/487
s 73
f 247/254/493 105/106/596 48/108/597 259/256/494
s 71
usemtl lambert1SG
f 262/266/598 263/262/599 104/177/600 25/181/601
s 73
f 264/263/602 265/267/603 47/182/604 103/178/605
s 46
usemtl standardSurface2SG
f 62/66/606 108/65/607 248/241/456 222/238/455
s 45
f 238/221/476 250/251/479 107/64/608 75/63/609
s 76
f 61/97/610 261/249/508 255/260/507 116/109/611
s 73
f 115/110/612 252/258/500 259/256/494 48/108/597
s 76
usemtl lambert1SG
f 267/265/613 268/268/614 76/183/615 113/180/616
s 73
f 265/267/603 266/264/617 114/179/618 47/182/604
s 47
g set5 polySurface1 pCube1
f 268/268/619 159/167/295 161/168/379 76/183/620
g polySurface1 pCube1
usemtl standardSurface2SG
f 124/81/545 230/246/465 261/249/471 61/97/621
s 41
f 202/212/418 129/31/513 10/46/622 256/214/420
f 257/215/421 262/266/623 142/141/264 203/213/419
s 38
f 211/203/399 135/127/246 133/126/245 193/200/396
s 41
f 136/131/257 195/205/404 198/208/407 139/135/258
f 206/209/422 146/137/260 139/135/258 198/208/407
f 209/211/425 148/144/267 146/137/260 206/209/422
f 201/210/416 141/140/263 148/144/267 209/211/425
f 203/213/419 142/141/264 141/140/263 201/210/416
s 44
f 239/220/432 213/219/431 149/148/272 151/151/275
s 47
f 154/155/284 156/159/287 226/240/452 223/239/451
f 234/243/473 226/240/452 156/159/287 163/161/289
f 237/247/474 234/243/473 163/161/289 165/164/292
f 229/244/463 237/247/474 165/164/292 158/163/291
f 158/163/291 159/167/295 231/245/464 229/244/463
s 50
f 241/217/480 243/206/483 167/134/300 168/129/303
s 51
f 249/242/496 251/250/499 171/153/304 172/156/307
s 39
f 135/127/249 211/203/426 241/217/429 168/129/250
s 40
f 195/205/401 136/131/252 167/134/255 243/206/402
s 45
f 151/151/276 171/153/279 251/250/478 239/220/477
s 46
f 223/239/454 249/242/457 172/156/282 154/155/281
s off
f 196/512/624 197/186/625 198/520/626
f 199/199/627 200/198/628 201/519/629
f 204/191/630 205/190/631 206/518/632
f 207/508/633 208/194/634 209/517/635
f 224/225/636 225/224/637 226/516/638
f 227/502/639 228/236/640 229/515/641
f 232/500/642 233/228/643 234/514/644
f 235/233/645 236/232/646 237/513/647
s 71
f 245/253/485 263/262/599 262/266/598 257/215/486
s 72
f 264/263/579 263/262/578 245/253/488 246/255/491
s 73
f 258/257/495 265/267/603 264/263/602 246/255/492
f 258/257/495 253/259/501 266/264/617 265/267/603
s 75
f 267/265/587 266/264/586 253/259/502 254/261/505
s 76
f 254/261/506 260/248/509 268/268/614 267/265/613
s 47
f 260/248/470 231/245/464 159/167/295 268/268/619
s 41
g set5 polySurface1 pCube1
usemtl lambert1SG
f 142/141/264 262/266/623 25/181/648 143/145/378
s off
g polySurface1 pCube1
usemtl standardSurface2SG
f 274/273/649 275/274/650 276/275/651 273/604/652
s 89
f 305/277/653 349/279/654 350/280/655 271/281/656
s off
f 273/604/657 277/605/658 278/283/659 274/273/660
s 90
f 303/284/661 304/285/662 281/579/663 282/287/664
s 91
f 292/578/665 293/289/666 282/287/667 281/579/668
s 92
f 291/290/669 292/288/670 281/286/671 271/281/672
s 93
f 271/281/673 281/286/674 304/574/675 305/277/676
s 94
usemtl lambert1SG
f 293/289/677 290/291/678 272/269/679 282/287/680
s 95
f 272/269/681 302/272/682 303/284/683 282/287/684
s 8
usemtl standardSurface2SG
f 276/603/685 2/25/39 4/24/38 284/278/686
s 96
f 279/292/687 280/293/688 309/568/689 310/295/690
s 92
f 380/296/691 301/575/692 298/530/693 381/299/694
s 91
f 379/300/695 300/301/696 301/297/697 380/558/698
s 94
usemtl lambert1SG
f 373/302/699 299/303/700 300/301/701 379/300/702
s 92
usemtl standardSurface2SG
f 287/526/703 288/305/704 292/288/670 291/290/669
s 91
f 288/577/705 289/306/706 293/289/666 292/578/665
s 94
usemtl lambert1SG
f 289/306/707 286/307/708 290/291/678 293/289/677
f 296/308/709 295/309/710 286/307/708 289/306/707
s 91
usemtl standardSurface2SG
f 297/576/711 296/308/712 289/306/706 288/577/705
s 92
f 294/311/713 297/310/714 288/305/704 287/526/703
s 94
usemtl lambert1SG
f 300/301/701 299/303/700 295/309/710 296/308/709
s 91
usemtl standardSurface2SG
f 301/297/697 300/301/696 296/308/712 297/576/711
s 92
f 298/530/693 301/575/692 297/310/714 294/311/713
s off
usemtl lambert1SG
f 302/272/715 283/271/716 275/274/717 274/273/718
s 95
f 303/284/683 302/272/682 274/273/719 278/283/720
s 90
usemtl standardSurface2SG
f 277/573/721 304/285/662 303/284/661 278/283/722
s 93
f 305/277/676 304/574/675 277/282/723 273/276/724
s 89
f 273/276/725 276/603/726 284/278/727 305/277/653
s 100
f 270/312/728 311/313/729 309/294/730 280/557/731
s 14
f 287/304/732 291/531/733 5/49/86 6/48/85
s 15
f 298/298/734 294/527/735 7/51/90 8/50/89
s 16
f 1/52/92 2/602/95 276/275/736 275/274/737
s 17
usemtl lambert1SG
f 3/53/96 1/52/99 275/274/738 283/271/739
s off
usemtl standardSurface2SG
f 317/318/740 316/572/741 319/570/742 318/321/743
s 101
f 348/322/744 359/325/745 327/326/746
s off
f 316/572/747 317/318/748 321/327/749 320/561/750
s 102
f 346/329/751 325/330/752 324/571/753 347/563/754
s 103
f 335/333/755 324/571/756 325/330/757 336/334/758
s 104
f 334/542/759 314/323/760 324/331/761 335/567/762
s 105
f 314/323/763 348/322/764 347/332/765 324/331/766
s 106
usemtl lambert1SG
f 336/334/767 325/330/768 315/314/769 333/336/770
s 107
f 315/314/771 325/330/772 346/329/773 345/315/774
s 25
usemtl standardSurface2SG
f 319/320/775 327/326/776 55/78/138 53/569/137
s 96
f 322/337/777 310/295/690 309/568/689 323/559/778
s 104
f 376/339/779 341/340/780 344/341/781 377/560/782
s 103
f 377/342/783 344/564/784 343/343/785 378/344/786
s 106
usemtl lambert1SG
f 378/344/787 343/343/788 342/345/789 375/346/790
s 104
usemtl standardSurface2SG
f 330/347/791 334/542/759 335/567/762 331/566/792
s 103
f 331/348/793 335/333/755 336/334/758 332/349/794
s 106
usemtl lambert1SG
f 332/349/795 336/334/767 333/336/770 329/350/796
f 339/351/797 332/349/795 329/350/796 338/352/798
s 103
usemtl standardSurface2SG
f 340/353/799 331/348/793 332/349/794 339/351/800
s 104
f 337/522/801 330/347/791 331/566/792 340/565/802
s 106
usemtl lambert1SG
f 343/343/788 339/351/797 338/352/798 342/345/789
s 103
usemtl standardSurface2SG
f 344/564/784 340/353/799 339/351/800 343/343/785
s 104
f 341/340/780 337/522/801 340/565/802 344/341/781
s off
usemtl lambert1SG
f 345/315/803 317/318/804 318/321/805 326/316/806
s 107
f 346/329/773 321/327/807 317/318/808 345/315/774
s 102
usemtl standardSurface2SG
f 320/328/809 321/327/810 346/329/751 347/563/754
s 105
f 348/322/764 316/319/811 320/562/812 347/332/765
s 101
f 316/319/813 348/322/744 327/326/746 319/320/814
s 100
f 313/355/815 323/338/816 309/294/730 311/313/729
s 29
f 330/539/817 57/99/184 56/98/183 334/335/818
s 30
f 341/523/819 59/101/188 58/100/187 337/354/820
s 31
f 52/102/189 318/321/821 319/570/822 53/77/190
s 32
usemtl lambert1SG
f 54/103/193 326/316/823 318/321/824 52/102/194
s 111
f 279/292/825 310/295/826 383/356/827 269/357/828
s 112
usemtl standardSurface2SG
f 358/360/829 311/313/830 270/312/831
f 368/361/832 313/355/833 311/313/830
s 114
usemtl lambert1SG
f 354/365/834 369/366/835 370/367/836 353/368/837
f 364/369/838 371/370/839 372/371/840 363/372/841
f 353/368/837 370/367/836 373/302/842 269/357/843
f 306/373/844 374/374/845 369/366/835 354/365/834
f 312/375/846 375/346/847 371/370/839 364/369/838
f 363/372/841 372/371/840 374/374/845 306/373/844
s 104
usemtl standardSurface2SG
f 313/355/848 376/339/779 377/560/782 323/338/849
s 103
f 322/337/850 323/559/851 377/342/783 378/344/786
s 106
usemtl lambert1SG
f 312/375/852 322/337/853 378/344/787 375/346/790
s 94
f 269/357/854 373/302/699 379/300/702 279/292/855
s 91
usemtl standardSurface2SG
f 279/292/856 379/300/695 380/558/698 280/293/857
s 92
f 270/312/858 280/557/859 380/296/691 381/299/694
s 116
usemtl lambert1SG
f 269/357/860 383/356/861 382/376/862 353/368/863
f 382/376/862 306/373/864 354/365/865
f 382/376/862 364/369/866 363/372/867
f 353/368/863 382/376/862 354/365/865
f 382/376/862 363/372/867 306/373/864
f 312/375/868 364/369/866 382/376/862 383/356/861
s 111
f 310/295/826 322/337/869 312/375/870 383/356/827
s 38
g set5 polySurface1 pCube1
f 132/125/244 384/377/871 385/378/872 133/126/245
s 118
f 384/377/873 417/379/874 416/380/875 385/378/876
s 119
f 386/381/877 415/382/878 414/383/879 387/384/880
s 120
f 387/384/881 388/385/882 389/386/883 386/381/884
f 388/385/882 395/387/885 396/388/886 389/386/883
f 390/389/887 394/390/888 392/391/889 391/392/890
f 391/392/890 398/393/891 397/394/892 390/389/887
s 122
f 394/390/893 423/395/894 422/396/895 393/397/896
s 120
f 395/387/885 397/394/892 398/393/891 396/388/886
s 44
f 149/148/272 399/398/897 400/399/898 150/149/273
s 123
f 399/398/899 419/400/900 418/401/901 400/399/902
s 124
f 401/402/903 421/403/904 420/404/905 402/405/906
s 125
f 402/405/907 404/406/908 403/407/909 401/402/910
f 404/406/908 411/408/911 410/409/912 403/407/909
f 405/410/913 412/411/914 413/412/915 406/413/916
f 406/413/916 407/414/917 408/415/918 405/410/913
s 122
f 409/416/919 429/417/920 428/418/921 408/415/922
s 125
f 411/408/911 413/412/915 412/411/914 410/409/912
s 128
f 415/382/923 416/380/924 417/379/925 414/383/926
s 129
f 419/400/927 420/404/928 421/403/929 418/401/930
s 122
f 423/395/894 424/419/931 425/420/932 422/396/895
f 424/419/931 430/421/933 431/422/934 425/420/932
f 426/423/935 431/422/934 430/421/933 427/424/936
f 427/424/936 428/418/921 429/417/920 426/423/935
s 38
f 384/377/871 132/125/244 3/53/315 283/271/937
s 120
f 290/291/938 388/385/882 387/384/881 272/269/939
f 390/389/887 299/303/940 373/302/941 394/390/888
f 286/307/942 395/387/885 388/385/882 290/291/938
f 295/309/943 397/394/892 395/387/885 286/307/942
f 299/303/940 390/389/887 397/394/892 295/309/943
s 44
f 400/399/898 326/316/944 54/103/322 150/149/273
s 125
f 333/336/945 315/314/946 401/402/910 403/407/909
f 375/346/947 342/345/948 405/410/913 408/415/918
f 329/350/949 333/336/945 403/407/909 410/409/912
f 338/352/950 329/350/949 410/409/912 412/411/914
f 342/345/948 338/352/950 412/411/914 405/410/913
s 128
f 352/270/951 414/383/926 417/379/925 351/363/952
s off
f 369/366/953 424/419/954 423/395/955 370/367/956
s 129
f 362/364/957 418/401/930 421/403/929 361/317/958
s off
f 371/370/959 428/418/960 427/424/961 372/371/962
s 118
f 417/379/874 384/377/873 283/271/963 351/363/964
s 119
f 387/384/880 414/383/879 352/270/965 272/269/966
s off
f 394/390/967 373/302/968 370/367/969 423/395/970
s 130
f 424/419/971 369/366/972 374/374/973 430/421/974
s 123
f 362/364/975 326/316/976 400/399/902 418/401/901
s 124
f 401/402/903 315/314/977 361/317/978 421/403/904
s off
f 428/418/979 371/370/980 375/346/981 408/415/982
s 130
f 427/424/983 430/421/974 374/374/973 372/371/984
s 131
f 356/425/985 422/396/986 425/420/987 355/426/988
f 366/427/989 426/423/990 429/417/991 365/428/992
f 285/429/993 393/397/994 422/396/986 356/425/985
f 355/426/988 425/420/987 431/422/995 307/430/996
f 365/428/992 429/417/991 409/416/997 328/431/998
f 307/430/996 431/422/995 426/423/990 366/427/989
s 120
f 392/391/889 394/390/888 393/397/999
s 125
f 407/414/917 409/416/1000 408/415/918
s 55
g polySurface1 pCube1
usemtl standardSurface2SG
f 184/184/380 434/432/1001 435/433/1002 185/185/381
s 56
f 186/188/384 442/434/1003 443/525/1004 187/189/385
s 57
f 188/192/388 445/436/1005 446/437/1006 189/193/389
s 58
f 190/196/392 437/438/1007 438/529/1008 191/197/393
s 38
f 193/200/396 449/440/1009 448/441/1010 192/201/397
s 119
f 432/442/1011 470/443/1012 471/444/1013 433/445/1014
s 120
f 433/445/1015 436/446/1016 434/532/1017 432/442/1018
s off
f 436/538/1019 444/536/1020 442/434/1021 435/433/1022
f 437/438/1023 446/437/1024 447/535/1025 439/537/1026
s 120
f 439/449/1027 441/450/1028 440/451/1029 438/439/1030
f 441/450/1028 485/452/1031 484/453/1032 440/451/1029
f 444/447/1033 447/448/1034 445/528/1035 443/435/1036
s 118
f 449/440/1037 469/454/1038 468/455/1039 448/441/1040
s 44
f 212/218/430 466/456/1041 467/457/1042 213/219/431
s 65
f 214/222/434 452/458/1043 453/541/1044 215/223/435
s 66
f 216/226/438 460/460/1045 461/461/1046 217/227/439
s 67
f 218/230/442 463/462/1047 464/521/1048 219/231/443
s 68
f 220/234/446 455/464/1049 456/465/1050 221/235/447
s 125
f 450/466/1051 453/459/1052 454/467/1053 451/468/1054
s 124
f 451/468/1055 477/469/1056 476/470/1057 450/466/1058
s off
f 452/458/1059 461/461/1060 462/543/1061 454/544/1062
s 125
f 455/524/1063 458/472/1064 459/473/1065 457/474/1066
s off
f 457/534/1067 465/533/1068 463/462/1069 456/465/1070
s 125
f 458/472/1064 489/476/1071 488/477/1072 459/473/1065
f 460/540/1073 464/463/1074 465/475/1075 462/471/1076
s 123
f 466/456/1077 478/478/1078 479/479/1079 467/457/1080
s 128
f 469/454/1081 471/444/1082 470/443/1083 468/455/1084
s 138
f 472/480/1085 484/453/1086 485/452/1087 473/481/1088
s 139
f 473/481/1089 474/482/1090 475/483/1091 472/480/1092
s 140
f 474/482/1093 486/484/1094 487/485/1095 475/483/1096
s 129
f 477/469/1097 479/479/1098 478/478/1099 476/470/1100
s 140
f 480/486/1101 487/485/1095 486/484/1094 481/487/1102
s 141
f 481/487/1103 482/488/1104 483/489/1105 480/486/1106
s 142
f 482/488/1107 488/477/1108 489/476/1109 483/489/1110
s 120
f 432/442/1018 434/532/1017 291/290/1111 271/281/1112
f 298/530/1113 438/439/1030 440/451/1029 381/299/1114
f 287/526/1115 443/435/1036 445/528/1035 294/311/1116
s 77
f 291/551/1117 434/432/1118 184/184/518 5/552/517
s 78
f 435/433/1119 442/434/1120 186/188/522 185/185/521
s 79
f 443/525/1121 287/304/1122 6/48/526 187/189/525
s 80
f 294/549/1123 445/436/1124 188/192/530 7/550/529
s 81
f 446/437/1125 437/438/1126 190/196/534 189/193/533
s 82
f 438/529/1127 298/298/1128 8/50/538 191/197/537
s 38
f 4/24/540 192/201/397 448/441/1010 284/278/1129
s 125
f 450/466/1051 314/323/1130 334/542/1131 453/459/1052
f 341/340/1132 376/339/1133 458/472/1064 455/524/1063
f 330/347/1134 337/522/1135 464/463/1074 460/540/1073
s 83
f 334/335/1136 56/98/551 215/223/550 453/541/1137
s 84
f 452/458/1138 214/222/555 217/227/554 461/461/1139
s 85
f 460/460/1140 216/226/559 57/548/558 330/547/1141
s 86
f 337/354/1142 58/100/563 219/231/562 464/521/1143
s 87
f 463/462/1144 218/230/567 221/235/566 456/465/1145
s 88
f 455/464/1146 220/234/571 59/546/570 341/545/1147
s 44
f 55/78/572 327/326/1148 466/456/1041 212/218/430
s 128
f 349/279/1149 468/455/1084 470/443/1083 350/280/1150
s 139
usemtl lambert1SG
f 355/426/1151 492/490/1152 491/491/1153 356/425/1154
usemtl standardSurface2SG
f 358/360/1155 472/480/1092 475/483/1091 357/358/1156
s 129
f 360/324/1157 476/470/1100 478/478/1099 359/325/1158
s 141
usemtl lambert1SG
f 365/428/1159 495/492/1160 494/493/1161 366/427/1162
usemtl standardSurface2SG
f 367/362/1163 480/486/1106 483/489/1105 368/361/1164
s 119
f 271/281/1165 350/280/1166 470/443/1012 432/442/1011
s 118
f 448/441/1040 468/455/1039 349/279/1167 284/278/1168
s 138
f 270/312/1169 484/453/1086 472/480/1085 358/360/1170
s 140
f 475/483/1096 487/485/1095 308/359/1171 357/358/1172
s 138
usemtl lambert1SG
f 490/494/1173 285/429/1174 356/425/1175 491/491/1176
s 140
f 492/490/1177 355/426/1178 307/430/1179 493/495/1180
s 124
usemtl standardSurface2SG
f 314/323/1181 450/466/1058 476/470/1057 360/324/1182
s 123
f 466/456/1077 327/326/1183 359/325/1184 478/478/1078
s 142
f 313/355/1185 368/361/1186 483/489/1110 489/476/1109
s 140
f 367/362/1187 308/359/1171 487/485/1095 480/486/1101
s 142
usemtl lambert1SG
f 495/492/1188 365/428/1189 328/431/1190 496/496/1191
s 140
f 493/495/1180 307/430/1179 366/427/1192 494/493/1193
s 125
g set5 polySurface1 pCube1
f 496/496/1194 328/431/1195 409/416/1000 407/414/917
g polySurface1 pCube1
usemtl standardSurface2SG
f 376/339/1133 313/355/1196 489/476/1071 458/472/1064
s 120
f 440/451/1029 484/453/1032 270/312/1197 381/299/1114
f 485/452/1031 441/450/1028 392/391/889 490/494/1198
s 38
f 449/440/1009 193/200/396 133/126/245 385/378/872
s 120
f 386/381/884 389/386/883 436/446/1016 433/445/1015
f 444/447/1033 436/446/1016 389/386/883 396/388/886
f 447/448/1034 444/447/1033 396/388/886 398/393/891
f 439/449/1027 447/448/1034 398/393/891 391/392/890
f 441/450/1028 439/449/1027 391/392/890 392/391/889
s 44
f 467/457/1042 399/398/897 149/148/272 213/219/431
s 125
f 402/405/907 451/468/1054 454/467/1053 404/406/908
f 462/471/1076 411/408/911 404/406/908 454/467/1053
f 465/475/1075 413/412/915 411/408/911 462/471/1076
f 457/474/1066 406/413/916 413/412/915 465/475/1075
f 406/413/916 457/474/1066 459/473/1065 407/414/917
s 128
f 469/454/1081 416/380/924 415/382/923 471/444/1082
s 129
f 477/469/1097 420/404/928 419/400/927 479/479/1098
s 118
f 385/378/876 416/380/875 469/454/1038 449/440/1037
s 119
f 433/445/1014 471/444/1013 415/382/878 386/381/877
s 123
f 399/398/899 467/457/1080 479/479/1079 419/400/900
s 124
f 451/468/1055 402/405/906 420/404/905 477/469/1056
s off
f 434/432/1199 436/538/1200 435/433/1201
f 437/438/1202 439/537/1203 438/529/1204
f 442/434/1205 444/536/1206 443/525/1207
f 445/436/1208 447/535/1209 446/437/1210
f 452/458/1211 454/544/1212 453/541/1213
f 455/464/1214 457/534/1215 456/465/1216
f 460/460/1217 462/543/1218 461/461/1219
f 463/462/1220 465/533/1221 464/521/1222
s 138
f 473/481/1088 485/452/1087 490/494/1173 491/491/1176
s 139
f 492/490/1152 474/482/1090 473/481/1089 491/491/1153
s 140
f 486/484/1094 474/482/1093 492/490/1177 493/495/1180
f 486/484/1094 493/495/1180 494/493/1193 481/487/1102
s 141
f 495/492/1160 482/488/1104 481/487/1103 494/493/1161
s 142
f 482/488/1107 495/492/1188 496/496/1191 488/477/1108
s 125
f 488/477/1072 496/496/1194 407/414/917 459/473/1065
s 120
g set5 polySurface1 pCube1
usemtl lambert1SG
f 392/391/889 393/397/999 285/429/1223 490/494/1198
s off
f 12/1/1224 42/2/1225 99/111/1226 100/4/1227
s 144
g polySurface1 pCube1
f 302/272/1228 351/363/1229 283/271/1230
s 145
f 345/315/1231 326/316/1232 362/364/1233
s 146
f 93/57/1234 63/54/1235 109/55/1236 110/112/1237
s 144
f 352/270/1238 351/363/1229 302/272/1228 272/269/1239
s 146
f 93/57/1234 110/112/1237 74/56/1240
s 145
f 345/315/1231 362/364/1233 361/317/1241 315/314/1242
s 18
usemtl standardSurface2SG
f 96/62/104 75/63/178 107/64/105
s 101
f 348/322/744 314/323/1243 360/324/1244 359/325/745
s 89
f 305/277/653 284/278/727 349/279/654
s 1
f 45/9/5 11/10/1245 98/11/1246 97/12/6
s 34
f 116/109/204 51/47/201 61/97/1247
f 105/106/1248 106/107/202 51/47/201 48/108/206
s 112
f 357/358/1249 308/359/1250 311/313/830 358/360/829
f 368/361/832 311/313/830 308/359/1250 367/362/1251
s off
usemtl lambert1SG
f 42/2/1252 23/3/1253 99/111/1254
