# This file uses centimeters as units for non-parametric coordinates.

mtllib GymRoof.mtl
g default
v -1.444493 29.003738 17.528725
v -1.444493 29.003738 -12.969046
v -1.444493 29.279159 17.528725
v -1.444493 29.279159 -12.969046
v 7.612473 30.371250 17.528725
v 7.612473 30.371250 -12.969046
v 7.612473 30.646671 17.528725
v 7.612473 30.646671 -12.969046
v 16.669439 29.003738 17.528725
v 16.669439 29.003738 -12.969046
v 16.669439 29.279159 17.528725
v 16.669439 29.279159 -12.969046
vt 0.450238 0.170842
vt 0.655822 0.163011
vt 0.639127 0.842421
vt 0.445099 0.828423
vt 0.444820 0.168479
vt 0.439771 0.830709
vt 0.638908 0.848423
vt 0.242338 0.168286
vt 0.859370 0.186450
vt 0.834527 0.840268
vt 0.864898 0.184504
vt 0.839759 0.842862
vt 0.041455 0.169795
vt 0.656076 0.157042
vt 0.041522 0.835979
vt 0.241448 0.833846
vn -0.149298 0.988792 0.000000
vn 0.000000 1.000000 0.000000
vn 0.000000 1.000000 0.000000
vn -0.149298 0.988792 0.000000
vn 0.149298 -0.988792 0.000000
vn 0.149298 -0.988792 0.000000
vn 0.000000 -1.000000 0.000000
vn 0.000000 -1.000000 0.000000
vn -0.000000 0.000000 1.000000
vn -0.000000 0.000000 1.000000
vn -0.000000 0.000000 1.000000
vn -0.000000 0.000000 1.000000
vn -1.000000 0.000000 0.000000
vn -1.000000 0.000000 0.000000
vn -1.000000 0.000000 0.000000
vn -1.000000 0.000000 0.000000
vn 0.000000 0.000000 -1.000000
vn 0.000000 0.000000 -1.000000
vn 0.000000 0.000000 -1.000000
vn 0.000000 0.000000 -1.000000
vn 0.149298 0.988792 0.000000
vn 0.149298 0.988792 0.000000
vn -0.149298 -0.988792 0.000000
vn -0.149298 -0.988792 0.000000
vn 0.000000 0.000000 1.000000
vn 0.000000 0.000000 1.000000
vn 1.000000 0.000000 0.000000
vn 1.000000 0.000000 0.000000
vn 1.000000 0.000000 0.000000
vn 1.000000 0.000000 0.000000
vn 0.000000 0.000000 -1.000000
vn 0.000000 0.000000 -1.000000
s 1
g polySurface2 pCube1
usemtl initialShadingGroup
f 3/1/1 7/2/2 8/3/3 4/4/4
s 2
f 1/5/5 2/6/6 6/16/7 5/8/8
s 3
f 1/5/9 5/14/10 7/2/11 3/1/12
s off
f 2/6/13 1/5/14 3/1/15 4/4/16
s 4
f 8/3/17 6/7/18 2/6/19 4/4/20
s 1
f 11/9/21 12/10/22 8/3/3 7/2/2
s 2
f 9/13/23 5/8/8 6/16/7 10/15/24
s 3
f 9/11/25 11/9/26 7/2/11 5/14/10
s off
f 10/12/27 12/10/28 11/9/29 9/11/30
s 4
f 8/3/17 12/10/31 10/12/32 6/7/18
