# Blender 5.1.1
# www.blender.org
mtllib Fan.mtl
o Cube
v -0.429397 -0.274527 1.000000
v -0.429397 7.781513 1.000000
v -0.429397 -0.274528 0.090032
v 0.355704 7.781513 -3.949788
v -0.146671 -0.274527 1.000000
v -0.146671 7.781513 1.000000
v -0.146671 -0.274528 0.090032
v 0.627248 7.781513 -3.871059
v -0.429397 -0.274528 0.545016
v 0.351288 8.833210 -1.521412
v -0.146671 -0.274528 0.545016
v 0.634015 8.833210 -1.521412
v 0.480741 8.603493 -2.646616
v -0.146671 -0.274528 0.317524
v -0.429397 -0.274528 0.317524
v 0.752284 8.603493 -2.567888
v -0.429397 -0.274527 0.772508
v 0.268931 8.603493 -0.216811
v -0.013796 8.603493 -0.216811
v -0.146671 -0.274527 0.772508
v -0.429397 -0.728760 -0.737749
v -0.429397 -4.756780 6.238987
v -0.429397 0.059296 -0.282764
v 0.355704 -0.470138 8.713881
v -0.146671 -0.728760 -0.737749
v -0.146671 -4.756780 6.238987
v -0.146671 0.059296 -0.282764
v 0.627248 -0.538319 8.674516
v -0.429397 -0.334732 -0.510257
v 0.351288 -3.099022 8.410489
v -0.146671 -0.334732 -0.510257
v 0.634015 -3.099022 8.410489
v 0.480741 -2.009709 8.774150
v -0.146671 -0.137718 -0.396511
v -0.429397 -0.137718 -0.396511
v 0.752284 -2.077890 8.734786
v -0.429397 -0.531746 -0.624002
v 0.268931 -4.113982 7.559248
v -0.013796 -4.113982 7.559248
v -0.146671 -0.531746 -0.624002
v -0.429397 1.003290 -0.262251
v -0.429397 -3.024729 -7.238986
v -0.429397 0.215234 0.192733
v 0.355704 -7.311371 -4.764092
v -0.146671 1.003290 -0.262251
v -0.146671 -3.024729 -7.238986
v -0.146671 0.215234 0.192733
v 0.627248 -7.243190 -4.803457
v -0.429397 0.609262 -0.034759
v 0.351288 -5.734185 -6.889078
v -0.146671 0.609262 -0.034759
v 0.634015 -5.734185 -6.889078
v 0.480741 -6.593781 -6.127534
v -0.146671 0.412249 0.078987
v -0.429397 0.412249 0.078987
v 0.752284 -6.525601 -6.166899
v -0.429397 0.806276 -0.148505
v 0.268931 -4.489508 -7.342437
v -0.013796 -4.489508 -7.342437
v -0.146671 0.806276 -0.148505
vn -0.9938 0.1089 0.0227
vn 0.1255 -0.4510 -0.8837
vn 0.9621 -0.0077 0.2725
vn -0.0000 -0.0000 1.0000
vn -0.0000 -1.0000 -0.0000
vn -0.0000 0.8286 0.5598
vn 0.0289 0.9786 -0.2037
vn 0.9925 -0.0641 0.1037
vn -0.9733 0.0260 -0.2280
vn 0.9939 -0.1076 -0.0234
vn 0.1559 0.8286 -0.5376
vn -0.9923 0.0637 -0.1058
vn -0.9621 0.0077 -0.2725
vn -0.0000 0.9848 0.1734
vn 0.9733 -0.0260 0.2280
vn -0.9938 -0.0741 0.0829
vn 0.1255 0.9908 0.0513
vn 0.9621 -0.2321 -0.1429
vn -0.0000 -0.8660 -0.5000
vn -0.0000 0.5000 -0.8660
vn -0.0000 -0.8991 0.4377
vn 0.0289 -0.3129 0.9494
vn 0.9925 -0.0577 -0.1074
vn -0.9733 0.1845 0.1365
vn 0.9939 0.0741 -0.0815
vn 0.1559 0.0513 0.9864
vn -0.9923 0.0598 0.1081
vn -0.9621 0.2321 0.1429
vn -0.0000 -0.6426 0.7662
vn 0.9733 -0.1845 -0.1365
vn -0.9938 -0.0348 -0.1056
vn 0.1255 -0.5398 0.8324
vn 0.9621 0.2398 -0.1296
vn -0.0000 0.8660 -0.5000
vn -0.0000 0.5000 0.8660
vn -0.0000 0.0705 -0.9975
vn 0.0289 -0.6657 -0.7456
vn 0.9925 0.1219 0.0037
vn -0.9733 -0.2105 0.0915
vn 0.9939 0.0336 0.1049
vn 0.1559 -0.8799 -0.4488
vn -0.9923 -0.1235 -0.0023
vn -0.9621 -0.2398 0.1296
vn -0.0000 -0.3422 -0.9396
vn 0.9733 0.2105 -0.0915
vt 0.375000 0.187500
vt 0.625000 0.187500
vt 0.625000 0.250000
vt 0.375000 0.250000
vt 0.625000 0.500000
vt 0.375000 0.500000
vt 0.375000 0.687500
vt 0.625000 0.687500
vt 0.625000 0.750000
vt 0.375000 0.750000
vt 0.625000 1.000000
vt 0.375000 1.000000
vt 0.125000 0.687500
vt 0.125000 0.750000
vt 0.875000 0.687500
vt 0.875000 0.750000
vt 0.625000 0.562500
vt 0.875000 0.562500
vt 0.875000 0.625000
vt 0.625000 0.625000
vt 0.125000 0.562500
vt 0.375000 0.562500
vt 0.375000 0.625000
vt 0.125000 0.625000
vt 0.375000 0.062500
vt 0.625000 0.062500
vt 0.625000 0.125000
vt 0.375000 0.125000
vt 0.125000 0.500000
vt 0.875000 0.500000
vt 0.375000 0.000000
vt 0.625000 0.000000
s 1
f 15/1/1 13/2/1 4/3/1 3/4/1
f 3/4/2 4/3/2 8/5/2 7/6/2
f 20/7/3 18/8/3 6/9/3 5/10/3
f 5/10/4 6/9/4 2/11/4 1/12/4
f 17/13/5 20/7/5 5/10/5 1/14/5
f 18/8/6 19/15/6 2/16/6 6/9/6
f 16/17/7 13/18/7 10/19/7 12/20/7
f 15/21/5 14/22/5 11/23/5 9/24/5
f 14/22/8 16/17/8 12/20/8 11/23/8
f 17/25/9 19/26/9 10/27/9 9/28/9
f 7/6/10 8/5/10 16/17/10 14/22/10
f 3/29/5 7/6/5 14/22/5 15/21/5
f 8/5/11 4/30/11 13/18/11 16/17/11
f 9/28/12 10/27/12 13/2/12 15/1/12
f 1/31/13 2/32/13 19/26/13 17/25/13
f 12/20/14 10/19/14 19/15/14 18/8/14
f 9/24/5 11/23/5 20/7/5 17/13/5
f 11/23/15 12/20/15 18/8/15 20/7/15
f 35/1/16 33/2/16 24/3/16 23/4/16
f 23/4/17 24/3/17 28/5/17 27/6/17
f 40/7/18 38/8/18 26/9/18 25/10/18
f 25/10/19 26/9/19 22/11/19 21/12/19
f 37/13/20 40/7/20 25/10/20 21/14/20
f 38/8/21 39/15/21 22/16/21 26/9/21
f 36/17/22 33/18/22 30/19/22 32/20/22
f 35/21/20 34/22/20 31/23/20 29/24/20
f 34/22/23 36/17/23 32/20/23 31/23/23
f 37/25/24 39/26/24 30/27/24 29/28/24
f 27/6/25 28/5/25 36/17/25 34/22/25
f 23/29/20 27/6/20 34/22/20 35/21/20
f 28/5/26 24/30/26 33/18/26 36/17/26
f 29/28/27 30/27/27 33/2/27 35/1/27
f 21/31/28 22/32/28 39/26/28 37/25/28
f 32/20/29 30/19/29 39/15/29 38/8/29
f 29/24/20 31/23/20 40/7/20 37/13/20
f 31/23/30 32/20/30 38/8/30 40/7/30
f 55/1/31 53/2/31 44/3/31 43/4/31
f 43/4/32 44/3/32 48/5/32 47/6/32
f 60/7/33 58/8/33 46/9/33 45/10/33
f 45/10/34 46/9/34 42/11/34 41/12/34
f 57/13/35 60/7/35 45/10/35 41/14/35
f 58/8/36 59/15/36 42/16/36 46/9/36
f 56/17/37 53/18/37 50/19/37 52/20/37
f 55/21/35 54/22/35 51/23/35 49/24/35
f 54/22/38 56/17/38 52/20/38 51/23/38
f 57/25/39 59/26/39 50/27/39 49/28/39
f 47/6/40 48/5/40 56/17/40 54/22/40
f 43/29/35 47/6/35 54/22/35 55/21/35
f 48/5/41 44/30/41 53/18/41 56/17/41
f 49/28/42 50/27/42 53/2/42 55/1/42
f 41/31/43 42/32/43 59/26/43 57/25/43
f 52/20/44 50/19/44 59/15/44 58/8/44
f 49/24/35 51/23/35 60/7/35 57/13/35
f 51/23/45 52/20/45 58/8/45 60/7/45
o Sphere
v -0.000000 1.199700 -0.000000
v -0.000000 0.997512 -0.666524
v -0.000000 0.666512 -0.997524
v -0.000000 0.234040 -1.176659
v -0.000000 -0.000012 -1.199712
v -0.000000 -0.234063 -1.176659
v -0.000000 -0.666535 -0.997524
v -0.000000 -1.199723 0.000000
v 0.045661 1.176648 -0.229555
v 0.089568 1.108377 -0.450288
v 0.130032 0.997512 -0.653717
v 0.165500 0.848312 -0.832024
v 0.194607 0.666512 -0.978357
v 0.216236 0.459099 -1.087092
v 0.229555 0.234040 -1.154050
v 0.234052 -0.000012 -1.176659
v 0.229555 -0.234063 -1.154050
v 0.216236 -0.459122 -1.087092
v 0.194607 -0.666535 -0.978357
v 0.165500 -0.848335 -0.832024
v 0.130032 -0.997535 -0.653717
v 0.089568 -1.108400 -0.450288
v 0.045661 -1.176671 -0.229555
v 0.089568 1.176648 -0.216236
v 0.175694 1.108377 -0.424162
v 0.255068 0.997512 -0.615788
v 0.324640 0.848312 -0.783749
v 0.381736 0.666512 -0.921592
v 0.424162 0.459099 -1.024018
v 0.450288 0.234040 -1.087092
v 0.459110 -0.000012 -1.108389
v 0.450288 -0.234063 -1.087092
v 0.424162 -0.459122 -1.024018
v 0.381736 -0.666535 -0.921592
v 0.324640 -0.848335 -0.783749
v 0.255068 -0.997535 -0.615788
v 0.175694 -1.108400 -0.424162
v 0.089568 -1.176671 -0.216236
v 0.130032 1.176648 -0.194607
v 0.255068 1.108377 -0.381736
v 0.370301 0.997512 -0.554194
v 0.471304 0.848312 -0.705356
v 0.554194 0.666512 -0.829411
v 0.615788 0.459099 -0.921592
v 0.653717 0.234040 -0.978357
v 0.666524 -0.000012 -0.997524
v 0.653717 -0.234063 -0.978357
v 0.615788 -0.459122 -0.921592
v 0.554194 -0.666535 -0.829411
v 0.471304 -0.848335 -0.705356
v 0.370301 -0.997535 -0.554194
v 0.255068 -1.108400 -0.381736
v 0.130032 -1.176671 -0.194607
v 0.165500 1.176648 -0.165500
v 0.324640 1.108377 -0.324640
v 0.471304 0.997512 -0.471304
v 0.599856 0.848312 -0.599856
v 0.705356 0.666512 -0.705356
v 0.783749 0.459099 -0.783749
v 0.832024 0.234040 -0.832024
v 0.848324 -0.000012 -0.848324
v 0.832024 -0.234063 -0.832024
v 0.783749 -0.459122 -0.783749
v 0.705356 -0.666535 -0.705356
v 0.599856 -0.848335 -0.599856
v 0.471304 -0.997535 -0.471304
v 0.324640 -1.108400 -0.324640
v 0.165500 -1.176671 -0.165500
v 0.194607 1.176648 -0.130032
v 0.381736 1.108377 -0.255068
v 0.554195 0.997512 -0.370301
v 0.705356 0.848312 -0.471304
v 0.829411 0.666512 -0.554194
v 0.921592 0.459099 -0.615788
v 0.978357 0.234040 -0.653717
v 0.997524 -0.000011 -0.666524
v 0.978357 -0.234063 -0.653717
v 0.921592 -0.459122 -0.615788
v 0.829411 -0.666535 -0.554194
v 0.705356 -0.848335 -0.471304
v 0.554195 -0.997535 -0.370301
v 0.381736 -1.108400 -0.255068
v 0.194607 -1.176671 -0.130032
v 0.216236 1.176648 -0.089568
v 0.424162 1.108377 -0.175694
v 0.615788 0.997512 -0.255068
v 0.783749 0.848312 -0.324640
v 0.921592 0.666512 -0.381736
v 1.024018 0.459099 -0.424162
v 1.087092 0.234040 -0.450288
v 1.108389 -0.000011 -0.459110
v 1.087092 -0.234063 -0.450288
v 1.024018 -0.459122 -0.424162
v 0.921592 -0.666535 -0.381736
v 0.783749 -0.848335 -0.324640
v 0.615788 -0.997535 -0.255068
v 0.424162 -1.108400 -0.175694
v 0.216236 -1.176671 -0.089568
v 0.229555 1.176648 -0.045661
v 0.450288 1.108377 -0.089568
v 0.653717 0.997512 -0.130032
v 0.832024 0.848312 -0.165500
v 0.978356 0.666512 -0.194607
v 1.087092 0.459099 -0.216236
v 1.154050 0.234040 -0.229555
v 1.176659 -0.000011 -0.234052
v 1.154050 -0.234063 -0.229555
v 1.087092 -0.459122 -0.216236
v 0.978356 -0.666535 -0.194607
v 0.832024 -0.848335 -0.165500
v 0.653717 -0.997535 -0.130032
v 0.450288 -1.108400 -0.089568
v 0.229555 -1.176671 -0.045661
v 0.234052 1.176648 -0.000000
v 0.459110 1.108377 -0.000000
v 0.666524 0.997512 -0.000000
v 0.848324 0.848312 -0.000000
v 0.997524 0.666512 -0.000000
v 1.108389 0.459099 -0.000000
v 1.176659 0.234040 -0.000000
v 1.199711 -0.000011 0.000000
v 1.176659 -0.234063 0.000000
v 1.108389 -0.459122 0.000000
v 0.997524 -0.666535 0.000000
v 0.848324 -0.848335 0.000000
v 0.666524 -0.997535 0.000000
v 0.459110 -1.108400 0.000000
v 0.234052 -1.176671 0.000000
v 0.229555 1.176648 0.045661
v 0.450288 1.108377 0.089568
v 0.653717 0.997512 0.130032
v 0.832024 0.848312 0.165500
v 0.978356 0.666512 0.194607
v 1.087092 0.459099 0.216236
v 1.154050 0.234040 0.229555
v 1.176659 -0.000011 0.234052
v 1.154050 -0.234063 0.229555
v 1.087092 -0.459122 0.216236
v 0.978356 -0.666535 0.194607
v 0.832024 -0.848335 0.165500
v 0.653717 -0.997535 0.130032
v 0.450288 -1.108400 0.089568
v 0.229555 -1.176671 0.045661
v 0.216236 1.176648 0.089568
v 0.424162 1.108377 0.175694
v 0.615788 0.997512 0.255068
v 0.783749 0.848312 0.324640
v 0.921592 0.666512 0.381736
v 1.024018 0.459099 0.424162
v 1.087091 0.234040 0.450288
v 1.108389 -0.000011 0.459110
v 1.087091 -0.234063 0.450288
v 1.024018 -0.459122 0.424162
v 0.921592 -0.666535 0.381736
v 0.783749 -0.848335 0.324640
v 0.615788 -0.997535 0.255068
v 0.424162 -1.108400 0.175694
v 0.216236 -1.176671 0.089568
v 0.194607 1.176648 0.130032
v 0.381736 1.108377 0.255068
v 0.554194 0.997512 0.370301
v 0.705356 0.848312 0.471304
v 0.829410 0.666513 0.554194
v 0.921592 0.459099 0.615788
v 0.978356 0.234040 0.653717
v 0.997523 -0.000011 0.666524
v 0.978356 -0.234063 0.653717
v 0.921592 -0.459122 0.615788
v 0.829410 -0.666535 0.554194
v 0.705356 -0.848335 0.471304
v 0.554194 -0.997535 0.370301
v 0.381736 -1.108400 0.255068
v 0.194607 -1.176671 0.130032
v 0.165500 1.176648 0.165500
v 0.324640 1.108377 0.324640
v 0.471303 0.997512 0.471304
v 0.599856 0.848312 0.599856
v 0.705356 0.666513 0.705356
v 0.783749 0.459099 0.783749
v 0.832024 0.234040 0.832024
v 0.848324 -0.000011 0.848324
v 0.832024 -0.234063 0.832024
v 0.783749 -0.459122 0.783749
v 0.705356 -0.666535 0.705356
v 0.599856 -0.848335 0.599856
v 0.471303 -0.997535 0.471304
v 0.324640 -1.108400 0.324640
v 0.165500 -1.176671 0.165500
v 0.130032 1.176648 0.194607
v 0.255068 1.108377 0.381736
v 0.370301 0.997512 0.554194
v 0.471304 0.848312 0.705356
v 0.554194 0.666513 0.829410
v 0.615788 0.459099 0.921592
v 0.653717 0.234040 0.978356
v 0.666523 -0.000011 0.997523
v 0.653717 -0.234063 0.978356
v 0.615788 -0.459122 0.921592
v 0.554194 -0.666535 0.829410
v 0.471304 -0.848335 0.705356
v 0.370301 -0.997535 0.554194
v 0.255068 -1.108400 0.381736
v 0.130032 -1.176671 0.194607
v 0.089568 1.176648 0.216236
v 0.175694 1.108377 0.424162
v 0.255068 0.997512 0.615788
v 0.324640 0.848312 0.783749
v 0.381736 0.666513 0.921592
v 0.424162 0.459099 1.024018
v 0.450288 0.234040 1.087091
v 0.459109 -0.000011 1.108389
v 0.450288 -0.234063 1.087091
v 0.424162 -0.459122 1.024018
v 0.381736 -0.666535 0.921592
v 0.324640 -0.848335 0.783749
v 0.255068 -0.997535 0.615788
v 0.175694 -1.108400 0.424162
v 0.089568 -1.176671 0.216236
v 0.045661 1.176648 0.229555
v 0.089568 1.108377 0.450288
v 0.130032 0.997512 0.653717
v 0.165500 0.848312 0.832024
v 0.194607 0.666513 0.978356
v 0.216236 0.459099 1.087091
v 0.229555 0.234040 1.154050
v 0.234052 -0.000011 1.176659
v 0.229555 -0.234063 1.154050
v 0.216236 -0.459122 1.087091
v 0.194607 -0.666535 0.978356
v 0.165500 -0.848335 0.832024
v 0.130032 -0.997535 0.653717
v 0.089568 -1.108400 0.450288
v 0.045661 -1.176671 0.229555
v -0.000000 1.176648 0.234052
v -0.000000 1.108377 0.459110
v -0.000000 0.997512 0.666524
v -0.000000 0.848312 0.848324
v -0.000000 0.666513 0.997523
v -0.000000 0.459099 1.108389
v -0.000000 0.234040 1.176659
v -0.000000 -0.000011 1.199711
v -0.000000 -0.234063 1.176659
v -0.000000 -0.459122 1.108389
v -0.000000 -0.666535 0.997523
v -0.000000 -0.848335 0.848324
v -0.000000 -0.997535 0.666524
v -0.000000 -1.108400 0.459110
v -0.000000 -1.176671 0.234052
v -0.045661 1.176648 0.229555
v -0.089568 1.108377 0.450288
v -0.130032 0.997512 0.653717
v -0.165500 0.848312 0.832024
v -0.194607 0.666513 0.978356
v -0.216236 0.459099 1.087091
v -0.229555 0.234040 1.154050
v -0.234052 -0.000011 1.176659
v -0.229555 -0.234063 1.154050
v -0.216236 -0.459122 1.087091
v -0.194607 -0.666535 0.978356
v -0.165500 -0.848335 0.832024
v -0.130032 -0.997535 0.653717
v -0.089568 -1.108400 0.450288
v -0.045661 -1.176671 0.229555
v -0.089568 1.176648 0.216236
v -0.175694 1.108377 0.424162
v -0.255068 0.997512 0.615788
v -0.324640 0.848312 0.783749
v -0.381736 0.666513 0.921591
v -0.424162 0.459099 1.024018
v -0.450288 0.234040 1.087091
v -0.459110 -0.000011 1.108388
v -0.450288 -0.234063 1.087091
v -0.424162 -0.459122 1.024018
v -0.381736 -0.666535 0.921591
v -0.324640 -0.848335 0.783749
v -0.255068 -0.997535 0.615788
v -0.175694 -1.108400 0.424162
v -0.089568 -1.176671 0.216236
v -0.130032 1.176648 0.194607
v -0.255068 1.108377 0.381736
v -0.370301 0.997512 0.554194
v -0.471304 0.848312 0.705356
v -0.554194 0.666513 0.829410
v -0.615788 0.459099 0.921592
v -0.653717 0.234040 0.978356
v -0.666524 -0.000011 0.997523
v -0.653717 -0.234063 0.978356
v -0.615788 -0.459122 0.921592
v -0.554194 -0.666535 0.829410
v -0.471304 -0.848335 0.705356
v -0.370301 -0.997535 0.554194
v -0.255068 -1.108400 0.381736
v -0.130032 -1.176671 0.194607
v -0.165500 1.176648 0.165500
v -0.324640 1.108377 0.324639
v -0.471303 0.997512 0.471303
v -0.599856 0.848312 0.599856
v -0.705356 0.666513 0.705355
v -0.783749 0.459099 0.783749
v -0.832024 0.234040 0.832024
v -0.848324 -0.000011 0.848323
v -0.832024 -0.234063 0.832024
v -0.783749 -0.459122 0.783749
v -0.705356 -0.666535 0.705355
v -0.599856 -0.848335 0.599856
v -0.471303 -0.997535 0.471303
v -0.324640 -1.108400 0.324639
v -0.165500 -1.176671 0.165500
v -0.194607 1.176648 0.130032
v -0.381736 1.108377 0.255068
v -0.554194 0.997512 0.370301
v -0.705356 0.848312 0.471304
v -0.829410 0.666513 0.554194
v -0.921591 0.459099 0.615788
v -0.978356 0.234040 0.653717
v -0.997523 -0.000011 0.666523
v -0.978356 -0.234063 0.653717
v -0.921591 -0.459122 0.615788
v -0.829410 -0.666535 0.554194
v -0.705356 -0.848335 0.471304
v -0.554194 -0.997535 0.370301
v -0.381736 -1.108400 0.255068
v -0.194607 -1.176671 0.130032
v -0.216236 1.176648 0.089568
v -0.424162 1.108377 0.175694
v -0.615788 0.997512 0.255067
v -0.783749 0.848312 0.324640
v -0.921591 0.666512 0.381735
v -1.024018 0.459099 0.424162
v -1.087091 0.234040 0.450288
v -1.108388 -0.000011 0.459109
v -1.087091 -0.234063 0.450288
v -1.024018 -0.459122 0.424162
v -0.921591 -0.666535 0.381735
v -0.783749 -0.848335 0.324640
v -0.615788 -0.997535 0.255067
v -0.424162 -1.108400 0.175694
v -0.216236 -1.176671 0.089568
v -0.229555 1.176648 0.045661
v -0.450288 1.108377 0.089568
v -0.653717 0.997512 0.130032
v -0.832024 0.848312 0.165500
v -0.978356 0.666512 0.194607
v -1.087091 0.459099 0.216236
v -1.154050 0.234040 0.229554
v -1.176659 -0.000011 0.234051
v -1.154050 -0.234063 0.229554
v -1.087091 -0.459122 0.216236
v -0.978356 -0.666535 0.194607
v -0.832024 -0.848335 0.165500
v -0.653717 -0.997535 0.130032
v -0.450288 -1.108400 0.089568
v -0.229555 -1.176671 0.045661
v -0.234052 1.176648 -0.000000
v -0.459110 1.108377 -0.000000
v -0.666524 0.997512 -0.000000
v -0.848324 0.848312 -0.000000
v -0.997523 0.666512 -0.000000
v -1.108389 0.459099 -0.000000
v -1.176659 0.234040 -0.000000
v -1.199710 -0.000011 -0.000001
v -1.176659 -0.234063 0.000000
v -1.108389 -0.459122 0.000000
v -0.997523 -0.666535 0.000000
v -0.848324 -0.848335 0.000000
v -0.666524 -0.997535 0.000000
v -0.459110 -1.108400 0.000000
v -0.234052 -1.176671 0.000000
v -0.229555 1.176648 -0.045661
v -0.450288 1.108377 -0.089568
v -0.653716 0.997512 -0.130032
v -0.832024 0.848312 -0.165500
v -0.978356 0.666512 -0.194607
v -1.087091 0.459099 -0.216236
v -1.154050 0.234040 -0.229555
v -1.176658 -0.000011 -0.234052
v -1.154050 -0.234063 -0.229555
v -1.087091 -0.459122 -0.216236
v -0.978356 -0.666535 -0.194607
v -0.832024 -0.848335 -0.165500
v -0.653716 -0.997535 -0.130032
v -0.450288 -1.108400 -0.089568
v -0.229555 -1.176671 -0.045661
v -0.216236 1.176648 -0.089568
v -0.424162 1.108377 -0.175694
v -0.615787 0.997512 -0.255068
v -0.783749 0.848312 -0.324640
v -0.921591 0.666512 -0.381736
v -1.024017 0.459099 -0.424162
v -1.087091 0.234040 -0.450288
v -1.108388 -0.000011 -0.459110
v -1.087091 -0.234063 -0.450288
v -1.024017 -0.459122 -0.424162
v -0.921591 -0.666535 -0.381736
v -0.783749 -0.848335 -0.324640
v -0.615787 -0.997535 -0.255068
v -0.424162 -1.108400 -0.175694
v -0.216236 -1.176671 -0.089568
v -0.194607 1.176648 -0.130032
v -0.381736 1.108377 -0.255068
v -0.554194 0.997512 -0.370301
v -0.705356 0.848312 -0.471304
v -0.829410 0.666512 -0.554194
v -0.921591 0.459099 -0.615788
v -0.978356 0.234040 -0.653717
v -0.997522 -0.000011 -0.666524
v -0.978356 -0.234063 -0.653717
v -0.921591 -0.459122 -0.615788
v -0.829410 -0.666535 -0.554194
v -0.705356 -0.848335 -0.471304
v -0.554194 -0.997535 -0.370301
v -0.381736 -1.108400 -0.255068
v -0.194607 -1.176671 -0.130032
v -0.165500 1.176648 -0.165500
v -0.324639 1.108377 -0.324639
v -0.471303 0.997512 -0.471303
v -0.599856 0.848312 -0.599856
v -0.705355 0.666512 -0.705356
v -0.783749 0.459099 -0.783749
v -0.832023 0.234040 -0.832024
v -0.848323 -0.000012 -0.848324
v -0.832023 -0.234063 -0.832024
v -0.783749 -0.459122 -0.783749
v -0.705355 -0.666535 -0.705356
v -0.599856 -0.848335 -0.599856
v -0.471303 -0.997535 -0.471303
v -0.324639 -1.108400 -0.324639
v -0.165500 -1.176671 -0.165500
v -0.130032 1.176648 -0.194607
v -0.255068 1.108377 -0.381736
v -0.370300 0.997512 -0.554194
v -0.471303 0.848312 -0.705356
v -0.554194 0.666512 -0.829410
v -0.615788 0.459099 -0.921591
v -0.653716 0.234040 -0.978356
v -0.666523 -0.000012 -0.997523
v -0.653716 -0.234063 -0.978356
v -0.615788 -0.459122 -0.921591
v -0.554194 -0.666535 -0.829410
v -0.471303 -0.848335 -0.705356
v -0.370300 -0.997535 -0.554194
v -0.255068 -1.108400 -0.381736
v -0.130032 -1.176671 -0.194607
v -0.089568 1.176648 -0.216236
v -0.175694 1.108377 -0.424162
v -0.255067 0.997512 -0.615787
v -0.324639 0.848312 -0.783749
v -0.381735 0.666512 -0.921591
v -0.424162 0.459099 -1.024017
v -0.450288 0.234040 -1.087091
v -0.459109 -0.000012 -1.108388
v -0.450288 -0.234063 -1.087091
v -0.424162 -0.459122 -1.024017
v -0.381735 -0.666535 -0.921591
v -0.324639 -0.848335 -0.783749
v -0.255067 -0.997535 -0.615787
v -0.175694 -1.108400 -0.424162
v -0.089568 -1.176671 -0.216236
v -0.045661 1.176648 -0.229555
v -0.089568 1.108377 -0.450288
v -0.130032 0.997512 -0.653716
v -0.165500 0.848312 -0.832024
v -0.194607 0.666512 -0.978356
v -0.216236 0.459099 -1.087091
v -0.229554 0.234040 -1.154050
v -0.234051 -0.000012 -1.176658
v -0.229554 -0.234063 -1.154050
v -0.216236 -0.459122 -1.087091
v -0.194607 -0.666535 -0.978356
v -0.165500 -0.848335 -0.832024
v -0.130032 -0.997535 -0.653716
v -0.089568 -1.108400 -0.450288
v -0.045661 -1.176671 -0.229555
v -0.000000 1.176648 -0.234052
v -0.000000 1.108377 -0.459110
v -0.000000 0.848312 -0.848324
v -0.000000 0.459099 -1.108388
v -0.000000 -0.459122 -1.108388
v -0.000000 -0.848335 -0.848324
v -0.000000 -0.997535 -0.666523
v -0.000000 -1.108400 -0.459110
v -0.000000 -1.176671 -0.234052
vn 0.0865 -0.4696 -0.8786
vn 0.0624 0.7715 -0.6332
vn 0.0759 -0.6326 -0.7708
vn 0.0759 0.6326 -0.7708
vn 0.0624 -0.7715 -0.6332
vn 0.0865 0.4696 -0.8786
vn 0.0464 -0.8810 -0.4709
vn 0.0938 0.2890 -0.9527
vn 0.0286 -0.9565 -0.2902
vn 0.0976 0.0976 -0.9904
vn 0.0097 0.9951 -0.0980
vn 0.0097 -0.9951 -0.0980
vn 0.0976 -0.0976 -0.9904
vn 0.0286 0.9566 -0.2902
vn 0.0938 -0.2890 -0.9527
vn 0.0464 0.8810 -0.4709
vn 0.0846 0.9565 -0.2790
vn 0.2779 -0.2890 -0.9161
vn 0.1374 0.8810 -0.4528
vn 0.2563 -0.4696 -0.8448
vn 0.1847 0.7715 -0.6088
vn 0.2248 -0.6326 -0.7412
vn 0.2248 0.6326 -0.7412
vn 0.1847 -0.7715 -0.6088
vn 0.2563 0.4696 -0.8448
vn 0.1374 -0.8810 -0.4528
vn 0.2779 0.2890 -0.9161
vn 0.0846 -0.9566 -0.2790
vn 0.2889 0.0975 -0.9524
vn 0.0286 0.9951 -0.0942
vn 0.0286 -0.9951 -0.0943
vn 0.2889 -0.0975 -0.9524
vn 0.4162 0.4696 -0.7786
vn 0.2231 -0.8810 -0.4173
vn 0.4513 0.2890 -0.8443
vn 0.1374 -0.9566 -0.2571
vn 0.4691 0.0975 -0.8777
vn 0.0464 0.9951 -0.0868
vn 0.0464 -0.9951 -0.0868
vn 0.4691 -0.0975 -0.8777
vn 0.1374 0.9565 -0.2571
vn 0.4513 -0.2890 -0.8443
vn 0.2231 0.8810 -0.4173
vn 0.4162 -0.4696 -0.7786
vn 0.2999 0.7715 -0.5611
vn 0.3651 -0.6326 -0.6831
vn 0.3651 0.6326 -0.6831
vn 0.2999 -0.7715 -0.5611
vn 0.6073 -0.2890 -0.7400
vn 0.3002 0.8810 -0.3658
vn 0.5601 -0.4696 -0.6825
vn 0.4036 0.7715 -0.4918
vn 0.4913 -0.6326 -0.5987
vn 0.4913 0.6326 -0.5987
vn 0.4036 -0.7715 -0.4918
vn 0.5601 0.4696 -0.6825
vn 0.3002 -0.8810 -0.3658
vn 0.6073 0.2890 -0.7400
vn 0.1850 -0.9565 -0.2254
vn 0.6314 0.0975 -0.7693
vn 0.0625 0.9951 -0.0761
vn 0.0625 -0.9951 -0.0761
vn 0.6314 -0.0975 -0.7693
vn 0.1850 0.9565 -0.2254
vn 0.3658 -0.8810 -0.3002
vn 0.7400 0.2890 -0.6073
vn 0.2254 -0.9565 -0.1850
vn 0.7693 0.0975 -0.6314
vn 0.0761 0.9951 -0.0625
vn 0.0761 -0.9951 -0.0625
vn 0.7693 -0.0975 -0.6314
vn 0.2254 0.9566 -0.1850
vn 0.7400 -0.2890 -0.6073
vn 0.3658 0.8810 -0.3002
vn 0.6825 -0.4696 -0.5601
vn 0.4918 0.7715 -0.4036
vn 0.5987 -0.6326 -0.4913
vn 0.5987 0.6326 -0.4913
vn 0.4918 -0.7715 -0.4036
vn 0.6825 0.4696 -0.5601
vn 0.7786 -0.4696 -0.4162
vn 0.5611 0.7715 -0.2999
vn 0.6831 -0.6326 -0.3651
vn 0.6831 0.6326 -0.3651
vn 0.5611 -0.7715 -0.2999
vn 0.7786 0.4696 -0.4162
vn 0.4173 -0.8810 -0.2231
vn 0.8443 0.2890 -0.4513
vn 0.2571 -0.9566 -0.1374
vn 0.8777 0.0975 -0.4692
vn 0.0869 0.9951 -0.0464
vn 0.0869 -0.9951 -0.0464
vn 0.8777 -0.0975 -0.4691
vn 0.2571 0.9565 -0.1375
vn 0.8443 -0.2890 -0.4513
vn 0.4173 0.8810 -0.2231
vn 0.2790 -0.9565 -0.0846
vn 0.9524 0.0975 -0.2889
vn 0.0942 0.9951 -0.0285
vn 0.0942 -0.9951 -0.0286
vn 0.9524 -0.0975 -0.2889
vn 0.2790 0.9565 -0.0846
vn 0.9161 -0.2890 -0.2779
vn 0.4528 0.8810 -0.1374
vn 0.8448 -0.4696 -0.2563
vn 0.6088 0.7715 -0.1847
vn 0.7412 -0.6326 -0.2248
vn 0.7412 0.6326 -0.2248
vn 0.6088 -0.7715 -0.1847
vn 0.8448 0.4696 -0.2563
vn 0.4528 -0.8810 -0.1374
vn 0.9161 0.2890 -0.2779
vn 0.6332 0.7715 -0.0624
vn 0.7708 -0.6326 -0.0759
vn 0.7708 0.6326 -0.0759
vn 0.6332 -0.7715 -0.0624
vn 0.8786 0.4696 -0.0865
vn 0.4709 -0.8810 -0.0464
vn 0.9527 0.2890 -0.0938
vn 0.2902 -0.9565 -0.0286
vn 0.9904 0.0975 -0.0975
vn 0.0980 0.9951 -0.0097
vn 0.0980 -0.9951 -0.0097
vn 0.9904 -0.0975 -0.0975
vn 0.2902 0.9565 -0.0286
vn 0.9527 -0.2890 -0.0938
vn 0.4709 0.8810 -0.0464
vn 0.8786 -0.4696 -0.0865
vn 0.9904 0.0975 0.0975
vn 0.0980 0.9951 0.0097
vn 0.0980 -0.9951 0.0097
vn 0.9904 -0.0975 0.0975
vn 0.2902 0.9565 0.0286
vn 0.9527 -0.2890 0.0938
vn 0.4709 0.8810 0.0464
vn 0.8786 -0.4696 0.0865
vn 0.6332 0.7715 0.0624
vn 0.7708 -0.6326 0.0759
vn 0.7708 0.6326 0.0759
vn 0.6332 -0.7715 0.0624
vn 0.8786 0.4696 0.0865
vn 0.4709 -0.8810 0.0464
vn 0.9527 0.2890 0.0938
vn 0.2902 -0.9565 0.0286
vn 0.7412 -0.6326 0.2248
vn 0.7412 0.6326 0.2248
vn 0.6088 -0.7715 0.1847
vn 0.8448 0.4696 0.2563
vn 0.4528 -0.8810 0.1374
vn 0.9161 0.2890 0.2779
vn 0.2790 -0.9565 0.0846
vn 0.9524 0.0976 0.2889
vn 0.0942 0.9951 0.0285
vn 0.0942 -0.9951 0.0286
vn 0.9524 -0.0976 0.2889
vn 0.2790 0.9565 0.0846
vn 0.9161 -0.2890 0.2779
vn 0.4528 0.8810 0.1374
vn 0.8448 -0.4696 0.2563
vn 0.6088 0.7715 0.1847
vn 0.0869 0.9951 0.0464
vn 0.0869 -0.9951 0.0464
vn 0.8777 -0.0976 0.4691
vn 0.2571 0.9565 0.1374
vn 0.8443 -0.2890 0.4513
vn 0.4173 0.8810 0.2231
vn 0.7786 -0.4696 0.4162
vn 0.5611 0.7715 0.2999
vn 0.6831 -0.6326 0.3651
vn 0.6831 0.6326 0.3651
vn 0.5611 -0.7715 0.2999
vn 0.7786 0.4696 0.4162
vn 0.4173 -0.8810 0.2230
vn 0.8443 0.2890 0.4513
vn 0.2571 -0.9566 0.1374
vn 0.8777 0.0976 0.4692
vn 0.5987 0.6326 0.4913
vn 0.4918 -0.7715 0.4036
vn 0.6825 0.4696 0.5601
vn 0.3658 -0.8810 0.3002
vn 0.7400 0.2890 0.6073
vn 0.2254 -0.9565 0.1850
vn 0.7693 0.0975 0.6314
vn 0.0761 0.9951 0.0625
vn 0.0761 -0.9951 0.0625
vn 0.7693 -0.0975 0.6314
vn 0.2254 0.9566 0.1850
vn 0.7400 -0.2890 0.6073
vn 0.3658 0.8810 0.3002
vn 0.6825 -0.4696 0.5601
vn 0.4918 0.7715 0.4036
vn 0.5987 -0.6326 0.4913
vn 0.6314 -0.0975 0.7693
vn 0.1850 0.9565 0.2254
vn 0.6073 -0.2890 0.7400
vn 0.3002 0.8810 0.3658
vn 0.5601 -0.4696 0.6825
vn 0.4036 0.7715 0.4918
vn 0.4913 -0.6326 0.5987
vn 0.4913 0.6326 0.5987
vn 0.4036 -0.7715 0.4918
vn 0.5601 0.4696 0.6825
vn 0.3002 -0.8810 0.3658
vn 0.6073 0.2890 0.7400
vn 0.1850 -0.9565 0.2254
vn 0.6314 0.0975 0.7693
vn 0.0625 0.9951 0.0761
vn 0.0625 -0.9951 0.0761
vn 0.2999 -0.7715 0.5611
vn 0.4162 0.4696 0.7786
vn 0.2231 -0.8810 0.4173
vn 0.4513 0.2890 0.8443
vn 0.1374 -0.9566 0.2571
vn 0.4691 0.0975 0.8777
vn 0.0464 0.9951 0.0868
vn 0.0464 -0.9951 0.0868
vn 0.4692 -0.0975 0.8777
vn 0.1374 0.9565 0.2571
vn 0.4513 -0.2890 0.8443
vn 0.2231 0.8810 0.4173
vn 0.4162 -0.4696 0.7786
vn 0.2999 0.7715 0.5611
vn 0.3651 -0.6326 0.6831
vn 0.3651 0.6326 0.6831
vn 0.2779 -0.2890 0.9161
vn 0.1374 0.8810 0.4528
vn 0.2563 -0.4696 0.8448
vn 0.1847 0.7715 0.6088
vn 0.2248 -0.6326 0.7412
vn 0.2248 0.6326 0.7412
vn 0.1847 -0.7715 0.6088
vn 0.2563 0.4696 0.8448
vn 0.1374 -0.8810 0.4528
vn 0.2779 0.2890 0.9161
vn 0.0846 -0.9565 0.2790
vn 0.2889 0.0976 0.9524
vn 0.0286 0.9951 0.0943
vn 0.0286 -0.9951 0.0943
vn 0.2889 -0.0975 0.9524
vn 0.0846 0.9565 0.2790
vn 0.0464 -0.8810 0.4709
vn 0.0938 0.2890 0.9527
vn 0.0286 -0.9566 0.2902
vn 0.0975 0.0975 0.9904
vn 0.0097 0.9951 0.0980
vn 0.0097 -0.9951 0.0980
vn 0.0975 -0.0975 0.9904
vn 0.0286 0.9566 0.2902
vn 0.0938 -0.2890 0.9527
vn 0.0464 0.8810 0.4709
vn 0.0865 -0.4696 0.8786
vn 0.0624 0.7715 0.6332
vn 0.0759 -0.6326 0.7708
vn 0.0759 0.6326 0.7708
vn 0.0624 -0.7715 0.6332
vn 0.0865 0.4696 0.8786
vn -0.0464 0.8810 0.4709
vn -0.0865 -0.4696 0.8786
vn -0.0624 0.7715 0.6332
vn -0.0759 -0.6326 0.7708
vn -0.0759 0.6326 0.7708
vn -0.0624 -0.7715 0.6332
vn -0.0865 0.4696 0.8786
vn -0.0464 -0.8810 0.4709
vn -0.0938 0.2890 0.9527
vn -0.0286 -0.9565 0.2902
vn -0.0975 0.0975 0.9904
vn -0.0097 0.9951 0.0980
vn -0.0097 -0.9951 0.0980
vn -0.0975 -0.0975 0.9904
vn -0.0286 0.9566 0.2902
vn -0.0938 -0.2890 0.9527
vn -0.2779 0.2890 0.9161
vn -0.0846 -0.9566 0.2790
vn -0.2889 0.0975 0.9524
vn -0.0286 0.9951 0.0942
vn -0.0286 -0.9951 0.0943
vn -0.2889 -0.0975 0.9524
vn -0.0846 0.9565 0.2790
vn -0.2779 -0.2890 0.9161
vn -0.1374 0.8810 0.4528
vn -0.2563 -0.4696 0.8448
vn -0.1847 0.7715 0.6088
vn -0.2248 -0.6326 0.7412
vn -0.2248 0.6326 0.7412
vn -0.1847 -0.7715 0.6088
vn -0.2563 0.4696 0.8448
vn -0.1374 -0.8810 0.4528
vn -0.4162 -0.4696 0.7786
vn -0.2999 0.7715 0.5611
vn -0.3651 -0.6326 0.6831
vn -0.3651 0.6326 0.6831
vn -0.2999 -0.7715 0.5611
vn -0.4162 0.4696 0.7786
vn -0.2231 -0.8810 0.4173
vn -0.4513 0.2890 0.8443
vn -0.1374 -0.9566 0.2571
vn -0.4691 0.0975 0.8777
vn -0.0464 0.9951 0.0868
vn -0.0464 -0.9951 0.0868
vn -0.4691 -0.0975 0.8777
vn -0.1374 0.9566 0.2571
vn -0.4513 -0.2890 0.8443
vn -0.2231 0.8810 0.4173
vn -0.1850 -0.9565 0.2254
vn -0.6314 0.0975 0.7693
vn -0.0625 0.9951 0.0761
vn -0.0625 -0.9951 0.0761
vn -0.6314 -0.0975 0.7693
vn -0.1850 0.9565 0.2254
vn -0.6073 -0.2890 0.7400
vn -0.3002 0.8810 0.3658
vn -0.5601 -0.4696 0.6825
vn -0.4036 0.7715 0.4918
vn -0.4913 -0.6326 0.5987
vn -0.4913 0.6326 0.5987
vn -0.4036 -0.7715 0.4918
vn -0.5601 0.4696 0.6825
vn -0.3002 -0.8810 0.3658
vn -0.6073 0.2890 0.7400
vn -0.4918 0.7715 0.4036
vn -0.5987 -0.6326 0.4913
vn -0.5987 0.6326 0.4913
vn -0.4918 -0.7715 0.4036
vn -0.6825 0.4696 0.5601
vn -0.3658 -0.8810 0.3002
vn -0.7400 0.2890 0.6073
vn -0.2254 -0.9565 0.1850
vn -0.7693 0.0975 0.6314
vn -0.0761 0.9951 0.0625
vn -0.0761 -0.9951 0.0625
vn -0.7693 -0.0975 0.6314
vn -0.2254 0.9566 0.1850
vn -0.7400 -0.2890 0.6073
vn -0.3658 0.8810 0.3002
vn -0.6825 -0.4696 0.5601
vn -0.8777 0.0975 0.4691
vn -0.0869 0.9951 0.0464
vn -0.0869 -0.9951 0.0464
vn -0.8777 -0.0975 0.4691
vn -0.2571 0.9565 0.1375
vn -0.8443 -0.2890 0.4513
vn -0.4173 0.8810 0.2230
vn -0.7786 -0.4696 0.4162
vn -0.5611 0.7715 0.2999
vn -0.6831 -0.6326 0.3651
vn -0.6831 0.6326 0.3651
vn -0.5611 -0.7715 0.2999
vn -0.7786 0.4696 0.4162
vn -0.4173 -0.8810 0.2230
vn -0.8443 0.2890 0.4513
vn -0.2571 -0.9566 0.1374
vn -0.7412 -0.6326 0.2248
vn -0.7412 0.6326 0.2248
vn -0.6088 -0.7715 0.1847
vn -0.8448 0.4696 0.2563
vn -0.4528 -0.8810 0.1374
vn -0.9161 0.2890 0.2779
vn -0.2790 -0.9565 0.0846
vn -0.9524 0.0975 0.2889
vn -0.0942 0.9951 0.0285
vn -0.0942 -0.9951 0.0286
vn -0.9524 -0.0975 0.2889
vn -0.2790 0.9565 0.0846
vn -0.9161 -0.2890 0.2779
vn -0.4528 0.8810 0.1374
vn -0.8448 -0.4696 0.2563
vn -0.6088 0.7715 0.1847
vn -0.0980 -0.9951 0.0097
vn -0.9904 -0.0975 0.0975
vn -0.2902 0.9565 0.0286
vn -0.9527 -0.2890 0.0938
vn -0.4709 0.8810 0.0464
vn -0.8786 -0.4696 0.0865
vn -0.6332 0.7715 0.0624
vn -0.7708 -0.6326 0.0759
vn -0.7708 0.6326 0.0759
vn -0.6332 -0.7715 0.0624
vn -0.8786 0.4696 0.0865
vn -0.4709 -0.8810 0.0464
vn -0.9527 0.2890 0.0938
vn -0.2902 -0.9565 0.0286
vn -0.9904 0.0975 0.0975
vn -0.0980 0.9951 0.0097
vn -0.6332 -0.7715 -0.0624
vn -0.8786 0.4696 -0.0865
vn -0.4709 -0.8810 -0.0464
vn -0.9527 0.2890 -0.0938
vn -0.2902 -0.9565 -0.0286
vn -0.9904 0.0975 -0.0975
vn -0.0980 0.9951 -0.0097
vn -0.0980 -0.9951 -0.0097
vn -0.9904 -0.0975 -0.0975
vn -0.2902 0.9565 -0.0286
vn -0.9527 -0.2890 -0.0938
vn -0.4709 0.8810 -0.0464
vn -0.8786 -0.4696 -0.0865
vn -0.6332 0.7715 -0.0624
vn -0.7708 -0.6326 -0.0759
vn -0.7708 0.6326 -0.0759
vn -0.2790 0.9565 -0.0846
vn -0.9161 -0.2890 -0.2779
vn -0.4528 0.8810 -0.1374
vn -0.8448 -0.4696 -0.2563
vn -0.6088 0.7715 -0.1847
vn -0.7412 -0.6326 -0.2248
vn -0.7412 0.6326 -0.2248
vn -0.6088 -0.7715 -0.1847
vn -0.8448 0.4696 -0.2563
vn -0.4528 -0.8810 -0.1374
vn -0.9161 0.2890 -0.2779
vn -0.2790 -0.9565 -0.0846
vn -0.9524 0.0975 -0.2889
vn -0.0942 0.9951 -0.0285
vn -0.0942 -0.9951 -0.0286
vn -0.9524 -0.0975 -0.2889
vn -0.7786 0.4696 -0.4162
vn -0.4173 -0.8810 -0.2231
vn -0.8443 0.2890 -0.4513
vn -0.2571 -0.9566 -0.1374
vn -0.8777 0.0975 -0.4691
vn -0.0869 0.9951 -0.0464
vn -0.0869 -0.9951 -0.0464
vn -0.8777 -0.0975 -0.4692
vn -0.2571 0.9565 -0.1374
vn -0.8443 -0.2890 -0.4513
vn -0.4173 0.8810 -0.2231
vn -0.7786 -0.4696 -0.4162
vn -0.5611 0.7715 -0.2999
vn -0.6831 -0.6326 -0.3651
vn -0.6831 0.6326 -0.3651
vn -0.5611 -0.7715 -0.2999
vn -0.7400 -0.2890 -0.6073
vn -0.3658 0.8810 -0.3002
vn -0.6825 -0.4696 -0.5601
vn -0.4918 0.7715 -0.4036
vn -0.5987 -0.6326 -0.4913
vn -0.5987 0.6326 -0.4913
vn -0.4918 -0.7715 -0.4036
vn -0.6825 0.4696 -0.5601
vn -0.3658 -0.8810 -0.3002
vn -0.7400 0.2890 -0.6073
vn -0.2254 -0.9565 -0.1850
vn -0.7693 0.0975 -0.6314
vn -0.0761 0.9951 -0.0625
vn -0.0761 -0.9951 -0.0625
vn -0.7693 -0.0975 -0.6314
vn -0.2254 0.9565 -0.1850
vn -0.3002 -0.8810 -0.3658
vn -0.6073 0.2890 -0.7400
vn -0.1850 -0.9565 -0.2254
vn -0.6314 0.0975 -0.7693
vn -0.0625 0.9951 -0.0761
vn -0.0625 -0.9951 -0.0761
vn -0.6314 -0.0975 -0.7693
vn -0.1850 0.9566 -0.2254
vn -0.6073 -0.2890 -0.7400
vn -0.3002 0.8810 -0.3658
vn -0.5601 -0.4696 -0.6825
vn -0.4036 0.7715 -0.4918
vn -0.4913 -0.6326 -0.5987
vn -0.4913 0.6326 -0.5987
vn -0.4036 -0.7715 -0.4918
vn -0.5601 0.4696 -0.6825
vn -0.2231 0.8810 -0.4173
vn -0.4162 -0.4696 -0.7786
vn -0.2999 0.7715 -0.5611
vn -0.3651 -0.6326 -0.6831
vn -0.3651 0.6326 -0.6831
vn -0.2999 -0.7715 -0.5611
vn -0.4162 0.4696 -0.7786
vn -0.2231 -0.8810 -0.4173
vn -0.4513 0.2890 -0.8443
vn -0.1374 -0.9566 -0.2571
vn -0.4691 0.0975 -0.8777
vn -0.0464 0.9951 -0.0868
vn -0.0464 -0.9951 -0.0868
vn -0.4692 -0.0975 -0.8777
vn -0.1374 0.9565 -0.2571
vn -0.4513 -0.2890 -0.8443
vn -0.2779 0.2890 -0.9161
vn -0.0846 -0.9565 -0.2790
vn -0.2889 0.0975 -0.9524
vn -0.0286 0.9951 -0.0943
vn -0.0286 -0.9951 -0.0943
vn -0.2889 -0.0975 -0.9524
vn -0.0846 0.9565 -0.2790
vn -0.2779 -0.2890 -0.9161
vn -0.1374 0.8810 -0.4528
vn -0.2563 -0.4696 -0.8448
vn -0.1847 0.7715 -0.6088
vn -0.2248 -0.6326 -0.7412
vn -0.2248 0.6326 -0.7412
vn -0.1847 -0.7715 -0.6088
vn -0.2563 0.4696 -0.8448
vn -0.1374 -0.8810 -0.4528
vn -0.0865 -0.4696 -0.8786
vn -0.0624 0.7715 -0.6332
vn -0.0759 -0.6326 -0.7708
vn -0.0759 0.6326 -0.7708
vn -0.0624 -0.7715 -0.6332
vn -0.0865 0.4696 -0.8786
vn -0.0464 -0.8810 -0.4709
vn -0.0938 0.2890 -0.9527
vn -0.0286 -0.9566 -0.2902
vn -0.0976 0.0975 -0.9904
vn -0.0097 0.9951 -0.0980
vn -0.0097 -0.9951 -0.0980
vn -0.0976 -0.0975 -0.9904
vn -0.0286 0.9566 -0.2902
vn -0.0938 -0.2890 -0.9527
vn -0.0464 0.8810 -0.4709
vt 0.750000 0.312500
vt 0.750000 0.375000
vt 0.718750 0.375000
vt 0.718750 0.312500
vt 0.750000 0.750000
vt 0.750000 0.812500
vt 0.718750 0.812500
vt 0.718750 0.750000
vt 0.750000 0.250000
vt 0.718750 0.250000
vt 0.750000 0.687500
vt 0.718750 0.687500
vt 0.750000 0.187500
vt 0.718750 0.187500
vt 0.750000 0.625000
vt 0.718750 0.625000
vt 0.750000 0.125000
vt 0.718750 0.125000
vt 0.750000 0.562500
vt 0.718750 0.562500
vt 0.750000 0.062500
vt 0.718750 0.062500
vt 0.750000 0.500000
vt 0.718750 0.500000
vt 0.750000 0.937500
vt 0.734375 1.000000
vt 0.718750 0.937500
vt 0.734375 0.000000
vt 0.750000 0.437500
vt 0.718750 0.437500
vt 0.750000 0.875000
vt 0.718750 0.875000
vt 0.687500 0.937500
vt 0.687500 0.875000
vt 0.687500 0.437500
vt 0.687500 0.375000
vt 0.687500 0.812500
vt 0.687500 0.312500
vt 0.687500 0.750000
vt 0.687500 0.250000
vt 0.687500 0.687500
vt 0.687500 0.187500
vt 0.687500 0.625000
vt 0.687500 0.125000
vt 0.687500 0.562500
vt 0.687500 0.062500
vt 0.687500 0.500000
vt 0.703125 1.000000
vt 0.703125 0.000000
vt 0.656250 0.687500
vt 0.656250 0.625000
vt 0.656250 0.187500
vt 0.656250 0.125000
vt 0.656250 0.562500
vt 0.656250 0.062500
vt 0.656250 0.500000
vt 0.671875 1.000000
vt 0.656250 0.937500
vt 0.671875 0.000000
vt 0.656250 0.437500
vt 0.656250 0.875000
vt 0.656250 0.375000
vt 0.656250 0.812500
vt 0.656250 0.312500
vt 0.656250 0.750000
vt 0.656250 0.250000
vt 0.625000 0.437500
vt 0.625000 0.375000
vt 0.625000 0.875000
vt 0.625000 0.812500
vt 0.625000 0.312500
vt 0.625000 0.750000
vt 0.625000 0.250000
vt 0.625000 0.687500
vt 0.625000 0.187500
vt 0.625000 0.625000
vt 0.625000 0.125000
vt 0.625000 0.562500
vt 0.625000 0.062500
vt 0.625000 0.500000
vt 0.640625 1.000000
vt 0.625000 0.937500
vt 0.640625 0.000000
vt 0.593750 0.187500
vt 0.593750 0.125000
vt 0.593750 0.625000
vt 0.593750 0.562500
vt 0.593750 0.062500
vt 0.593750 0.500000
vt 0.609375 1.000000
vt 0.593750 0.937500
vt 0.609375 0.000000
vt 0.593750 0.437500
vt 0.593750 0.875000
vt 0.593750 0.375000
vt 0.593750 0.812500
vt 0.593750 0.312500
vt 0.593750 0.750000
vt 0.593750 0.250000
vt 0.593750 0.687500
vt 0.562500 0.375000
vt 0.562500 0.312500
vt 0.562500 0.812500
vt 0.562500 0.750000
vt 0.562500 0.250000
vt 0.562500 0.687500
vt 0.562500 0.187500
vt 0.562500 0.625000
vt 0.562500 0.125000
vt 0.562500 0.562500
vt 0.562500 0.062500
vt 0.562500 0.500000
vt 0.578125 1.000000
vt 0.562500 0.937500
vt 0.578125 0.000000
vt 0.562500 0.437500
vt 0.562500 0.875000
vt 0.531250 0.125000
vt 0.531250 0.062500
vt 0.531250 0.562500
vt 0.531250 0.500000
vt 0.546875 1.000000
vt 0.531250 0.937500
vt 0.546875 0.000000
vt 0.531250 0.437500
vt 0.531250 0.875000
vt 0.531250 0.375000
vt 0.531250 0.812500
vt 0.531250 0.312500
vt 0.531250 0.750000
vt 0.531250 0.250000
vt 0.531250 0.687500
vt 0.531250 0.187500
vt 0.531250 0.625000
vt 0.500000 0.812500
vt 0.500000 0.750000
vt 0.500000 0.312500
vt 0.500000 0.250000
vt 0.500000 0.687500
vt 0.500000 0.187500
vt 0.500000 0.625000
vt 0.500000 0.125000
vt 0.500000 0.562500
vt 0.500000 0.062500
vt 0.500000 0.500000
vt 0.515625 1.000000
vt 0.500000 0.937500
vt 0.515625 0.000000
vt 0.500000 0.437500
vt 0.500000 0.875000
vt 0.500000 0.375000
vt 0.468750 0.562500
vt 0.468750 0.500000
vt 0.484375 1.000000
vt 0.468750 0.937500
vt 0.484375 0.000000
vt 0.468750 0.062500
vt 0.468750 0.437500
vt 0.468750 0.875000
vt 0.468750 0.375000
vt 0.468750 0.812500
vt 0.468750 0.312500
vt 0.468750 0.750000
vt 0.468750 0.250000
vt 0.468750 0.687500
vt 0.468750 0.187500
vt 0.468750 0.625000
vt 0.468750 0.125000
vt 0.437500 0.312500
vt 0.437500 0.250000
vt 0.437500 0.750000
vt 0.437500 0.687500
vt 0.437500 0.187500
vt 0.437500 0.625000
vt 0.437500 0.125000
vt 0.437500 0.562500
vt 0.437500 0.062500
vt 0.437500 0.500000
vt 0.453125 1.000000
vt 0.437500 0.937500
vt 0.453125 0.000000
vt 0.437500 0.437500
vt 0.437500 0.875000
vt 0.437500 0.375000
vt 0.437500 0.812500
vt 0.421875 1.000000
vt 0.406250 0.937500
vt 0.421875 0.000000
vt 0.406250 0.062500
vt 0.406250 0.500000
vt 0.406250 0.437500
vt 0.406250 0.875000
vt 0.406250 0.375000
vt 0.406250 0.812500
vt 0.406250 0.312500
vt 0.406250 0.750000
vt 0.406250 0.250000
vt 0.406250 0.687500
vt 0.406250 0.187500
vt 0.406250 0.625000
vt 0.406250 0.125000
vt 0.406250 0.562500
vt 0.375000 0.750000
vt 0.375000 0.687500
vt 0.375000 0.250000
vt 0.375000 0.187500
vt 0.375000 0.625000
vt 0.375000 0.125000
vt 0.375000 0.562500
vt 0.375000 0.062500
vt 0.375000 0.500000
vt 0.390625 1.000000
vt 0.375000 0.937500
vt 0.390625 0.000000
vt 0.375000 0.437500
vt 0.375000 0.875000
vt 0.375000 0.375000
vt 0.375000 0.812500
vt 0.375000 0.312500
vt 0.343750 0.500000
vt 0.343750 0.437500
vt 0.343750 0.937500
vt 0.343750 0.875000
vt 0.343750 0.375000
vt 0.343750 0.812500
vt 0.343750 0.312500
vt 0.343750 0.750000
vt 0.343750 0.250000
vt 0.343750 0.687500
vt 0.343750 0.187500
vt 0.343750 0.625000
vt 0.343750 0.125000
vt 0.343750 0.562500
vt 0.343750 0.062500
vt 0.359375 1.000000
vt 0.359375 0.000000
vt 0.312500 0.250000
vt 0.312500 0.187500
vt 0.312500 0.687500
vt 0.312500 0.625000
vt 0.312500 0.125000
vt 0.312500 0.562500
vt 0.312500 0.062500
vt 0.312500 0.500000
vt 0.328125 1.000000
vt 0.312500 0.937500
vt 0.328125 0.000000
vt 0.312500 0.437500
vt 0.312500 0.875000
vt 0.312500 0.375000
vt 0.312500 0.812500
vt 0.312500 0.312500
vt 0.312500 0.750000
vt 0.281250 0.437500
vt 0.281250 0.375000
vt 0.281250 0.875000
vt 0.281250 0.812500
vt 0.281250 0.312500
vt 0.281250 0.750000
vt 0.281250 0.250000
vt 0.281250 0.687500
vt 0.281250 0.187500
vt 0.281250 0.625000
vt 0.281250 0.125000
vt 0.281250 0.562500
vt 0.281250 0.062500
vt 0.281250 0.500000
vt 0.296875 1.000000
vt 0.281250 0.937500
vt 0.296875 0.000000
vt 0.250000 0.187500
vt 0.250000 0.125000
vt 0.250000 0.625000
vt 0.250000 0.562500
vt 0.250000 0.062500
vt 0.250000 0.500000
vt 0.265625 1.000000
vt 0.250000 0.937500
vt 0.265625 0.000000
vt 0.250000 0.437500
vt 0.250000 0.875000
vt 0.250000 0.375000
vt 0.250000 0.812500
vt 0.250000 0.312500
vt 0.250000 0.750000
vt 0.250000 0.250000
vt 0.250000 0.687500
vt 0.218750 0.875000
vt 0.218750 0.812500
vt 0.218750 0.375000
vt 0.218750 0.312500
vt 0.218750 0.750000
vt 0.218750 0.250000
vt 0.218750 0.687500
vt 0.218750 0.187500
vt 0.218750 0.625000
vt 0.218750 0.125000
vt 0.218750 0.562500
vt 0.218750 0.062500
vt 0.218750 0.500000
vt 0.234375 1.000000
vt 0.218750 0.937500
vt 0.234375 0.000000
vt 0.218750 0.437500
vt 0.187500 0.625000
vt 0.187500 0.562500
vt 0.187500 0.125000
vt 0.187500 0.062500
vt 0.187500 0.500000
vt 0.203125 1.000000
vt 0.187500 0.937500
vt 0.203125 0.000000
vt 0.187500 0.437500
vt 0.187500 0.875000
vt 0.187500 0.375000
vt 0.187500 0.812500
vt 0.187500 0.312500
vt 0.187500 0.750000
vt 0.187500 0.250000
vt 0.187500 0.687500
vt 0.187500 0.187500
vt 0.156250 0.375000
vt 0.156250 0.312500
vt 0.156250 0.812500
vt 0.156250 0.750000
vt 0.156250 0.250000
vt 0.156250 0.687500
vt 0.156250 0.187500
vt 0.156250 0.625000
vt 0.156250 0.125000
vt 0.156250 0.562500
vt 0.156250 0.062500
vt 0.156250 0.500000
vt 0.171875 1.000000
vt 0.156250 0.937500
vt 0.171875 0.000000
vt 0.156250 0.437500
vt 0.156250 0.875000
vt 0.125000 0.125000
vt 0.125000 0.062500
vt 0.125000 0.562500
vt 0.125000 0.500000
vt 0.140625 1.000000
vt 0.125000 0.937500
vt 0.140625 0.000000
vt 0.125000 0.437500
vt 0.125000 0.875000
vt 0.125000 0.375000
vt 0.125000 0.812500
vt 0.125000 0.312500
vt 0.125000 0.750000
vt 0.125000 0.250000
vt 0.125000 0.687500
vt 0.125000 0.187500
vt 0.125000 0.625000
vt 0.093750 0.812500
vt 0.093750 0.750000
vt 0.093750 0.312500
vt 0.093750 0.250000
vt 0.093750 0.687500
vt 0.093750 0.187500
vt 0.093750 0.625000
vt 0.093750 0.125000
vt 0.093750 0.562500
vt 0.093750 0.062500
vt 0.093750 0.500000
vt 0.109375 1.000000
vt 0.093750 0.937500
vt 0.109375 0.000000
vt 0.093750 0.437500
vt 0.093750 0.875000
vt 0.093750 0.375000
vt 0.062500 0.562500
vt 0.062500 0.500000
vt 0.078125 1.000000
vt 0.062500 0.937500
vt 0.078125 0.000000
vt 0.062500 0.062500
vt 0.062500 0.437500
vt 0.062500 0.875000
vt 0.062500 0.375000
vt 0.062500 0.812500
vt 0.062500 0.312500
vt 0.062500 0.750000
vt 0.062500 0.250000
vt 0.062500 0.687500
vt 0.062500 0.187500
vt 0.062500 0.625000
vt 0.062500 0.125000
vt 0.031250 0.312500
vt 0.031250 0.250000
vt 0.031250 0.750000
vt 0.031250 0.687500
vt 0.031250 0.187500
vt 0.031250 0.625000
vt 0.031250 0.125000
vt 0.031250 0.562500
vt 0.031250 0.062500
vt 0.031250 0.500000
vt 0.046875 1.000000
vt 0.031250 0.937500
vt 0.046875 0.000000
vt 0.031250 0.437500
vt 0.031250 0.875000
vt 0.031250 0.375000
vt 0.031250 0.812500
vt 0.015625 0.000000
vt 0.000000 0.062500
vt 0.000000 0.500000
vt 0.000000 0.437500
vt 0.000000 0.937500
vt 0.000000 0.875000
vt 0.000000 0.375000
vt 0.000000 0.812500
vt 0.000000 0.312500
vt 0.000000 0.750000
vt 0.000000 0.250000
vt 0.000000 0.687500
vt 0.000000 0.187500
vt 0.000000 0.625000
vt 0.000000 0.125000
vt 0.000000 0.562500
vt 0.015625 1.000000
vt 1.000000 0.187500
vt 1.000000 0.250000
vt 0.968750 0.250000
vt 0.968750 0.187500
vt 1.000000 0.625000
vt 1.000000 0.687500
vt 0.968750 0.687500
vt 0.968750 0.625000
vt 1.000000 0.125000
vt 0.968750 0.125000
vt 1.000000 0.562500
vt 0.968750 0.562500
vt 1.000000 0.062500
vt 0.968750 0.062500
vt 1.000000 0.500000
vt 0.968750 0.500000
vt 1.000000 0.937500
vt 0.984375 1.000000
vt 0.968750 0.937500
vt 0.984375 0.000000
vt 1.000000 0.437500
vt 0.968750 0.437500
vt 1.000000 0.875000
vt 0.968750 0.875000
vt 1.000000 0.375000
vt 0.968750 0.375000
vt 1.000000 0.812500
vt 0.968750 0.812500
vt 1.000000 0.312500
vt 0.968750 0.312500
vt 1.000000 0.750000
vt 0.968750 0.750000
vt 0.937500 0.937500
vt 0.937500 0.875000
vt 0.937500 0.437500
vt 0.937500 0.375000
vt 0.937500 0.812500
vt 0.937500 0.312500
vt 0.937500 0.750000
vt 0.937500 0.250000
vt 0.937500 0.687500
vt 0.937500 0.187500
vt 0.937500 0.625000
vt 0.937500 0.125000
vt 0.937500 0.562500
vt 0.937500 0.062500
vt 0.937500 0.500000
vt 0.953125 1.000000
vt 0.953125 0.000000
vt 0.906250 0.687500
vt 0.906250 0.625000
vt 0.906250 0.187500
vt 0.906250 0.125000
vt 0.906250 0.562500
vt 0.906250 0.062500
vt 0.906250 0.500000
vt 0.921875 1.000000
vt 0.906250 0.937500
vt 0.921875 0.000000
vt 0.906250 0.437500
vt 0.906250 0.875000
vt 0.906250 0.375000
vt 0.906250 0.812500
vt 0.906250 0.312500
vt 0.906250 0.750000
vt 0.906250 0.250000
vt 0.875000 0.437500
vt 0.875000 0.375000
vt 0.875000 0.875000
vt 0.875000 0.812500
vt 0.875000 0.312500
vt 0.875000 0.750000
vt 0.875000 0.250000
vt 0.875000 0.687500
vt 0.875000 0.187500
vt 0.875000 0.625000
vt 0.875000 0.125000
vt 0.875000 0.562500
vt 0.875000 0.062500
vt 0.875000 0.500000
vt 0.890625 1.000000
vt 0.875000 0.937500
vt 0.890625 0.000000
vt 0.843750 0.187500
vt 0.843750 0.125000
vt 0.843750 0.625000
vt 0.843750 0.562500
vt 0.843750 0.062500
vt 0.843750 0.500000
vt 0.859375 1.000000
vt 0.843750 0.937500
vt 0.859375 0.000000
vt 0.843750 0.437500
vt 0.843750 0.875000
vt 0.843750 0.375000
vt 0.843750 0.812500
vt 0.843750 0.312500
vt 0.843750 0.750000
vt 0.843750 0.250000
vt 0.843750 0.687500
vt 0.812500 0.875000
vt 0.812500 0.812500
vt 0.812500 0.375000
vt 0.812500 0.312500
vt 0.812500 0.750000
vt 0.812500 0.250000
vt 0.812500 0.687500
vt 0.812500 0.187500
vt 0.812500 0.625000
vt 0.812500 0.125000
vt 0.812500 0.562500
vt 0.812500 0.062500
vt 0.812500 0.500000
vt 0.828125 1.000000
vt 0.812500 0.937500
vt 0.828125 0.000000
vt 0.812500 0.437500
vt 0.781250 0.625000
vt 0.781250 0.562500
vt 0.781250 0.125000
vt 0.781250 0.062500
vt 0.781250 0.500000
vt 0.796875 1.000000
vt 0.781250 0.937500
vt 0.796875 0.000000
vt 0.781250 0.437500
vt 0.781250 0.875000
vt 0.781250 0.375000
vt 0.781250 0.812500
vt 0.781250 0.312500
vt 0.781250 0.750000
vt 0.781250 0.250000
vt 0.781250 0.687500
vt 0.781250 0.187500
vt 0.765625 1.000000
vt 0.765625 0.000000
s 1
f 67/33/46 538/34/46 78/35/46 79/36/46
f 536/37/47 62/38/47 71/39/47 72/40/47
f 539/41/48 67/33/48 79/36/48 80/42/48
f 63/43/49 536/37/49 72/40/49 73/44/49
f 540/45/50 539/41/50 80/42/50 81/46/50
f 537/47/51 63/43/51 73/44/51 74/48/51
f 541/49/52 540/45/52 81/46/52 82/50/52
f 64/51/53 537/47/53 74/48/53 75/52/53
f 542/53/54 541/49/54 82/50/54 83/54/54
f 65/55/55 64/51/55 75/52/55 76/56/55
f 534/57/56 61/58/56 69/59/56
f 68/60/57 542/53/57 83/54/57
f 66/61/58 65/55/58 76/56/58 77/62/58
f 535/63/59 534/57/59 69/59/59 70/64/59
f 538/34/60 66/61/60 77/62/60 78/35/60
f 62/38/61 535/63/61 70/64/61 71/39/61
f 70/64/62 69/59/62 84/65/62 85/66/62
f 78/35/63 77/62/63 92/67/63 93/68/63
f 71/39/64 70/64/64 85/66/64 86/69/64
f 79/36/65 78/35/65 93/68/65 94/70/65
f 72/40/66 71/39/66 86/69/66 87/71/66
f 80/42/67 79/36/67 94/70/67 95/72/67
f 73/44/68 72/40/68 87/71/68 88/73/68
f 81/46/69 80/42/69 95/72/69 96/74/69
f 74/48/70 73/44/70 88/73/70 89/75/70
f 82/50/71 81/46/71 96/74/71 97/76/71
f 75/52/72 74/48/72 89/75/72 90/77/72
f 83/54/73 82/50/73 97/76/73 98/78/73
f 76/56/74 75/52/74 90/77/74 91/79/74
f 69/59/75 61/80/75 84/65/75
f 68/81/76 83/54/76 98/78/76
f 77/62/77 76/56/77 91/79/77 92/67/77
f 89/75/78 88/73/78 103/82/78 104/83/78
f 97/76/79 96/74/79 111/84/79 112/85/79
f 90/77/80 89/75/80 104/83/80 105/86/80
f 98/78/81 97/76/81 112/85/81 113/87/81
f 91/79/82 90/77/82 105/86/82 106/88/82
f 84/65/83 61/89/83 99/90/83
f 68/91/84 98/78/84 113/87/84
f 92/67/85 91/79/85 106/88/85 107/92/85
f 85/66/86 84/65/86 99/90/86 100/93/86
f 93/68/87 92/67/87 107/92/87 108/94/87
f 86/69/88 85/66/88 100/93/88 101/95/88
f 94/70/89 93/68/89 108/94/89 109/96/89
f 87/71/90 86/69/90 101/95/90 102/97/90
f 95/72/91 94/70/91 109/96/91 110/98/91
f 88/73/92 87/71/92 102/97/92 103/82/92
f 96/74/93 95/72/93 110/98/93 111/84/93
f 108/94/94 107/92/94 122/99/94 123/100/94
f 101/95/95 100/93/95 115/101/95 116/102/95
f 109/96/96 108/94/96 123/100/96 124/103/96
f 102/97/97 101/95/97 116/102/97 117/104/97
f 110/98/98 109/96/98 124/103/98 125/105/98
f 103/82/99 102/97/99 117/104/99 118/106/99
f 111/84/100 110/98/100 125/105/100 126/107/100
f 104/83/101 103/82/101 118/106/101 119/108/101
f 112/85/102 111/84/102 126/107/102 127/109/102
f 105/86/103 104/83/103 119/108/103 120/110/103
f 113/87/104 112/85/104 127/109/104 128/111/104
f 106/88/105 105/86/105 120/110/105 121/112/105
f 99/90/106 61/113/106 114/114/106
f 68/115/107 113/87/107 128/111/107
f 107/92/108 106/88/108 121/112/108 122/99/108
f 100/93/109 99/90/109 114/114/109 115/101/109
f 127/109/110 126/107/110 141/116/110 142/117/110
f 120/110/111 119/108/111 134/118/111 135/119/111
f 128/111/112 127/109/112 142/117/112 143/120/112
f 121/112/113 120/110/113 135/119/113 136/121/113
f 114/114/114 61/122/114 129/123/114
f 68/124/115 128/111/115 143/120/115
f 122/99/116 121/112/116 136/121/116 137/125/116
f 115/101/117 114/114/117 129/123/117 130/126/117
f 123/100/118 122/99/118 137/125/118 138/127/118
f 116/102/119 115/101/119 130/126/119 131/128/119
f 124/103/120 123/100/120 138/127/120 139/129/120
f 117/104/121 116/102/121 131/128/121 132/130/121
f 125/105/122 124/103/122 139/129/122 140/131/122
f 118/106/123 117/104/123 132/130/123 133/132/123
f 126/107/124 125/105/124 140/131/124 141/116/124
f 119/108/125 118/106/125 133/132/125 134/118/125
f 139/129/126 138/127/126 153/133/126 154/134/126
f 132/130/127 131/128/127 146/135/127 147/136/127
f 140/131/128 139/129/128 154/134/128 155/137/128
f 133/132/129 132/130/129 147/136/129 148/138/129
f 141/116/130 140/131/130 155/137/130 156/139/130
f 134/118/131 133/132/131 148/138/131 149/140/131
f 142/117/132 141/116/132 156/139/132 157/141/132
f 135/119/133 134/118/133 149/140/133 150/142/133
f 143/120/134 142/117/134 157/141/134 158/143/134
f 136/121/135 135/119/135 150/142/135 151/144/135
f 129/123/136 61/145/136 144/146/136
f 68/147/137 143/120/137 158/143/137
f 137/125/138 136/121/138 151/144/138 152/148/138
f 130/126/139 129/123/139 144/146/139 145/149/139
f 138/127/140 137/125/140 152/148/140 153/133/140
f 131/128/141 130/126/141 145/149/141 146/135/141
f 158/143/142 157/141/142 172/150/142 173/151/142
f 151/144/143 150/142/143 165/152/143 166/153/143
f 144/146/144 61/154/144 159/155/144
f 68/156/145 158/143/145 173/151/145
f 152/148/146 151/144/146 166/153/146 167/157/146
f 145/149/147 144/146/147 159/155/147 160/158/147
f 153/133/148 152/148/148 167/157/148 168/159/148
f 146/135/149 145/149/149 160/158/149 161/160/149
f 154/134/150 153/133/150 168/159/150 169/161/150
f 147/136/151 146/135/151 161/160/151 162/162/151
f 155/137/152 154/134/152 169/161/152 170/163/152
f 148/138/153 147/136/153 162/162/153 163/164/153
f 156/139/154 155/137/154 170/163/154 171/165/154
f 149/140/155 148/138/155 163/164/155 164/166/155
f 157/141/156 156/139/156 171/165/156 172/150/156
f 150/142/157 149/140/157 164/166/157 165/152/157
f 162/162/158 161/160/158 176/167/158 177/168/158
f 170/163/159 169/161/159 184/169/159 185/170/159
f 163/164/160 162/162/160 177/168/160 178/171/160
f 171/165/161 170/163/161 185/170/161 186/172/161
f 164/166/162 163/164/162 178/171/162 179/173/162
f 172/150/163 171/165/163 186/172/163 187/174/163
f 165/152/164 164/166/164 179/173/164 180/175/164
f 173/151/165 172/150/165 187/174/165 188/176/165
f 166/153/166 165/152/166 180/175/166 181/177/166
f 159/155/167 61/178/167 174/179/167
f 68/180/168 173/151/168 188/176/168
f 167/157/169 166/153/169 181/177/169 182/181/169
f 160/158/170 159/155/170 174/179/170 175/182/170
f 168/159/171 167/157/171 182/181/171 183/183/171
f 161/160/172 160/158/172 175/182/172 176/167/172
f 169/161/173 168/159/173 183/183/173 184/169/173
f 181/177/174 180/175/174 195/184/174 196/185/174
f 174/179/175 61/186/175 189/187/175
f 68/188/176 188/176/176 203/189/176
f 182/181/177 181/177/177 196/185/177 197/190/177
f 175/182/178 174/179/178 189/187/178 190/191/178
f 183/183/179 182/181/179 197/190/179 198/192/179
f 176/167/180 175/182/180 190/191/180 191/193/180
f 184/169/181 183/183/181 198/192/181 199/194/181
f 177/168/182 176/167/182 191/193/182 192/195/182
f 185/170/183 184/169/183 199/194/183 200/196/183
f 178/171/184 177/168/184 192/195/184 193/197/184
f 186/172/185 185/170/185 200/196/185 201/198/185
f 179/173/186 178/171/186 193/197/186 194/199/186
f 187/174/187 186/172/187 201/198/187 202/200/187
f 180/175/188 179/173/188 194/199/188 195/184/188
f 188/176/189 187/174/189 202/200/189 203/189/189
f 200/196/190 199/194/190 214/201/190 215/202/190
f 193/197/191 192/195/191 207/203/191 208/204/191
f 201/198/192 200/196/192 215/202/192 216/205/192
f 194/199/193 193/197/193 208/204/193 209/206/193
f 202/200/194 201/198/194 216/205/194 217/207/194
f 195/184/195 194/199/195 209/206/195 210/208/195
f 203/189/196 202/200/196 217/207/196 218/209/196
f 196/185/197 195/184/197 210/208/197 211/210/197
f 189/187/198 61/211/198 204/212/198
f 68/213/199 203/189/199 218/209/199
f 197/190/200 196/185/200 211/210/200 212/214/200
f 190/191/201 189/187/201 204/212/201 205/215/201
f 198/192/202 197/190/202 212/214/202 213/216/202
f 191/193/203 190/191/203 205/215/203 206/217/203
f 199/194/204 198/192/204 213/216/204 214/201/204
f 192/195/205 191/193/205 206/217/205 207/203/205
f 204/212/206 61/218/206 219/219/206
f 68/220/207 218/209/207 233/221/207
f 212/214/208 211/210/208 226/222/208 227/223/208
f 205/215/209 204/212/209 219/219/209 220/224/209
f 213/216/210 212/214/210 227/223/210 228/225/210
f 206/217/211 205/215/211 220/224/211 221/226/211
f 214/201/212 213/216/212 228/225/212 229/227/212
f 207/203/213 206/217/213 221/226/213 222/228/213
f 215/202/214 214/201/214 229/227/214 230/229/214
f 208/204/215 207/203/215 222/228/215 223/230/215
f 216/205/216 215/202/216 230/229/216 231/231/216
f 209/206/217 208/204/217 223/230/217 224/232/217
f 217/207/218 216/205/218 231/231/218 232/233/218
f 210/208/219 209/206/219 224/232/219 225/234/219
f 218/209/220 217/207/220 232/233/220 233/221/220
f 211/210/221 210/208/221 225/234/221 226/222/221
f 223/230/222 222/228/222 237/235/222 238/236/222
f 231/231/223 230/229/223 245/237/223 246/238/223
f 224/232/224 223/230/224 238/236/224 239/239/224
f 232/233/225 231/231/225 246/238/225 247/240/225
f 225/234/226 224/232/226 239/239/226 240/241/226
f 233/221/227 232/233/227 247/240/227 248/242/227
f 226/222/228 225/234/228 240/241/228 241/243/228
f 219/219/229 61/244/229 234/245/229
f 68/246/230 233/221/230 248/242/230
f 227/223/231 226/222/231 241/243/231 242/247/231
f 220/224/232 219/219/232 234/245/232 235/248/232
f 228/225/233 227/223/233 242/247/233 243/249/233
f 221/226/234 220/224/234 235/248/234 236/250/234
f 229/227/235 228/225/235 243/249/235 244/251/235
f 222/228/236 221/226/236 236/250/236 237/235/236
f 230/229/237 229/227/237 244/251/237 245/237/237
f 242/247/238 241/243/238 256/252/238 257/253/238
f 235/248/239 234/245/239 249/254/239 250/255/239
f 243/249/240 242/247/240 257/253/240 258/256/240
f 236/250/241 235/248/241 250/255/241 251/257/241
f 244/251/242 243/249/242 258/256/242 259/258/242
f 237/235/243 236/250/243 251/257/243 252/259/243
f 245/237/244 244/251/244 259/258/244 260/260/244
f 238/236/245 237/235/245 252/259/245 253/261/245
f 246/238/246 245/237/246 260/260/246 261/262/246
f 239/239/247 238/236/247 253/261/247 254/263/247
f 247/240/248 246/238/248 261/262/248 262/264/248
f 240/241/249 239/239/249 254/263/249 255/265/249
f 248/242/250 247/240/250 262/264/250 263/266/250
f 241/243/251 240/241/251 255/265/251 256/252/251
f 234/245/252 61/267/252 249/254/252
f 68/268/253 248/242/253 263/266/253
f 261/262/254 260/260/254 275/269/254 276/270/254
f 254/263/255 253/261/255 268/271/255 269/272/255
f 262/264/256 261/262/256 276/270/256 277/273/256
f 255/265/257 254/263/257 269/272/257 270/274/257
f 263/266/258 262/264/258 277/273/258 278/275/258
f 256/252/259 255/265/259 270/274/259 271/276/259
f 249/254/260 61/277/260 264/278/260
f 68/279/261 263/266/261 278/275/261
f 257/253/262 256/252/262 271/276/262 272/280/262
f 250/255/263 249/254/263 264/278/263 265/281/263
f 258/256/264 257/253/264 272/280/264 273/282/264
f 251/257/265 250/255/265 265/281/265 266/283/265
f 259/258/266 258/256/266 273/282/266 274/284/266
f 252/259/267 251/257/267 266/283/267 267/285/267
f 260/260/268 259/258/268 274/284/268 275/269/268
f 253/261/269 252/259/269 267/285/269 268/271/269
f 273/282/270 272/280/270 287/286/270 288/287/270
f 266/283/271 265/281/271 280/288/271 281/289/271
f 274/284/272 273/282/272 288/287/272 289/290/272
f 267/285/273 266/283/273 281/289/273 282/291/273
f 275/269/274 274/284/274 289/290/274 290/292/274
f 268/271/275 267/285/275 282/291/275 283/293/275
f 276/270/276 275/269/276 290/292/276 291/294/276
f 269/272/277 268/271/277 283/293/277 284/295/277
f 277/273/278 276/270/278 291/294/278 292/296/278
f 270/274/279 269/272/279 284/295/279 285/297/279
f 278/275/280 277/273/280 292/296/280 293/298/280
f 271/276/281 270/274/281 285/297/281 286/299/281
f 264/278/282 61/300/282 279/301/282
f 68/302/283 278/275/283 293/298/283
f 272/280/284 271/276/284 286/299/284 287/286/284
f 265/281/285 264/278/285 279/301/285 280/288/285
f 292/296/286 291/294/286 306/303/286 307/304/286
f 285/297/287 284/295/287 299/305/287 300/306/287
f 293/298/288 292/296/288 307/304/288 308/307/288
f 286/299/289 285/297/289 300/306/289 301/308/289
f 279/301/290 61/309/290 294/310/290
f 68/311/291 293/298/291 308/307/291
f 287/286/292 286/299/292 301/308/292 302/312/292
f 280/288/293 279/301/293 294/310/293 295/313/293
f 288/287/294 287/286/294 302/312/294 303/314/294
f 281/289/295 280/288/295 295/313/295 296/315/295
f 289/290/296 288/287/296 303/314/296 304/316/296
f 282/291/297 281/289/297 296/315/297 297/317/297
f 290/292/298 289/290/298 304/316/298 305/318/298
f 283/293/299 282/291/299 297/317/299 298/319/299
f 291/294/300 290/292/300 305/318/300 306/303/300
f 284/295/301 283/293/301 298/319/301 299/305/301
f 296/315/302 295/313/302 310/320/302 311/321/302
f 304/316/303 303/314/303 318/322/303 319/323/303
f 297/317/304 296/315/304 311/321/304 312/324/304
f 305/318/305 304/316/305 319/323/305 320/325/305
f 298/319/306 297/317/306 312/324/306 313/326/306
f 306/303/307 305/318/307 320/325/307 321/327/307
f 299/305/308 298/319/308 313/326/308 314/328/308
f 307/304/309 306/303/309 321/327/309 322/329/309
f 300/306/310 299/305/310 314/328/310 315/330/310
f 308/307/311 307/304/311 322/329/311 323/331/311
f 301/308/312 300/306/312 315/330/312 316/332/312
f 294/310/313 61/333/313 309/334/313
f 68/335/314 308/307/314 323/331/314
f 302/312/315 301/308/315 316/332/315 317/336/315
f 295/313/316 294/310/316 309/334/316 310/320/316
f 303/314/317 302/312/317 317/336/317 318/322/317
f 315/330/318 314/328/318 329/337/318 330/338/318
f 323/331/319 322/329/319 337/339/319 338/340/319
f 316/332/320 315/330/320 330/338/320 331/341/320
f 309/334/321 61/342/321 324/343/321
f 68/344/322 323/331/322 338/340/322
f 317/336/323 316/332/323 331/341/323 332/345/323
f 310/320/324 309/334/324 324/343/324 325/346/324
f 318/322/325 317/336/325 332/345/325 333/347/325
f 311/321/326 310/320/326 325/346/326 326/348/326
f 319/323/327 318/322/327 333/347/327 334/349/327
f 312/324/328 311/321/328 326/348/328 327/350/328
f 320/325/329 319/323/329 334/349/329 335/351/329
f 313/326/330 312/324/330 327/350/330 328/352/330
f 321/327/331 320/325/331 335/351/331 336/353/331
f 314/328/332 313/326/332 328/352/332 329/337/332
f 322/329/333 321/327/333 336/353/333 337/339/333
f 334/349/334 333/347/334 348/354/334 349/355/334
f 327/350/335 326/348/335 341/356/335 342/357/335
f 335/351/336 334/349/336 349/355/336 350/358/336
f 328/352/337 327/350/337 342/357/337 343/359/337
f 336/353/338 335/351/338 350/358/338 351/360/338
f 329/337/339 328/352/339 343/359/339 344/361/339
f 337/339/340 336/353/340 351/360/340 352/362/340
f 330/338/341 329/337/341 344/361/341 345/363/341
f 338/340/342 337/339/342 352/362/342 353/364/342
f 331/341/343 330/338/343 345/363/343 346/365/343
f 324/343/344 61/366/344 339/367/344
f 68/368/345 338/340/345 353/364/345
f 332/345/346 331/341/346 346/365/346 347/369/346
f 325/346/347 324/343/347 339/367/347 340/370/347
f 333/347/348 332/345/348 347/369/348 348/354/348
f 326/348/349 325/346/349 340/370/349 341/356/349
f 353/364/350 352/362/350 367/371/350 368/372/350
f 346/365/351 345/363/351 360/373/351 361/374/351
f 339/367/352 61/375/352 354/376/352
f 68/377/353 353/364/353 368/372/353
f 347/369/354 346/365/354 361/374/354 362/378/354
f 340/370/355 339/367/355 354/376/355 355/379/355
f 348/354/356 347/369/356 362/378/356 363/380/356
f 341/356/357 340/370/357 355/379/357 356/381/357
f 349/355/358 348/354/358 363/380/358 364/382/358
f 342/357/359 341/356/359 356/381/359 357/383/359
f 350/358/360 349/355/360 364/382/360 365/384/360
f 343/359/361 342/357/361 357/383/361 358/385/361
f 351/360/362 350/358/362 365/384/362 366/386/362
f 344/361/363 343/359/363 358/385/363 359/387/363
f 352/362/364 351/360/364 366/386/364 367/371/364
f 345/363/365 344/361/365 359/387/365 360/373/365
f 357/383/366 356/381/366 371/388/366 372/389/366
f 365/384/367 364/382/367 379/390/367 380/391/367
f 358/385/368 357/383/368 372/389/368 373/392/368
f 366/386/369 365/384/369 380/391/369 381/393/369
f 359/387/370 358/385/370 373/392/370 374/394/370
f 367/371/371 366/386/371 381/393/371 382/395/371
f 360/373/372 359/387/372 374/394/372 375/396/372
f 368/372/373 367/371/373 382/395/373 383/397/373
f 361/374/374 360/373/374 375/396/374 376/398/374
f 354/376/375 61/399/375 369/400/375
f 68/401/376 368/372/376 383/397/376
f 362/378/377 361/374/377 376/398/377 377/402/377
f 355/379/378 354/376/378 369/400/378 370/403/378
f 363/380/379 362/378/379 377/402/379 378/404/379
f 356/381/380 355/379/380 370/403/380 371/388/380
f 364/382/381 363/380/381 378/404/381 379/390/381
f 376/398/382 375/396/382 390/405/382 391/406/382
f 369/400/383 61/407/383 384/408/383
f 68/409/384 383/397/384 398/410/384
f 377/402/385 376/398/385 391/406/385 392/411/385
f 370/403/386 369/400/386 384/408/386 385/412/386
f 378/404/387 377/402/387 392/411/387 393/413/387
f 371/388/388 370/403/388 385/412/388 386/414/388
f 379/390/389 378/404/389 393/413/389 394/415/389
f 372/389/390 371/388/390 386/414/390 387/416/390
f 380/391/391 379/390/391 394/415/391 395/417/391
f 373/392/392 372/389/392 387/416/392 388/418/392
f 381/393/393 380/391/393 395/417/393 396/419/393
f 374/394/394 373/392/394 388/418/394 389/420/394
f 382/395/395 381/393/395 396/419/395 397/421/395
f 375/396/396 374/394/396 389/420/396 390/405/396
f 383/397/397 382/395/397 397/421/397 398/410/397
f 395/417/398 394/415/398 409/422/398 410/423/398
f 388/418/399 387/416/399 402/424/399 403/425/399
f 396/419/400 395/417/400 410/423/400 411/426/400
f 389/420/401 388/418/401 403/425/401 404/427/401
f 397/421/402 396/419/402 411/426/402 412/428/402
f 390/405/403 389/420/403 404/427/403 405/429/403
f 398/410/404 397/421/404 412/428/404 413/430/404
f 391/406/405 390/405/405 405/429/405 406/431/405
f 384/408/406 61/432/406 399/433/406
f 68/434/407 398/410/407 413/430/407
f 392/411/408 391/406/408 406/431/408 407/435/408
f 385/412/409 384/408/409 399/433/409 400/436/409
f 393/413/410 392/411/410 407/435/410 408/437/410
f 386/414/411 385/412/411 400/436/411 401/438/411
f 394/415/412 393/413/412 408/437/412 409/422/412
f 387/416/413 386/414/413 401/438/413 402/424/413
f 68/439/414 413/430/414 428/440/414
f 407/435/415 406/431/415 421/441/415 422/442/415
f 400/436/416 399/433/416 414/443/416 415/444/416
f 408/437/417 407/435/417 422/442/417 423/445/417
f 401/438/418 400/436/418 415/444/418 416/446/418
f 409/422/419 408/437/419 423/445/419 424/447/419
f 402/424/420 401/438/420 416/446/420 417/448/420
f 410/423/421 409/422/421 424/447/421 425/449/421
f 403/425/422 402/424/422 417/448/422 418/450/422
f 411/426/423 410/423/423 425/449/423 426/451/423
f 404/427/424 403/425/424 418/450/424 419/452/424
f 412/428/425 411/426/425 426/451/425 427/453/425
f 405/429/426 404/427/426 419/452/426 420/454/426
f 413/430/427 412/428/427 427/453/427 428/440/427
f 406/431/428 405/429/428 420/454/428 421/441/428
f 399/433/429 61/455/429 414/443/429
f 426/456/430 425/457/430 440/458/430 441/459/430
f 419/460/431 418/461/431 433/462/431 434/463/431
f 427/464/432 426/456/432 441/459/432 442/465/432
f 420/466/433 419/460/433 434/463/433 435/467/433
f 428/468/434 427/464/434 442/465/434 443/469/434
f 421/470/435 420/466/435 435/467/435 436/471/435
f 414/472/436 61/473/436 429/474/436
f 68/475/437 428/468/437 443/469/437
f 422/476/438 421/470/438 436/471/438 437/477/438
f 415/478/439 414/472/439 429/474/439 430/479/439
f 423/480/440 422/476/440 437/477/440 438/481/440
f 416/482/441 415/478/441 430/479/441 431/483/441
f 424/484/442 423/480/442 438/481/442 439/485/442
f 417/486/443 416/482/443 431/483/443 432/487/443
f 425/457/444 424/484/444 439/485/444 440/458/444
f 418/461/445 417/486/445 432/487/445 433/462/445
f 430/479/446 429/474/446 444/488/446 445/489/446
f 438/481/447 437/477/447 452/490/447 453/491/447
f 431/483/448 430/479/448 445/489/448 446/492/448
f 439/485/449 438/481/449 453/491/449 454/493/449
f 432/487/450 431/483/450 446/492/450 447/494/450
f 440/458/451 439/485/451 454/493/451 455/495/451
f 433/462/452 432/487/452 447/494/452 448/496/452
f 441/459/453 440/458/453 455/495/453 456/497/453
f 434/463/454 433/462/454 448/496/454 449/498/454
f 442/465/455 441/459/455 456/497/455 457/499/455
f 435/467/456 434/463/456 449/498/456 450/500/456
f 443/469/457 442/465/457 457/499/457 458/501/457
f 436/471/458 435/467/458 450/500/458 451/502/458
f 429/474/459 61/503/459 444/488/459
f 68/504/460 443/469/460 458/501/460
f 437/477/461 436/471/461 451/502/461 452/490/461
f 449/498/462 448/496/462 463/505/462 464/506/462
f 457/499/463 456/497/463 471/507/463 472/508/463
f 450/500/464 449/498/464 464/506/464 465/509/464
f 458/501/465 457/499/465 472/508/465 473/510/465
f 451/502/466 450/500/466 465/509/466 466/511/466
f 444/488/467 61/512/467 459/513/467
f 68/514/468 458/501/468 473/510/468
f 452/490/469 451/502/469 466/511/469 467/515/469
f 445/489/470 444/488/470 459/513/470 460/516/470
f 453/491/471 452/490/471 467/515/471 468/517/471
f 446/492/472 445/489/472 460/516/472 461/518/472
f 454/493/473 453/491/473 468/517/473 469/519/473
f 447/494/474 446/492/474 461/518/474 462/520/474
f 455/495/475 454/493/475 469/519/475 470/521/475
f 448/496/476 447/494/476 462/520/476 463/505/476
f 456/497/477 455/495/477 470/521/477 471/507/477
f 468/517/478 467/515/478 482/522/478 483/523/478
f 461/518/479 460/516/479 475/524/479 476/525/479
f 469/519/480 468/517/480 483/523/480 484/526/480
f 462/520/481 461/518/481 476/525/481 477/527/481
f 470/521/482 469/519/482 484/526/482 485/528/482
f 463/505/483 462/520/483 477/527/483 478/529/483
f 471/507/484 470/521/484 485/528/484 486/530/484
f 464/506/485 463/505/485 478/529/485 479/531/485
f 472/508/486 471/507/486 486/530/486 487/532/486
f 465/509/487 464/506/487 479/531/487 480/533/487
f 473/510/488 472/508/488 487/532/488 488/534/488
f 466/511/489 465/509/489 480/533/489 481/535/489
f 459/513/490 61/536/490 474/537/490
f 68/538/491 473/510/491 488/534/491
f 467/515/492 466/511/492 481/535/492 482/522/492
f 460/516/493 459/513/493 474/537/493 475/524/493
f 487/532/494 486/530/494 501/539/494 502/540/494
f 480/533/495 479/531/495 494/541/495 495/542/495
f 488/534/496 487/532/496 502/540/496 503/543/496
f 481/535/497 480/533/497 495/542/497 496/544/497
f 474/537/498 61/545/498 489/546/498
f 68/547/499 488/534/499 503/543/499
f 482/522/500 481/535/500 496/544/500 497/548/500
f 475/524/501 474/537/501 489/546/501 490/549/501
f 483/523/502 482/522/502 497/548/502 498/550/502
f 476/525/503 475/524/503 490/549/503 491/551/503
f 484/526/504 483/523/504 498/550/504 499/552/504
f 477/527/505 476/525/505 491/551/505 492/553/505
f 485/528/506 484/526/506 499/552/506 500/554/506
f 478/529/507 477/527/507 492/553/507 493/555/507
f 486/530/508 485/528/508 500/554/508 501/539/508
f 479/531/509 478/529/509 493/555/509 494/541/509
f 491/551/510 490/549/510 505/556/510 506/557/510
f 499/552/511 498/550/511 513/558/511 514/559/511
f 492/553/512 491/551/512 506/557/512 507/560/512
f 500/554/513 499/552/513 514/559/513 515/561/513
f 493/555/514 492/553/514 507/560/514 508/562/514
f 501/539/515 500/554/515 515/561/515 516/563/515
f 494/541/516 493/555/516 508/562/516 509/564/516
f 502/540/517 501/539/517 516/563/517 517/565/517
f 495/542/518 494/541/518 509/564/518 510/566/518
f 503/543/519 502/540/519 517/565/519 518/567/519
f 496/544/520 495/542/520 510/566/520 511/568/520
f 489/546/521 61/569/521 504/570/521
f 68/571/522 503/543/522 518/567/522
f 497/548/523 496/544/523 511/568/523 512/572/523
f 490/549/524 489/546/524 504/570/524 505/556/524
f 498/550/525 497/548/525 512/572/525 513/558/525
f 510/566/526 509/564/526 524/573/526 525/574/526
f 518/567/527 517/565/527 532/575/527 533/576/527
f 511/568/528 510/566/528 525/574/528 526/577/528
f 504/570/529 61/578/529 519/579/529
f 68/580/530 518/567/530 533/576/530
f 512/572/531 511/568/531 526/577/531 527/581/531
f 505/556/532 504/570/532 519/579/532 520/582/532
f 513/558/533 512/572/533 527/581/533 528/583/533
f 506/557/534 505/556/534 520/582/534 521/584/534
f 514/559/535 513/558/535 528/583/535 529/585/535
f 507/560/536 506/557/536 521/584/536 522/586/536
f 515/561/537 514/559/537 529/585/537 530/587/537
f 508/562/538 507/560/538 522/586/538 523/588/538
f 516/563/539 515/561/539 530/587/539 531/589/539
f 509/564/540 508/562/540 523/588/540 524/573/540
f 517/565/541 516/563/541 531/589/541 532/575/541
f 529/585/542 528/583/542 538/34/542 67/33/542
f 522/586/543 521/584/543 62/38/543 536/37/543
f 530/587/544 529/585/544 67/33/544 539/41/544
f 523/588/545 522/586/545 536/37/545 63/43/545
f 531/589/546 530/587/546 539/41/546 540/45/546
f 524/573/547 523/588/547 63/43/547 537/47/547
f 532/575/548 531/589/548 540/45/548 541/49/548
f 525/574/549 524/573/549 537/47/549 64/51/549
f 533/576/550 532/575/550 541/49/550 542/53/550
f 526/577/551 525/574/551 64/51/551 65/55/551
f 519/579/552 61/590/552 534/57/552
f 68/591/553 533/576/553 542/53/553
f 527/581/554 526/577/554 65/55/554 66/61/554
f 520/582/555 519/579/555 534/57/555 535/63/555
f 528/583/556 527/581/556 66/61/556 538/34/556
f 521/584/557 520/582/557 535/63/557 62/38/557
