# This file uses centimeters as units for non-parametric coordinates.

mtllib DroneRing.mtl
g default
v 12.759997 27.395501 0.024049
v 10.854302 31.135637 0.027332
v 7.886111 34.103825 0.029937
v 4.145974 36.009519 0.031610
v 0.000000 36.666176 0.032187
v -4.145974 36.009518 0.031610
v -7.886109 34.103824 0.029937
v -10.854298 31.135635 0.027332
v -12.759992 27.395500 0.024049
v -13.416649 23.249529 0.020409
v -12.759992 19.103558 0.016770
v -10.854297 15.363424 0.013487
v -7.886108 12.395237 0.010881
v -4.145972 10.489543 0.009208
v -0.000000 9.832887 0.008632
v 4.145971 10.489544 0.009208
v 7.886106 12.395238 0.010881
v 10.854294 15.363425 0.013487
v 12.759989 19.103559 0.016770
v 13.416646 23.249529 0.020409
v 12.849214 27.423970 0.616356
v 10.930194 31.190257 0.619662
v 7.941251 34.179199 0.622286
v 4.174962 36.098216 0.623970
v 0.000000 36.759464 0.624551
v -4.174962 36.098215 0.623970
v -7.941249 34.179196 0.622286
v -10.930190 31.190254 0.619662
v -12.849209 27.423968 0.616356
v -13.510458 23.249009 0.612691
v -12.849209 19.074050 0.609026
v -10.930189 15.307765 0.605720
v -7.941247 12.318825 0.603096
v -4.174961 10.399807 0.601411
v -0.000000 9.738558 0.600831
v 4.174960 10.399808 0.601411
v 7.941245 12.318826 0.603096
v 10.930187 15.307766 0.605720
v 12.849205 19.074051 0.609026
v 13.510454 23.249009 0.612691
v 13.108131 27.507628 1.150734
v 11.150443 31.349807 1.154107
v 8.101270 34.398977 1.156784
v 4.259089 36.356664 1.158502
v 0.000000 37.031237 1.159094
v -4.259089 36.356663 1.158502
v -8.101268 34.398975 1.156784
v -11.150438 31.349804 1.154107
v -13.108126 27.507627 1.150734
v -13.782699 23.248540 1.146996
v -13.108126 18.989453 1.143257
v -11.150438 15.147276 1.139884
v -8.101267 12.098107 1.137207
v -4.259088 10.140421 1.135489
v -0.000000 9.465848 1.134897
v 4.259087 10.140421 1.135489
v 8.101265 12.098108 1.137207
v 11.150435 15.147277 1.139884
v 13.108123 18.989454 1.143257
v 13.782696 23.248540 1.146996
v 13.511405 27.638287 1.574876
v 11.493488 31.598671 1.578353
v 8.350507 34.741650 1.581112
v 4.390121 36.759566 1.582883
v 0.000000 37.454892 1.583493
v -4.390121 36.759565 1.582883
v -8.350506 34.741648 1.581112
v -11.493484 31.598670 1.578353
v -13.511400 27.638286 1.574876
v -14.206726 23.248168 1.571022
v -13.511400 18.858050 1.567168
v -11.493483 14.897667 1.563692
v -8.350504 11.754690 1.560933
v -4.390120 9.736775 1.559161
v -0.000000 9.041449 1.558551
v 4.390118 9.736776 1.559161
v 8.350502 11.754691 1.560933
v 11.493480 14.897668 1.563692
v 13.511396 18.858051 1.567168
v 14.206723 23.248168 1.571022
v 14.019560 27.803158 1.847263
v 11.925749 31.912489 1.850870
v 8.664564 35.173673 1.853733
v 4.555230 37.267481 1.855571
v 0.000000 37.988958 1.856204
v -4.555230 37.267480 1.855571
v -8.664562 35.173670 1.853733
v -11.925746 31.912486 1.850870
v -14.019554 27.803156 1.847263
v -14.741031 23.247929 1.843264
v -14.019554 18.692702 1.839265
v -11.925745 14.583372 1.835658
v -8.664560 11.322189 1.832795
v -4.555229 9.228382 1.830957
v -0.000000 8.506905 1.830324
v 4.555228 9.228383 1.830957
v 8.664558 11.322190 1.832795
v 11.925742 14.583373 1.835658
v 14.019550 18.692703 1.839265
v 14.741027 23.247929 1.843264
v 14.582853 27.986101 1.941232
v 12.404916 32.260542 1.944984
v 9.012699 35.652757 1.947962
v 4.738256 37.830692 1.949874
v 0.000000 38.581157 1.950532
v -4.738256 37.830692 1.949874
v -9.012697 35.652754 1.947962
v -12.404912 32.260539 1.944984
v -14.582848 27.986099 1.941232
v -15.333313 23.247847 1.937072
v -14.582848 18.509594 1.932913
v -12.404911 14.235155 1.929161
v -9.012695 10.842941 1.926183
v -4.738254 8.665006 1.924271
v -0.000000 7.914541 1.923612
v 4.738253 8.665007 1.924271
v 9.012693 10.842942 1.926183
v 12.404908 14.235156 1.929161
v 14.582844 18.509595 1.932913
v 15.333309 23.247847 1.937072
v 15.146147 28.169208 1.847584
v 12.884083 32.608759 1.851481
v 9.360833 36.132006 1.854574
v 4.921281 38.394068 1.856560
v 0.000000 39.173522 1.857244
v -4.921281 38.394067 1.856560
v -9.360832 36.132003 1.854574
v -12.884078 32.608756 1.851481
v -15.146142 28.169207 1.847584
v -15.925595 23.247929 1.843264
v -15.146142 18.326651 1.838944
v -12.884077 13.887103 1.835047
v -9.360830 10.363858 1.831954
v -4.921280 8.101795 1.829968
v -0.000000 7.322342 1.829284
v 4.921278 8.101796 1.829968
v 9.360828 10.363859 1.831954
v 12.884074 13.887104 1.835047
v 15.146138 18.326652 1.838944
v 15.925591 23.247929 1.843264
v 15.654302 28.334557 1.575487
v 13.316346 32.923054 1.579515
v 9.674890 36.564507 1.582712
v 5.086390 38.902462 1.584764
v 0.000000 39.708066 1.585471
v -5.086390 38.902462 1.584764
v -9.674888 36.564504 1.582712
v -13.316340 32.923052 1.579515
v -15.654297 28.334555 1.575487
v -16.459901 23.248168 1.571022
v -15.654297 18.161781 1.566557
v -13.316339 13.573285 1.562529
v -9.674887 9.931834 1.559333
v -5.086389 7.593879 1.557280
v -0.000000 6.788275 1.556573
v 5.086388 7.593881 1.557280
v 9.674885 9.931835 1.559333
v 13.316337 13.573286 1.562529
v 15.654293 18.161782 1.566557
v 16.459897 23.248168 1.571022
v 16.057575 28.465960 1.151576
v 13.659390 33.172663 1.155707
v 9.924127 36.907924 1.158986
v 5.217422 39.306107 1.161091
v 0.000000 40.132464 1.161817
v -5.217422 39.306107 1.161091
v -9.924125 36.907921 1.158986
v -13.659385 33.172661 1.155707
v -16.057569 28.465958 1.151576
v -16.883927 23.248540 1.146996
v -16.057569 18.031122 1.142416
v -13.659384 13.324421 1.138284
v -9.924123 9.589163 1.135005
v -5.217420 7.190979 1.132900
v -0.000001 6.364621 1.132174
v 5.217419 7.190979 1.132900
v 9.924121 9.589163 1.135005
v 13.659381 13.324422 1.138284
v 16.057566 18.031123 1.142416
v 16.883923 23.248540 1.146996
v 16.316493 28.550557 0.617345
v 13.879639 33.333152 0.621543
v 10.084146 37.128641 0.624875
v 5.301549 39.565494 0.627014
v 0.000000 40.405175 0.627751
v -5.301549 39.565492 0.627014
v -10.084145 37.128638 0.624875
v -13.879633 33.333149 0.621543
v -16.316488 28.550555 0.617345
v -17.156169 23.249009 0.612691
v -16.316488 17.947464 0.608037
v -13.879632 13.164870 0.603839
v -10.084143 9.369383 0.600507
v -5.301548 6.932530 0.598368
v -0.000001 6.092849 0.597631
v 5.301546 6.932531 0.598368
v 10.084141 9.369384 0.600507
v 13.879630 13.164871 0.603839
v 16.316482 17.947464 0.608037
v 17.156165 23.249009 0.612691
v 16.405710 28.580065 0.025089
v 13.955531 33.388811 0.029310
v 10.139286 37.205054 0.032660
v 5.330538 39.655231 0.034811
v 0.000000 40.499503 0.035552
v -5.330538 39.655231 0.034811
v -10.139284 37.205050 0.032660
v -13.955526 33.388808 0.029310
v -16.405704 28.580063 0.025089
v -17.249977 23.249529 0.020409
v -16.405704 17.918995 0.015730
v -13.955525 13.110251 0.011509
v -10.139282 9.294011 0.008159
v -5.330536 6.843833 0.006008
v -0.000001 5.999561 0.005267
v 5.330534 6.843835 0.006008
v 10.139280 9.294012 0.008159
v 13.955522 13.110252 0.011509
v 16.405701 17.918996 0.015730
v 17.249973 23.249529 0.020409
v 16.316493 28.551597 -0.567218
v 13.879639 33.334192 -0.563020
v 10.084146 37.129680 -0.559688
v 5.301549 39.566534 -0.557549
v 0.000000 40.406215 -0.556812
v -5.301549 39.566532 -0.557549
v -10.084145 37.129678 -0.559688
v -13.879633 33.334189 -0.563020
v -16.316488 28.551594 -0.567218
v -17.156169 23.250049 -0.571872
v -16.316488 17.948503 -0.576526
v -13.879632 13.165910 -0.580725
v -10.084143 9.370423 -0.584056
v -5.301548 6.933569 -0.586195
v -0.000001 6.093889 -0.586933
v 5.301546 6.933571 -0.586195
v 10.084141 9.370424 -0.584056
v 13.879630 13.165911 -0.580725
v 16.316482 17.948504 -0.576526
v 17.156165 23.250049 -0.571872
v 16.057575 28.467938 -1.101597
v 13.659390 33.174641 -1.097466
v 9.924127 36.909902 -1.094187
v 5.217422 39.308085 -1.092081
v 0.000000 40.134442 -1.091356
v -5.217422 39.308085 -1.092081
v -9.924125 36.909899 -1.094187
v -13.659385 33.174639 -1.097466
v -16.057569 28.467936 -1.101597
v -16.883927 23.250518 -1.106177
v -16.057569 18.033100 -1.110757
v -13.659384 13.326399 -1.114889
v -9.924123 9.591140 -1.118168
v -5.217420 7.192957 -1.120273
v -0.000001 6.366599 -1.120999
v 5.217419 7.192957 -1.120273
v 9.924121 9.591141 -1.118168
v 13.659381 13.326400 -1.114889
v 16.057566 18.033101 -1.110757
v 16.883923 23.250518 -1.106177
v 15.654302 28.337279 -1.525739
v 13.316346 32.925777 -1.521711
v 9.674890 36.567229 -1.518515
v 5.086390 38.905185 -1.516462
v 0.000000 39.710788 -1.515755
v -5.086390 38.905185 -1.516462
v -9.674888 36.567226 -1.518515
v -13.316340 32.925774 -1.521711
v -15.654297 28.337277 -1.525739
v -16.459901 23.250890 -1.530204
v -15.654297 18.164503 -1.534669
v -13.316339 13.576007 -1.538697
v -9.674887 9.934557 -1.541894
v -5.086389 7.596601 -1.543946
v -0.000000 6.790998 -1.544653
v 5.086388 7.596603 -1.543946
v 9.674885 9.934558 -1.541894
v 13.316337 13.576008 -1.538697
v 15.654293 18.164504 -1.534669
v 16.459897 23.250890 -1.530204
v 15.146147 28.172409 -1.798126
v 12.884083 32.611959 -1.794229
v 9.360833 36.135206 -1.791136
v 4.921281 38.397269 -1.789151
v 0.000000 39.176722 -1.788466
v -4.921281 38.397268 -1.789151
v -9.360832 36.135204 -1.791136
v -12.884078 32.611956 -1.794229
v -15.146142 28.172407 -1.798126
v -15.925595 23.251129 -1.802446
v -15.146142 18.329851 -1.806766
v -12.884077 13.890303 -1.810664
v -9.360830 10.367058 -1.813756
v -4.921280 8.104995 -1.815742
v -0.000000 7.325542 -1.816426
v 4.921278 8.104996 -1.815742
v 9.360828 10.367059 -1.813756
v 12.884074 13.890304 -1.810664
v 15.146138 18.329852 -1.806766
v 15.925591 23.251129 -1.802446
v 14.582853 27.989466 -1.892095
v 12.404916 32.263907 -1.888343
v 9.012699 35.656122 -1.885365
v 4.738256 37.834057 -1.883453
v 0.000000 38.584522 -1.882795
v -4.738256 37.834057 -1.883453
v -9.012697 35.656119 -1.885365
v -12.404912 32.263904 -1.888343
v -14.582848 27.989464 -1.892095
v -15.333313 23.251212 -1.896255
v -14.582848 18.512959 -1.900414
v -12.404911 14.238520 -1.904166
v -9.012695 10.846306 -1.907144
v -4.738254 8.668371 -1.909056
v -0.000000 7.917906 -1.909715
v 4.738253 8.668372 -1.909056
v 9.012693 10.846307 -1.907144
v 12.404908 14.238521 -1.904166
v 14.582844 18.512960 -1.900414
v 15.333309 23.251212 -1.896255
v 14.019560 27.806358 -1.798448
v 11.925749 31.915690 -1.794841
v 8.664564 35.176873 -1.791978
v 4.555230 37.270682 -1.790140
v 0.000000 37.992158 -1.789506
v -4.555230 37.270681 -1.790140
v -8.664562 35.176870 -1.791978
v -11.925746 31.915687 -1.794841
v -14.019554 27.806356 -1.798448
v -14.741031 23.251129 -1.802447
v -14.019554 18.695902 -1.806445
v -11.925745 14.586572 -1.810053
v -8.664560 11.325390 -1.812915
v -4.555229 9.231582 -1.814753
v -0.000000 8.510106 -1.815387
v 4.555228 9.231583 -1.814753
v 8.664558 11.325391 -1.812915
v 11.925742 14.586573 -1.810053
v 14.019550 18.695903 -1.806445
v 14.741027 23.251129 -1.802447
v 13.511405 27.641010 -1.526351
v 11.493487 31.601394 -1.522874
v 8.350507 34.744373 -1.520115
v 4.390121 36.762288 -1.518344
v 0.000000 37.457613 -1.517734
v -4.390121 36.762287 -1.518344
v -8.350505 34.744370 -1.520115
v -11.493483 31.601391 -1.522874
v -13.511399 27.641008 -1.526351
v -14.206726 23.250890 -1.530205
v -13.511399 18.860772 -1.534058
v -11.493482 14.900390 -1.537535
v -8.350503 11.757413 -1.540294
v -4.390119 9.739498 -1.542065
v -0.000000 9.044172 -1.542676
v 4.390118 9.739499 -1.542065
v 8.350501 11.757414 -1.540294
v 11.493479 14.900391 -1.537535
v 13.511395 18.860773 -1.534058
v 14.206722 23.250890 -1.530205
v 13.108130 27.509606 -1.102439
v 11.150442 31.351785 -1.099066
v 8.101270 34.400954 -1.096389
v 4.259089 36.358641 -1.094671
v 0.000000 37.033214 -1.094079
v -4.259089 36.358640 -1.094671
v -8.101268 34.400953 -1.096389
v -11.150438 31.351782 -1.099066
v -13.108126 27.509604 -1.102439
v -13.782698 23.250518 -1.106178
v -13.108126 18.991432 -1.109916
v -11.150437 15.149255 -1.113289
v -8.101266 12.100086 -1.115966
v -4.259088 10.142399 -1.117684
v -0.000000 9.467827 -1.118277
v 4.259086 10.142400 -1.117684
v 8.101264 12.100087 -1.115966
v 11.150434 15.149256 -1.113289
v 13.108122 18.991433 -1.109916
v 13.782695 23.250518 -1.106178
v 12.849213 27.425010 -0.568208
v 10.930194 31.191296 -0.564902
v 7.941250 34.180238 -0.562278
v 4.174962 36.099255 -0.560593
v 0.000000 36.760503 -0.560013
v -4.174962 36.099254 -0.560593
v -7.941248 34.180235 -0.562278
v -10.930189 31.191294 -0.564902
v -12.849208 27.425008 -0.568208
v -13.510457 23.250049 -0.571873
v -12.849208 19.075090 -0.575538
v -10.930188 15.308805 -0.578844
v -7.941247 12.319866 -0.581467
v -4.174960 10.400847 -0.583152
v -0.000000 9.739599 -0.583733
v 4.174959 10.400848 -0.583152
v 7.941245 12.319866 -0.581467
v 10.930187 15.308806 -0.578844
v 12.849205 19.075091 -0.575538
v 13.510453 23.250049 -0.571873
vt 0.000000 1.000000
vt 0.050000 1.000000
vt 0.100000 1.000000
vt 0.150000 1.000000
vt 0.200000 1.000000
vt 0.250000 1.000000
vt 0.300000 1.000000
vt 0.350000 1.000000
vt 0.400000 1.000000
vt 0.450000 1.000000
vt 0.500000 1.000000
vt 0.550000 1.000000
vt 0.600000 1.000000
vt 0.650000 1.000000
vt 0.700000 1.000000
vt 0.750000 1.000000
vt 0.800000 1.000000
vt 0.850000 1.000000
vt 0.900000 1.000000
vt 0.950000 1.000000
vt 1.000000 1.000000
vt 0.000000 0.950000
vt 0.050000 0.950000
vt 0.100000 0.950000
vt 0.150000 0.950000
vt 0.200000 0.950000
vt 0.250000 0.950000
vt 0.300000 0.950000
vt 0.350000 0.950000
vt 0.400000 0.950000
vt 0.450000 0.950000
vt 0.500000 0.950000
vt 0.550000 0.950000
vt 0.600000 0.950000
vt 0.650000 0.950000
vt 0.700000 0.950000
vt 0.750000 0.950000
vt 0.800000 0.950000
vt 0.850000 0.950000
vt 0.900000 0.950000
vt 0.950000 0.950000
vt 1.000000 0.950000
vt 0.000000 0.900000
vt 0.050000 0.900000
vt 0.100000 0.900000
vt 0.150000 0.900000
vt 0.200000 0.900000
vt 0.250000 0.900000
vt 0.300000 0.900000
vt 0.350000 0.900000
vt 0.400000 0.900000
vt 0.450000 0.900000
vt 0.500000 0.900000
vt 0.550000 0.900000
vt 0.600000 0.900000
vt 0.650000 0.900000
vt 0.700000 0.900000
vt 0.750000 0.900000
vt 0.800000 0.900000
vt 0.850000 0.900000
vt 0.900000 0.900000
vt 0.950000 0.900000
vt 1.000000 0.900000
vt 0.000000 0.850000
vt 0.050000 0.850000
vt 0.100000 0.850000
vt 0.150000 0.850000
vt 0.200000 0.850000
vt 0.250000 0.850000
vt 0.300000 0.850000
vt 0.350000 0.850000
vt 0.400000 0.850000
vt 0.450000 0.850000
vt 0.500000 0.850000
vt 0.550000 0.850000
vt 0.600000 0.850000
vt 0.650000 0.850000
vt 0.700000 0.850000
vt 0.750000 0.850000
vt 0.800000 0.850000
vt 0.850000 0.850000
vt 0.900000 0.850000
vt 0.950000 0.850000
vt 1.000000 0.850000
vt 0.000000 0.800000
vt 0.050000 0.800000
vt 0.100000 0.800000
vt 0.150000 0.800000
vt 0.200000 0.800000
vt 0.250000 0.800000
vt 0.300000 0.800000
vt 0.350000 0.800000
vt 0.400000 0.800000
vt 0.450000 0.800000
vt 0.500000 0.800000
vt 0.550000 0.800000
vt 0.600000 0.800000
vt 0.650000 0.800000
vt 0.700000 0.800000
vt 0.750000 0.800000
vt 0.800000 0.800000
vt 0.850000 0.800000
vt 0.900000 0.800000
vt 0.950000 0.800000
vt 1.000000 0.800000
vt 0.000000 0.750000
vt 0.050000 0.750000
vt 0.100000 0.750000
vt 0.150000 0.750000
vt 0.200000 0.750000
vt 0.250000 0.750000
vt 0.300000 0.750000
vt 0.350000 0.750000
vt 0.400000 0.750000
vt 0.450000 0.750000
vt 0.500000 0.750000
vt 0.550000 0.750000
vt 0.600000 0.750000
vt 0.650000 0.750000
vt 0.700000 0.750000
vt 0.750000 0.750000
vt 0.800000 0.750000
vt 0.850000 0.750000
vt 0.900000 0.750000
vt 0.950000 0.750000
vt 1.000000 0.750000
vt 0.000000 0.700000
vt 0.050000 0.700000
vt 0.100000 0.700000
vt 0.150000 0.700000
vt 0.200000 0.700000
vt 0.250000 0.700000
vt 0.300000 0.700000
vt 0.350000 0.700000
vt 0.400000 0.700000
vt 0.450000 0.700000
vt 0.500000 0.700000
vt 0.550000 0.700000
vt 0.600000 0.700000
vt 0.650000 0.700000
vt 0.700000 0.700000
vt 0.750000 0.700000
vt 0.800000 0.700000
vt 0.850000 0.700000
vt 0.900000 0.700000
vt 0.950000 0.700000
vt 1.000000 0.700000
vt 0.000000 0.650000
vt 0.050000 0.650000
vt 0.100000 0.650000
vt 0.150000 0.650000
vt 0.200000 0.650000
vt 0.250000 0.650000
vt 0.300000 0.650000
vt 0.350000 0.650000
vt 0.400000 0.650000
vt 0.450000 0.650000
vt 0.500000 0.650000
vt 0.550000 0.650000
vt 0.600000 0.650000
vt 0.650000 0.650000
vt 0.700000 0.650000
vt 0.750000 0.650000
vt 0.800000 0.650000
vt 0.850000 0.650000
vt 0.900000 0.650000
vt 0.950000 0.650000
vt 1.000000 0.650000
vt 0.000000 0.600000
vt 0.050000 0.600000
vt 0.100000 0.600000
vt 0.150000 0.600000
vt 0.200000 0.600000
vt 0.250000 0.600000
vt 0.300000 0.600000
vt 0.350000 0.600000
vt 0.400000 0.600000
vt 0.450000 0.600000
vt 0.500000 0.600000
vt 0.550000 0.600000
vt 0.600000 0.600000
vt 0.650000 0.600000
vt 0.700000 0.600000
vt 0.750000 0.600000
vt 0.800000 0.600000
vt 0.850000 0.600000
vt 0.900000 0.600000
vt 0.950000 0.600000
vt 1.000000 0.600000
vt 0.000000 0.550000
vt 0.050000 0.550000
vt 0.100000 0.550000
vt 0.150000 0.550000
vt 0.200000 0.550000
vt 0.250000 0.550000
vt 0.300000 0.550000
vt 0.350000 0.550000
vt 0.400000 0.550000
vt 0.450000 0.550000
vt 0.500000 0.550000
vt 0.550000 0.550000
vt 0.600000 0.550000
vt 0.650000 0.550000
vt 0.700000 0.550000
vt 0.750000 0.550000
vt 0.800000 0.550000
vt 0.850000 0.550000
vt 0.900000 0.550000
vt 0.950000 0.550000
vt 1.000000 0.550000
vt 0.000000 0.500000
vt 0.050000 0.500000
vt 0.100000 0.500000
vt 0.150000 0.500000
vt 0.200000 0.500000
vt 0.250000 0.500000
vt 0.300000 0.500000
vt 0.350000 0.500000
vt 0.400000 0.500000
vt 0.450000 0.500000
vt 0.500000 0.500000
vt 0.550000 0.500000
vt 0.600000 0.500000
vt 0.650000 0.500000
vt 0.700000 0.500000
vt 0.750000 0.500000
vt 0.800000 0.500000
vt 0.850000 0.500000
vt 0.900000 0.500000
vt 0.950000 0.500000
vt 1.000000 0.500000
vt 0.000000 0.450000
vt 0.050000 0.450000
vt 0.100000 0.450000
vt 0.150000 0.450000
vt 0.200000 0.450000
vt 0.250000 0.450000
vt 0.300000 0.450000
vt 0.350000 0.450000
vt 0.400000 0.450000
vt 0.450000 0.450000
vt 0.500000 0.450000
vt 0.550000 0.450000
vt 0.600000 0.450000
vt 0.650000 0.450000
vt 0.700000 0.450000
vt 0.750000 0.450000
vt 0.800000 0.450000
vt 0.850000 0.450000
vt 0.900000 0.450000
vt 0.950000 0.450000
vt 1.000000 0.450000
vt 0.000000 0.400000
vt 0.050000 0.400000
vt 0.100000 0.400000
vt 0.150000 0.400000
vt 0.200000 0.400000
vt 0.250000 0.400000
vt 0.300000 0.400000
vt 0.350000 0.400000
vt 0.400000 0.400000
vt 0.450000 0.400000
vt 0.500000 0.400000
vt 0.550000 0.400000
vt 0.600000 0.400000
vt 0.650000 0.400000
vt 0.700000 0.400000
vt 0.750000 0.400000
vt 0.800000 0.400000
vt 0.850000 0.400000
vt 0.900000 0.400000
vt 0.950000 0.400000
vt 1.000000 0.400000
vt 0.000000 0.350000
vt 0.050000 0.350000
vt 0.100000 0.350000
vt 0.150000 0.350000
vt 0.200000 0.350000
vt 0.250000 0.350000
vt 0.300000 0.350000
vt 0.350000 0.350000
vt 0.400000 0.350000
vt 0.450000 0.350000
vt 0.500000 0.350000
vt 0.550000 0.350000
vt 0.600000 0.350000
vt 0.650000 0.350000
vt 0.700000 0.350000
vt 0.750000 0.350000
vt 0.800000 0.350000
vt 0.850000 0.350000
vt 0.900000 0.350000
vt 0.950000 0.350000
vt 1.000000 0.350000
vt 0.000000 0.300000
vt 0.050000 0.300000
vt 0.100000 0.300000
vt 0.150000 0.300000
vt 0.200000 0.300000
vt 0.250000 0.300000
vt 0.300000 0.300000
vt 0.350000 0.300000
vt 0.400000 0.300000
vt 0.450000 0.300000
vt 0.500000 0.300000
vt 0.550000 0.300000
vt 0.600000 0.300000
vt 0.650000 0.300000
vt 0.700000 0.300000
vt 0.750000 0.300000
vt 0.800000 0.300000
vt 0.850000 0.300000
vt 0.900000 0.300000
vt 0.950000 0.300000
vt 1.000000 0.300000
vt 0.000000 0.250000
vt 0.050000 0.250000
vt 0.100000 0.250000
vt 0.150000 0.250000
vt 0.200000 0.250000
vt 0.250000 0.250000
vt 0.300000 0.250000
vt 0.350000 0.250000
vt 0.400000 0.250000
vt 0.450000 0.250000
vt 0.500000 0.250000
vt 0.550000 0.250000
vt 0.600000 0.250000
vt 0.650000 0.250000
vt 0.700000 0.250000
vt 0.750000 0.250000
vt 0.800000 0.250000
vt 0.850000 0.250000
vt 0.900000 0.250000
vt 0.950000 0.250000
vt 1.000000 0.250000
vt 0.000000 0.200000
vt 0.050000 0.200000
vt 0.100000 0.200000
vt 0.150000 0.200000
vt 0.200000 0.200000
vt 0.250000 0.200000
vt 0.300000 0.200000
vt 0.350000 0.200000
vt 0.400000 0.200000
vt 0.450000 0.200000
vt 0.500000 0.200000
vt 0.550000 0.200000
vt 0.600000 0.200000
vt 0.650000 0.200000
vt 0.700000 0.200000
vt 0.750000 0.200000
vt 0.800000 0.200000
vt 0.850000 0.200000
vt 0.900000 0.200000
vt 0.950000 0.200000
vt 1.000000 0.200000
vt 0.000000 0.150000
vt 0.050000 0.150000
vt 0.100000 0.150000
vt 0.150000 0.150000
vt 0.200000 0.150000
vt 0.250000 0.150000
vt 0.300000 0.150000
vt 0.350000 0.150000
vt 0.400000 0.150000
vt 0.450000 0.150000
vt 0.500000 0.150000
vt 0.550000 0.150000
vt 0.600000 0.150000
vt 0.650000 0.150000
vt 0.700000 0.150000
vt 0.750000 0.150000
vt 0.800000 0.150000
vt 0.850000 0.150000
vt 0.900000 0.150000
vt 0.950000 0.150000
vt 1.000000 0.150000
vt 0.000000 0.100000
vt 0.050000 0.100000
vt 0.100000 0.100000
vt 0.150000 0.100000
vt 0.200000 0.100000
vt 0.250000 0.100000
vt 0.300000 0.100000
vt 0.350000 0.100000
vt 0.400000 0.100000
vt 0.450000 0.100000
vt 0.500000 0.100000
vt 0.550000 0.100000
vt 0.600000 0.100000
vt 0.650000 0.100000
vt 0.700000 0.100000
vt 0.750000 0.100000
vt 0.800000 0.100000
vt 0.850000 0.100000
vt 0.900000 0.100000
vt 0.950000 0.100000
vt 1.000000 0.100000
vt 0.000000 0.050000
vt 0.050000 0.050000
vt 0.100000 0.050000
vt 0.150000 0.050000
vt 0.200000 0.050000
vt 0.250000 0.050000
vt 0.300000 0.050000
vt 0.350000 0.050000
vt 0.400000 0.050000
vt 0.450000 0.050000
vt 0.500000 0.050000
vt 0.550000 0.050000
vt 0.600000 0.050000
vt 0.650000 0.050000
vt 0.700000 0.050000
vt 0.750000 0.050000
vt 0.800000 0.050000
vt 0.850000 0.050000
vt 0.900000 0.050000
vt 0.950000 0.050000
vt 1.000000 0.050000
vt 0.000000 -0.000000
vt 0.050000 -0.000000
vt 0.100000 -0.000000
vt 0.150000 -0.000000
vt 0.200000 -0.000000
vt 0.250000 -0.000000
vt 0.300000 -0.000000
vt 0.350000 -0.000000
vt 0.400000 -0.000000
vt 0.450000 -0.000000
vt 0.500000 -0.000000
vt 0.550000 -0.000000
vt 0.600000 -0.000000
vt 0.650000 -0.000000
vt 0.700000 -0.000000
vt 0.750000 -0.000000
vt 0.800000 -0.000000
vt 0.850000 -0.000000
vt 0.900000 -0.000000
vt 0.950000 -0.000000
vt 1.000000 -0.000000
vn -0.809017 -0.587785 -0.000515
vn -0.951057 -0.309016 -0.000270
vn -0.902785 -0.293607 0.314284
vn -0.767954 -0.558227 0.314053
vn -0.587785 -0.809017 -0.000709
vn -0.557951 -0.768230 0.313868
vn -0.309017 -0.951056 -0.000834
vn -0.293332 -0.903060 0.313749
vn 0.000000 -1.000000 -0.000877
vn 0.000000 -0.949519 0.313708
vn 0.309017 -0.951056 -0.000834
vn 0.293332 -0.903060 0.313749
vn 0.587785 -0.809017 -0.000709
vn 0.557952 -0.768230 0.313867
vn 0.809017 -0.587785 -0.000516
vn 0.767955 -0.558227 0.314051
vn 0.951056 -0.309017 -0.000270
vn 0.902784 -0.293608 0.314284
vn 1.000000 -0.000000 0.000002
vn 0.949243 -0.000276 0.314542
vn 0.951056 0.309017 0.000272
vn 0.902784 0.293056 0.314800
vn 0.809017 0.587785 0.000516
vn 0.767954 0.557675 0.315032
vn 0.587785 0.809017 0.000711
vn 0.557951 0.767678 0.315216
vn 0.309017 0.951056 0.000836
vn 0.293332 0.902508 0.315334
vn -0.000000 1.000000 0.000879
vn -0.000000 0.948967 0.315375
vn -0.309017 0.951056 0.000836
vn -0.293332 0.902508 0.315334
vn -0.587785 0.809017 0.000711
vn -0.557951 0.767678 0.315216
vn -0.809017 0.587785 0.000516
vn -0.767954 0.557675 0.315032
vn -0.951057 0.309017 0.000272
vn -0.902784 0.293056 0.314799
vn -1.000000 0.000001 0.000001
vn -0.949244 -0.000275 0.314541
vn -0.763201 -0.248502 0.596466
vn -0.649217 -0.472208 0.596269
vn -0.471684 -0.649741 0.596113
vn -0.247979 -0.763724 0.596013
vn 0.000000 -0.803000 0.595979
vn 0.247979 -0.763724 0.596014
vn 0.471684 -0.649740 0.596114
vn 0.649217 -0.472207 0.596270
vn 0.763200 -0.248502 0.596466
vn 0.802477 -0.000524 0.596683
vn 0.763201 0.247455 0.596901
vn 0.649217 0.471160 0.597098
vn 0.471684 0.648693 0.597254
vn 0.247979 0.762676 0.597353
vn 0.000000 0.801953 0.597388
vn -0.247979 0.762677 0.597353
vn -0.471684 0.648693 0.597253
vn -0.649217 0.471160 0.597098
vn -0.763200 0.247455 0.596901
vn -0.802476 -0.000523 0.596683
vn -0.547283 -0.178540 0.817682
vn -0.465547 -0.338958 0.817541
vn -0.338240 -0.466265 0.817430
vn -0.177823 -0.548001 0.817358
vn 0.000000 -0.576165 0.817333
vn 0.177823 -0.548001 0.817358
vn 0.338240 -0.466264 0.817430
vn 0.465547 -0.338957 0.817542
vn 0.547283 -0.178541 0.817682
vn 0.575448 -0.000718 0.817838
vn 0.547283 0.177105 0.817994
vn 0.465547 0.337522 0.818135
vn 0.338240 0.464829 0.818247
vn 0.177823 0.546565 0.818319
vn 0.000000 0.574730 0.818343
vn -0.177823 0.546565 0.818319
vn -0.338240 0.464829 0.818247
vn -0.465547 0.337522 0.818135
vn -0.547283 0.177105 0.817994
vn -0.575448 -0.000717 0.817838
vn -0.277757 -0.091088 0.956323
vn -0.236274 -0.172503 0.956252
vn -0.171663 -0.237114 0.956195
vn -0.090249 -0.278596 0.956159
vn 0.000000 -0.292890 0.956146
vn 0.090249 -0.278596 0.956159
vn 0.171663 -0.237114 0.956195
vn 0.236275 -0.172503 0.956252
vn 0.277757 -0.091088 0.956323
vn 0.292051 -0.000840 0.956402
vn 0.277757 0.089409 0.956482
vn 0.236274 0.170824 0.956553
vn 0.171663 0.235435 0.956610
vn 0.090249 0.276917 0.956646
vn -0.000000 0.291211 0.956659
vn -0.090249 0.276917 0.956646
vn -0.171663 0.235435 0.956610
vn -0.236275 0.170824 0.956553
vn -0.277757 0.089409 0.956482
vn -0.292051 -0.000839 0.956402
vn 0.017749 0.004889 0.999830
vn 0.015098 0.010092 0.999835
vn 0.010969 0.014220 0.999839
vn 0.005767 0.016871 0.999841
vn -0.000000 0.017784 0.999842
vn -0.005767 0.016871 0.999841
vn -0.010969 0.014220 0.999839
vn -0.015098 0.010091 0.999835
vn -0.017748 0.004889 0.999830
vn -0.018662 -0.000878 0.999825
vn -0.017749 -0.006645 0.999820
vn -0.015098 -0.011847 0.999816
vn -0.010969 -0.015976 0.999812
vn -0.005767 -0.018626 0.999810
vn 0.000000 -0.019540 0.999809
vn 0.005767 -0.018626 0.999810
vn 0.010969 -0.015975 0.999812
vn 0.015098 -0.011847 0.999816
vn 0.017749 -0.006645 0.999820
vn 0.018662 -0.000878 0.999825
vn 0.309870 0.099852 0.945521
vn 0.263591 0.190680 0.945601
vn 0.191510 0.262761 0.945664
vn 0.100683 0.309040 0.945705
vn -0.000000 0.324986 0.945719
vn -0.100683 0.309039 0.945705
vn -0.191510 0.262761 0.945664
vn -0.263591 0.190680 0.945601
vn -0.309869 0.099853 0.945521
vn -0.325816 -0.000830 0.945433
vn -0.309869 -0.101513 0.945345
vn -0.263591 -0.192340 0.945265
vn -0.191510 -0.264421 0.945201
vn -0.100683 -0.310699 0.945161
vn 0.000000 -0.326646 0.945147
vn 0.100683 -0.310699 0.945161
vn 0.191510 -0.264420 0.945201
vn 0.263591 -0.192340 0.945265
vn 0.309869 -0.101513 0.945345
vn 0.325816 -0.000830 0.945433
vn 0.570530 0.184673 0.800244
vn 0.485322 0.351905 0.800391
vn 0.352607 0.484620 0.800507
vn 0.185376 0.569828 0.800582
vn -0.000000 0.599189 0.800608
vn -0.185377 0.569828 0.800582
vn -0.352607 0.484619 0.800508
vn -0.485322 0.351904 0.800391
vn -0.570531 0.184674 0.800244
vn -0.599892 -0.000702 0.800081
vn -0.570531 -0.186079 0.799918
vn -0.485322 -0.353310 0.799771
vn -0.352607 -0.486024 0.799655
vn -0.185377 -0.571233 0.799580
vn 0.000000 -0.600593 0.799555
vn 0.185377 -0.571232 0.799581
vn 0.352607 -0.486024 0.799655
vn 0.485322 -0.353309 0.799772
vn 0.570531 -0.186079 0.799918
vn 0.599891 -0.000703 0.800081
vn 0.775479 0.251459 0.579138
vn 0.659662 0.478764 0.579337
vn 0.479272 0.659153 0.579495
vn 0.251968 0.774970 0.579597
vn -0.000000 0.814878 0.579632
vn -0.251969 0.774971 0.579597
vn -0.479273 0.659153 0.579495
vn -0.659662 0.478764 0.579337
vn -0.775479 0.251460 0.579137
vn -0.815387 -0.000508 0.578916
vn -0.775479 -0.252477 0.578695
vn -0.659662 -0.479780 0.578496
vn -0.479272 -0.660170 0.578337
vn -0.251968 -0.775987 0.578236
vn 0.000000 -0.815895 0.578201
vn 0.251968 -0.775987 0.578236
vn 0.479272 -0.660170 0.578337
vn 0.659662 -0.479780 0.578495
vn 0.775480 -0.252477 0.578694
vn 0.815387 -0.000509 0.578916
vn 0.906180 0.294168 0.303814
vn 0.770842 0.559783 0.304047
vn 0.560049 0.770575 0.304233
vn 0.294435 0.905913 0.304352
vn -0.000000 0.952547 0.304393
vn -0.294436 0.905912 0.304352
vn -0.560050 0.770575 0.304233
vn -0.770843 0.559783 0.304047
vn -0.906179 0.294169 0.303815
vn -0.952813 -0.000266 0.303558
vn -0.906179 -0.294702 0.303299
vn -0.770842 -0.560316 0.303065
vn -0.560050 -0.771108 0.302880
vn -0.294435 -0.906445 0.302761
vn 0.000000 -0.953080 0.302720
vn 0.294436 -0.906446 0.302761
vn 0.560050 -0.771109 0.302880
vn 0.770842 -0.560316 0.303065
vn 0.906179 -0.294702 0.303298
vn 0.952813 -0.000267 0.303556
vn 0.951057 0.309016 0.000271
vn 0.809017 0.587785 0.000516
vn 0.587785 0.809017 0.000710
vn 0.309017 0.951056 0.000835
vn -0.000000 1.000000 0.000878
vn -0.309017 0.951056 0.000835
vn -0.587786 0.809016 0.000710
vn -0.809017 0.587785 0.000516
vn -0.951056 0.309017 0.000271
vn -1.000000 0.000000 -0.000000
vn -0.951057 -0.309017 -0.000271
vn -0.809017 -0.587785 -0.000516
vn -0.587785 -0.809017 -0.000710
vn -0.309017 -0.951056 -0.000835
vn 0.000000 -1.000000 -0.000878
vn 0.309017 -0.951056 -0.000835
vn 0.587785 -0.809017 -0.000710
vn 0.809017 -0.587785 -0.000516
vn 0.951057 -0.309017 -0.000271
vn 1.000000 -0.000001 -0.000000
vn 0.906180 0.294701 -0.303297
vn 0.770842 0.560316 -0.303064
vn 0.560050 0.771108 -0.302880
vn 0.294435 0.906446 -0.302761
vn -0.000000 0.953080 -0.302720
vn -0.294436 0.906445 -0.302761
vn -0.560050 0.771108 -0.302880
vn -0.770843 0.560316 -0.303064
vn -0.906179 0.294702 -0.303298
vn -0.952813 0.000266 -0.303558
vn -0.906179 -0.294169 -0.303816
vn -0.770842 -0.559783 -0.304048
vn -0.560050 -0.770575 -0.304233
vn -0.294435 -0.905913 -0.304352
vn 0.000000 -0.952547 -0.304393
vn 0.294436 -0.905913 -0.304352
vn 0.560050 -0.770575 -0.304233
vn 0.770842 -0.559783 -0.304048
vn 0.906179 -0.294169 -0.303815
vn 0.952813 0.000266 -0.303556
vn 0.775479 0.252476 -0.578695
vn 0.659662 0.479781 -0.578495
vn 0.479272 0.660170 -0.578337
vn 0.251968 0.775987 -0.578236
vn -0.000000 0.815895 -0.578200
vn -0.251969 0.775987 -0.578235
vn -0.479273 0.660170 -0.578337
vn -0.659662 0.479780 -0.578495
vn -0.775479 0.252476 -0.578695
vn -0.815387 0.000508 -0.578916
vn -0.775479 -0.251460 -0.579137
vn -0.659662 -0.478764 -0.579337
vn -0.479272 -0.659153 -0.579495
vn -0.251968 -0.774970 -0.579597
vn 0.000000 -0.814878 -0.579632
vn 0.251968 -0.774971 -0.579597
vn 0.479272 -0.659153 -0.579495
vn 0.659662 -0.478764 -0.579337
vn 0.775480 -0.251460 -0.579136
vn 0.815387 0.000507 -0.578916
vn 0.570530 0.186078 -0.799919
vn 0.485322 0.353309 -0.799772
vn 0.352607 0.486024 -0.799655
vn 0.185376 0.571233 -0.799580
vn -0.000000 0.600593 -0.799555
vn -0.185377 0.571233 -0.799580
vn -0.352607 0.486024 -0.799655
vn -0.485322 0.353309 -0.799772
vn -0.570531 0.186079 -0.799918
vn -0.599892 0.000702 -0.800081
vn -0.570531 -0.184674 -0.800243
vn -0.485323 -0.351905 -0.800390
vn -0.352607 -0.484620 -0.800507
vn -0.185377 -0.569828 -0.800582
vn -0.000000 -0.599189 -0.800608
vn 0.185377 -0.569828 -0.800582
vn 0.352607 -0.484620 -0.800507
vn 0.485322 -0.351905 -0.800391
vn 0.570531 -0.184674 -0.800244
vn 0.599892 0.000702 -0.800081
vn 0.309870 0.101512 -0.945344
vn 0.263591 0.192340 -0.945265
vn 0.191510 0.264421 -0.945201
vn 0.100683 0.310700 -0.945161
vn 0.000000 0.326646 -0.945147
vn -0.100683 0.310699 -0.945161
vn -0.191510 0.264421 -0.945201
vn -0.263591 0.192340 -0.945265
vn -0.309870 0.101513 -0.945344
vn -0.325816 0.000830 -0.945433
vn -0.309869 -0.099853 -0.945521
vn -0.263591 -0.190680 -0.945601
vn -0.191510 -0.262761 -0.945664
vn -0.100683 -0.309040 -0.945705
vn 0.000000 -0.324986 -0.945719
vn 0.100683 -0.309040 -0.945705
vn 0.191510 -0.262761 -0.945664
vn 0.263591 -0.190680 -0.945601
vn 0.309870 -0.099853 -0.945521
vn 0.325816 0.000830 -0.945433
vn 0.017749 0.006645 -0.999820
vn 0.015098 0.011847 -0.999816
vn 0.010969 0.015976 -0.999812
vn 0.005767 0.018626 -0.999810
vn 0.000000 0.019540 -0.999809
vn -0.005767 0.018626 -0.999810
vn -0.010969 0.015975 -0.999812
vn -0.015098 0.011847 -0.999816
vn -0.017749 0.006645 -0.999820
vn -0.018662 0.000878 -0.999825
vn -0.017749 -0.004889 -0.999830
vn -0.015098 -0.010092 -0.999835
vn -0.010969 -0.014220 -0.999839
vn -0.005767 -0.016871 -0.999841
vn 0.000000 -0.017784 -0.999842
vn 0.005767 -0.016871 -0.999841
vn 0.010969 -0.014220 -0.999839
vn 0.015098 -0.010092 -0.999835
vn 0.017749 -0.004889 -0.999830
vn 0.018662 0.000878 -0.999825
vn -0.277757 -0.089409 -0.956482
vn -0.236274 -0.170824 -0.956553
vn -0.171663 -0.235434 -0.956610
vn -0.090249 -0.276917 -0.956646
vn 0.000000 -0.291211 -0.956659
vn 0.090249 -0.276917 -0.956646
vn 0.171663 -0.235434 -0.956610
vn 0.236274 -0.170823 -0.956553
vn 0.277757 -0.089409 -0.956482
vn 0.292051 0.000840 -0.956402
vn 0.277757 0.091088 -0.956323
vn 0.236274 0.172503 -0.956252
vn 0.171663 0.237114 -0.956195
vn 0.090249 0.278596 -0.956159
vn -0.000000 0.292890 -0.956146
vn -0.090249 0.278596 -0.956159
vn -0.171663 0.237114 -0.956195
vn -0.236274 0.172503 -0.956252
vn -0.277757 0.091088 -0.956323
vn -0.292051 0.000840 -0.956402
vn -0.547283 -0.177105 -0.817995
vn -0.465547 -0.337522 -0.818135
vn -0.338239 -0.464829 -0.818247
vn -0.177823 -0.546565 -0.818319
vn 0.000000 -0.574729 -0.818344
vn 0.177823 -0.546565 -0.818319
vn 0.338240 -0.464828 -0.818247
vn 0.465547 -0.337521 -0.818135
vn 0.547283 -0.177105 -0.817994
vn 0.575448 0.000718 -0.817838
vn 0.547283 0.178541 -0.817682
vn 0.465547 0.338957 -0.817542
vn 0.338239 0.466264 -0.817430
vn 0.177823 0.548001 -0.817358
vn -0.000000 0.576165 -0.817333
vn -0.177823 0.548001 -0.817358
vn -0.338239 0.466264 -0.817430
vn -0.465547 0.338957 -0.817542
vn -0.547283 0.178541 -0.817682
vn -0.575448 0.000719 -0.817838
vn -0.763201 -0.247454 -0.596901
vn -0.649217 -0.471160 -0.597098
vn -0.471684 -0.648693 -0.597254
vn -0.247979 -0.762676 -0.597353
vn 0.000000 -0.801953 -0.597388
vn 0.247979 -0.762676 -0.597353
vn 0.471684 -0.648693 -0.597253
vn 0.649218 -0.471160 -0.597097
vn 0.763201 -0.247455 -0.596900
vn 0.802477 0.000524 -0.596683
vn 0.763201 0.248503 -0.596466
vn 0.649217 0.472208 -0.596269
vn 0.471684 0.649741 -0.596113
vn 0.247979 0.763724 -0.596013
vn -0.000000 0.803000 -0.595979
vn -0.247979 0.763724 -0.596013
vn -0.471684 0.649741 -0.596113
vn -0.649218 0.472208 -0.596269
vn -0.763201 0.248503 -0.596465
vn -0.802477 0.000525 -0.596683
vn -0.902785 -0.293055 -0.314799
vn -0.767954 -0.557675 -0.315031
vn -0.557951 -0.767678 -0.315215
vn -0.293332 -0.902508 -0.315333
vn -0.000000 -0.948967 -0.315374
vn 0.293333 -0.902508 -0.315333
vn 0.557952 -0.767678 -0.315215
vn 0.767954 -0.557675 -0.315031
vn 0.902785 -0.293056 -0.314799
vn 0.949244 0.000276 -0.314541
vn 0.902784 0.293608 -0.314284
vn 0.767954 0.558228 -0.314051
vn 0.557952 0.768230 -0.313866
vn 0.293332 0.903060 -0.313748
vn -0.000000 0.949520 -0.313708
vn -0.293333 0.903060 -0.313748
vn -0.557951 0.768230 -0.313867
vn -0.767954 0.558227 -0.314051
vn -0.902785 0.293608 -0.314283
vn -0.949244 0.000277 -0.314541
s 1
g pTorus1
usemtl initialShadingGroup
f 2/2/1 1/1/2 21/22/3 22/23/4
f 3/3/5 2/2/1 22/23/4 23/24/6
f 4/4/7 3/3/5 23/24/6 24/25/8
f 5/5/9 4/4/7 24/25/8 25/26/10
f 6/6/11 5/5/9 25/26/10 26/27/12
f 7/7/13 6/6/11 26/27/12 27/28/14
f 8/8/15 7/7/13 27/28/14 28/29/16
f 9/9/17 8/8/15 28/29/16 29/30/18
f 10/10/19 9/9/17 29/30/18 30/31/20
f 11/11/21 10/10/19 30/31/20 31/32/22
f 12/12/23 11/11/21 31/32/22 32/33/24
f 13/13/25 12/12/23 32/33/24 33/34/26
f 14/14/27 13/13/25 33/34/26 34/35/28
f 15/15/29 14/14/27 34/35/28 35/36/30
f 16/16/31 15/15/29 35/36/30 36/37/32
f 17/17/33 16/16/31 36/37/32 37/38/34
f 18/18/35 17/17/33 37/38/34 38/39/36
f 19/19/37 18/18/35 38/39/36 39/40/38
f 20/20/39 19/19/37 39/40/38 40/41/40
f 1/21/2 20/20/39 40/41/40 21/42/3
f 22/23/4 21/22/3 41/43/41 42/44/42
f 23/24/6 22/23/4 42/44/42 43/45/43
f 24/25/8 23/24/6 43/45/43 44/46/44
f 25/26/10 24/25/8 44/46/44 45/47/45
f 26/27/12 25/26/10 45/47/45 46/48/46
f 27/28/14 26/27/12 46/48/46 47/49/47
f 28/29/16 27/28/14 47/49/47 48/50/48
f 29/30/18 28/29/16 48/50/48 49/51/49
f 30/31/20 29/30/18 49/51/49 50/52/50
f 31/32/22 30/31/20 50/52/50 51/53/51
f 32/33/24 31/32/22 51/53/51 52/54/52
f 33/34/26 32/33/24 52/54/52 53/55/53
f 34/35/28 33/34/26 53/55/53 54/56/54
f 35/36/30 34/35/28 54/56/54 55/57/55
f 36/37/32 35/36/30 55/57/55 56/58/56
f 37/38/34 36/37/32 56/58/56 57/59/57
f 38/39/36 37/38/34 57/59/57 58/60/58
f 39/40/38 38/39/36 58/60/58 59/61/59
f 40/41/40 39/40/38 59/61/59 60/62/60
f 21/42/3 40/41/40 60/62/60 41/63/41
f 42/44/42 41/43/41 61/64/61 62/65/62
f 43/45/43 42/44/42 62/65/62 63/66/63
f 44/46/44 43/45/43 63/66/63 64/67/64
f 45/47/45 44/46/44 64/67/64 65/68/65
f 46/48/46 45/47/45 65/68/65 66/69/66
f 47/49/47 46/48/46 66/69/66 67/70/67
f 48/50/48 47/49/47 67/70/67 68/71/68
f 49/51/49 48/50/48 68/71/68 69/72/69
f 50/52/50 49/51/49 69/72/69 70/73/70
f 51/53/51 50/52/50 70/73/70 71/74/71
f 52/54/52 51/53/51 71/74/71 72/75/72
f 53/55/53 52/54/52 72/75/72 73/76/73
f 54/56/54 53/55/53 73/76/73 74/77/74
f 55/57/55 54/56/54 74/77/74 75/78/75
f 56/58/56 55/57/55 75/78/75 76/79/76
f 57/59/57 56/58/56 76/79/76 77/80/77
f 58/60/58 57/59/57 77/80/77 78/81/78
f 59/61/59 58/60/58 78/81/78 79/82/79
f 60/62/60 59/61/59 79/82/79 80/83/80
f 41/63/41 60/62/60 80/83/80 61/84/61
f 62/65/62 61/64/61 81/85/81 82/86/82
f 63/66/63 62/65/62 82/86/82 83/87/83
f 64/67/64 63/66/63 83/87/83 84/88/84
f 65/68/65 64/67/64 84/88/84 85/89/85
f 66/69/66 65/68/65 85/89/85 86/90/86
f 67/70/67 66/69/66 86/90/86 87/91/87
f 68/71/68 67/70/67 87/91/87 88/92/88
f 69/72/69 68/71/68 88/92/88 89/93/89
f 70/73/70 69/72/69 89/93/89 90/94/90
f 71/74/71 70/73/70 90/94/90 91/95/91
f 72/75/72 71/74/71 91/95/91 92/96/92
f 73/76/73 72/75/72 92/96/92 93/97/93
f 74/77/74 73/76/73 93/97/93 94/98/94
f 75/78/75 74/77/74 94/98/94 95/99/95
f 76/79/76 75/78/75 95/99/95 96/100/96
f 77/80/77 76/79/76 96/100/96 97/101/97
f 78/81/78 77/80/77 97/101/97 98/102/98
f 79/82/79 78/81/78 98/102/98 99/103/99
f 80/83/80 79/82/79 99/103/99 100/104/100
f 61/84/61 80/83/80 100/104/100 81/105/81
f 82/86/82 81/85/81 101/106/101 102/107/102
f 83/87/83 82/86/82 102/107/102 103/108/103
f 84/88/84 83/87/83 103/108/103 104/109/104
f 85/89/85 84/88/84 104/109/104 105/110/105
f 86/90/86 85/89/85 105/110/105 106/111/106
f 87/91/87 86/90/86 106/111/106 107/112/107
f 88/92/88 87/91/87 107/112/107 108/113/108
f 89/93/89 88/92/88 108/113/108 109/114/109
f 90/94/90 89/93/89 109/114/109 110/115/110
f 91/95/91 90/94/90 110/115/110 111/116/111
f 92/96/92 91/95/91 111/116/111 112/117/112
f 93/97/93 92/96/92 112/117/112 113/118/113
f 94/98/94 93/97/93 113/118/113 114/119/114
f 95/99/95 94/98/94 114/119/114 115/120/115
f 96/100/96 95/99/95 115/120/115 116/121/116
f 97/101/97 96/100/96 116/121/116 117/122/117
f 98/102/98 97/101/97 117/122/117 118/123/118
f 99/103/99 98/102/98 118/123/118 119/124/119
f 100/104/100 99/103/99 119/124/119 120/125/120
f 81/105/81 100/104/100 120/125/120 101/126/101
f 102/107/102 101/106/101 121/127/121 122/128/122
f 103/108/103 102/107/102 122/128/122 123/129/123
f 104/109/104 103/108/103 123/129/123 124/130/124
f 105/110/105 104/109/104 124/130/124 125/131/125
f 106/111/106 105/110/105 125/131/125 126/132/126
f 107/112/107 106/111/106 126/132/126 127/133/127
f 108/113/108 107/112/107 127/133/127 128/134/128
f 109/114/109 108/113/108 128/134/128 129/135/129
f 110/115/110 109/114/109 129/135/129 130/136/130
f 111/116/111 110/115/110 130/136/130 131/137/131
f 112/117/112 111/116/111 131/137/131 132/138/132
f 113/118/113 112/117/112 132/138/132 133/139/133
f 114/119/114 113/118/113 133/139/133 134/140/134
f 115/120/115 114/119/114 134/140/134 135/141/135
f 116/121/116 115/120/115 135/141/135 136/142/136
f 117/122/117 116/121/116 136/142/136 137/143/137
f 118/123/118 117/122/117 137/143/137 138/144/138
f 119/124/119 118/123/118 138/144/138 139/145/139
f 120/125/120 119/124/119 139/145/139 140/146/140
f 101/126/101 120/125/120 140/146/140 121/147/121
f 122/128/122 121/127/121 141/148/141 142/149/142
f 123/129/123 122/128/122 142/149/142 143/150/143
f 124/130/124 123/129/123 143/150/143 144/151/144
f 125/131/125 124/130/124 144/151/144 145/152/145
f 126/132/126 125/131/125 145/152/145 146/153/146
f 127/133/127 126/132/126 146/153/146 147/154/147
f 128/134/128 127/133/127 147/154/147 148/155/148
f 129/135/129 128/134/128 148/155/148 149/156/149
f 130/136/130 129/135/129 149/156/149 150/157/150
f 131/137/131 130/136/130 150/157/150 151/158/151
f 132/138/132 131/137/131 151/158/151 152/159/152
f 133/139/133 132/138/132 152/159/152 153/160/153
f 134/140/134 133/139/133 153/160/153 154/161/154
f 135/141/135 134/140/134 154/161/154 155/162/155
f 136/142/136 135/141/135 155/162/155 156/163/156
f 137/143/137 136/142/136 156/163/156 157/164/157
f 138/144/138 137/143/137 157/164/157 158/165/158
f 139/145/139 138/144/138 158/165/158 159/166/159
f 140/146/140 139/145/139 159/166/159 160/167/160
f 121/147/121 140/146/140 160/167/160 141/168/141
f 142/149/142 141/148/141 161/169/161 162/170/162
f 143/150/143 142/149/142 162/170/162 163/171/163
f 144/151/144 143/150/143 163/171/163 164/172/164
f 145/152/145 144/151/144 164/172/164 165/173/165
f 146/153/146 145/152/145 165/173/165 166/174/166
f 147/154/147 146/153/146 166/174/166 167/175/167
f 148/155/148 147/154/147 167/175/167 168/176/168
f 149/156/149 148/155/148 168/176/168 169/177/169
f 150/157/150 149/156/149 169/177/169 170/178/170
f 151/158/151 150/157/150 170/178/170 171/179/171
f 152/159/152 151/158/151 171/179/171 172/180/172
f 153/160/153 152/159/152 172/180/172 173/181/173
f 154/161/154 153/160/153 173/181/173 174/182/174
f 155/162/155 154/161/154 174/182/174 175/183/175
f 156/163/156 155/162/155 175/183/175 176/184/176
f 157/164/157 156/163/156 176/184/176 177/185/177
f 158/165/158 157/164/157 177/185/177 178/186/178
f 159/166/159 158/165/158 178/186/178 179/187/179
f 160/167/160 159/166/159 179/187/179 180/188/180
f 141/168/141 160/167/160 180/188/180 161/189/161
f 162/170/162 161/169/161 181/190/181 182/191/182
f 163/171/163 162/170/162 182/191/182 183/192/183
f 164/172/164 163/171/163 183/192/183 184/193/184
f 165/173/165 164/172/164 184/193/184 185/194/185
f 166/174/166 165/173/165 185/194/185 186/195/186
f 167/175/167 166/174/166 186/195/186 187/196/187
f 168/176/168 167/175/167 187/196/187 188/197/188
f 169/177/169 168/176/168 188/197/188 189/198/189
f 170/178/170 169/177/169 189/198/189 190/199/190
f 171/179/171 170/178/170 190/199/190 191/200/191
f 172/180/172 171/179/171 191/200/191 192/201/192
f 173/181/173 172/180/172 192/201/192 193/202/193
f 174/182/174 173/181/173 193/202/193 194/203/194
f 175/183/175 174/182/174 194/203/194 195/204/195
f 176/184/176 175/183/175 195/204/195 196/205/196
f 177/185/177 176/184/176 196/205/196 197/206/197
f 178/186/178 177/185/177 197/206/197 198/207/198
f 179/187/179 178/186/178 198/207/198 199/208/199
f 180/188/180 179/187/179 199/208/199 200/209/200
f 161/189/161 180/188/180 200/209/200 181/210/181
f 182/191/182 181/190/181 201/211/201 202/212/202
f 183/192/183 182/191/182 202/212/202 203/213/203
f 184/193/184 183/192/183 203/213/203 204/214/204
f 185/194/185 184/193/184 204/214/204 205/215/205
f 186/195/186 185/194/185 205/215/205 206/216/206
f 187/196/187 186/195/186 206/216/206 207/217/207
f 188/197/188 187/196/187 207/217/207 208/218/208
f 189/198/189 188/197/188 208/218/208 209/219/209
f 190/199/190 189/198/189 209/219/209 210/220/210
f 191/200/191 190/199/190 210/220/210 211/221/211
f 192/201/192 191/200/191 211/221/211 212/222/212
f 193/202/193 192/201/192 212/222/212 213/223/213
f 194/203/194 193/202/193 213/223/213 214/224/214
f 195/204/195 194/203/194 214/224/214 215/225/215
f 196/205/196 195/204/195 215/225/215 216/226/216
f 197/206/197 196/205/196 216/226/216 217/227/217
f 198/207/198 197/206/197 217/227/217 218/228/218
f 199/208/199 198/207/198 218/228/218 219/229/219
f 200/209/200 199/208/199 219/229/219 220/230/220
f 181/210/181 200/209/200 220/230/220 201/231/201
f 202/212/202 201/211/201 221/232/221 222/233/222
f 203/213/203 202/212/202 222/233/222 223/234/223
f 204/214/204 203/213/203 223/234/223 224/235/224
f 205/215/205 204/214/204 224/235/224 225/236/225
f 206/216/206 205/215/205 225/236/225 226/237/226
f 207/217/207 206/216/206 226/237/226 227/238/227
f 208/218/208 207/217/207 227/238/227 228/239/228
f 209/219/209 208/218/208 228/239/228 229/240/229
f 210/220/210 209/219/209 229/240/229 230/241/230
f 211/221/211 210/220/210 230/241/230 231/242/231
f 212/222/212 211/221/211 231/242/231 232/243/232
f 213/223/213 212/222/212 232/243/232 233/244/233
f 214/224/214 213/223/213 233/244/233 234/245/234
f 215/225/215 214/224/214 234/245/234 235/246/235
f 216/226/216 215/225/215 235/246/235 236/247/236
f 217/227/217 216/226/216 236/247/236 237/248/237
f 218/228/218 217/227/217 237/248/237 238/249/238
f 219/229/219 218/228/218 238/249/238 239/250/239
f 220/230/220 219/229/219 239/250/239 240/251/240
f 201/231/201 220/230/220 240/251/240 221/252/221
f 222/233/222 221/232/221 241/253/241 242/254/242
f 223/234/223 222/233/222 242/254/242 243/255/243
f 224/235/224 223/234/223 243/255/243 244/256/244
f 225/236/225 224/235/224 244/256/244 245/257/245
f 226/237/226 225/236/225 245/257/245 246/258/246
f 227/238/227 226/237/226 246/258/246 247/259/247
f 228/239/228 227/238/227 247/259/247 248/260/248
f 229/240/229 228/239/228 248/260/248 249/261/249
f 230/241/230 229/240/229 249/261/249 250/262/250
f 231/242/231 230/241/230 250/262/250 251/263/251
f 232/243/232 231/242/231 251/263/251 252/264/252
f 233/244/233 232/243/232 252/264/252 253/265/253
f 234/245/234 233/244/233 253/265/253 254/266/254
f 235/246/235 234/245/234 254/266/254 255/267/255
f 236/247/236 235/246/235 255/267/255 256/268/256
f 237/248/237 236/247/236 256/268/256 257/269/257
f 238/249/238 237/248/237 257/269/257 258/270/258
f 239/250/239 238/249/238 258/270/258 259/271/259
f 240/251/240 239/250/239 259/271/259 260/272/260
f 221/252/221 240/251/240 260/272/260 241/273/241
f 242/254/242 241/253/241 261/274/261 262/275/262
f 243/255/243 242/254/242 262/275/262 263/276/263
f 244/256/244 243/255/243 263/276/263 264/277/264
f 245/257/245 244/256/244 264/277/264 265/278/265
f 246/258/246 245/257/245 265/278/265 266/279/266
f 247/259/247 246/258/246 266/279/266 267/280/267
f 248/260/248 247/259/247 267/280/267 268/281/268
f 249/261/249 248/260/248 268/281/268 269/282/269
f 250/262/250 249/261/249 269/282/269 270/283/270
f 251/263/251 250/262/250 270/283/270 271/284/271
f 252/264/252 251/263/251 271/284/271 272/285/272
f 253/265/253 252/264/252 272/285/272 273/286/273
f 254/266/254 253/265/253 273/286/273 274/287/274
f 255/267/255 254/266/254 274/287/274 275/288/275
f 256/268/256 255/267/255 275/288/275 276/289/276
f 257/269/257 256/268/256 276/289/276 277/290/277
f 258/270/258 257/269/257 277/290/277 278/291/278
f 259/271/259 258/270/258 278/291/278 279/292/279
f 260/272/260 259/271/259 279/292/279 280/293/280
f 241/273/241 260/272/260 280/293/280 261/294/261
f 262/275/262 261/274/261 281/295/281 282/296/282
f 263/276/263 262/275/262 282/296/282 283/297/283
f 264/277/264 263/276/263 283/297/283 284/298/284
f 265/278/265 264/277/264 284/298/284 285/299/285
f 266/279/266 265/278/265 285/299/285 286/300/286
f 267/280/267 266/279/266 286/300/286 287/301/287
f 268/281/268 267/280/267 287/301/287 288/302/288
f 269/282/269 268/281/268 288/302/288 289/303/289
f 270/283/270 269/282/269 289/303/289 290/304/290
f 271/284/271 270/283/270 290/304/290 291/305/291
f 272/285/272 271/284/271 291/305/291 292/306/292
f 273/286/273 272/285/272 292/306/292 293/307/293
f 274/287/274 273/286/273 293/307/293 294/308/294
f 275/288/275 274/287/274 294/308/294 295/309/295
f 276/289/276 275/288/275 295/309/295 296/310/296
f 277/290/277 276/289/276 296/310/296 297/311/297
f 278/291/278 277/290/277 297/311/297 298/312/298
f 279/292/279 278/291/278 298/312/298 299/313/299
f 280/293/280 279/292/279 299/313/299 300/314/300
f 261/294/261 280/293/280 300/314/300 281/315/281
f 282/296/282 281/295/281 301/316/301 302/317/302
f 283/297/283 282/296/282 302/317/302 303/318/303
f 284/298/284 283/297/283 303/318/303 304/319/304
f 285/299/285 284/298/284 304/319/304 305/320/305
f 286/300/286 285/299/285 305/320/305 306/321/306
f 287/301/287 286/300/286 306/321/306 307/322/307
f 288/302/288 287/301/287 307/322/307 308/323/308
f 289/303/289 288/302/288 308/323/308 309/324/309
f 290/304/290 289/303/289 309/324/309 310/325/310
f 291/305/291 290/304/290 310/325/310 311/326/311
f 292/306/292 291/305/291 311/326/311 312/327/312
f 293/307/293 292/306/292 312/327/312 313/328/313
f 294/308/294 293/307/293 313/328/313 314/329/314
f 295/309/295 294/308/294 314/329/314 315/330/315
f 296/310/296 295/309/295 315/330/315 316/331/316
f 297/311/297 296/310/296 316/331/316 317/332/317
f 298/312/298 297/311/297 317/332/317 318/333/318
f 299/313/299 298/312/298 318/333/318 319/334/319
f 300/314/300 299/313/299 319/334/319 320/335/320
f 281/315/281 300/314/300 320/335/320 301/336/301
f 302/317/302 301/316/301 321/337/321 322/338/322
f 303/318/303 302/317/302 322/338/322 323/339/323
f 304/319/304 303/318/303 323/339/323 324/340/324
f 305/320/305 304/319/304 324/340/324 325/341/325
f 306/321/306 305/320/305 325/341/325 326/342/326
f 307/322/307 306/321/306 326/342/326 327/343/327
f 308/323/308 307/322/307 327/343/327 328/344/328
f 309/324/309 308/323/308 328/344/328 329/345/329
f 310/325/310 309/324/309 329/345/329 330/346/330
f 311/326/311 310/325/310 330/346/330 331/347/331
f 312/327/312 311/326/311 331/347/331 332/348/332
f 313/328/313 312/327/312 332/348/332 333/349/333
f 314/329/314 313/328/313 333/349/333 334/350/334
f 315/330/315 314/329/314 334/350/334 335/351/335
f 316/331/316 315/330/315 335/351/335 336/352/336
f 317/332/317 316/331/316 336/352/336 337/353/337
f 318/333/318 317/332/317 337/353/337 338/354/338
f 319/334/319 318/333/318 338/354/338 339/355/339
f 320/335/320 319/334/319 339/355/339 340/356/340
f 301/336/301 320/335/320 340/356/340 321/357/321
f 322/338/322 321/337/321 341/358/341 342/359/342
f 323/339/323 322/338/322 342/359/342 343/360/343
f 324/340/324 323/339/323 343/360/343 344/361/344
f 325/341/325 324/340/324 344/361/344 345/362/345
f 326/342/326 325/341/325 345/362/345 346/363/346
f 327/343/327 326/342/326 346/363/346 347/364/347
f 328/344/328 327/343/327 347/364/347 348/365/348
f 329/345/329 328/344/328 348/365/348 349/366/349
f 330/346/330 329/345/329 349/366/349 350/367/350
f 331/347/331 330/346/330 350/367/350 351/368/351
f 332/348/332 331/347/331 351/368/351 352/369/352
f 333/349/333 332/348/332 352/369/352 353/370/353
f 334/350/334 333/349/333 353/370/353 354/371/354
f 335/351/335 334/350/334 354/371/354 355/372/355
f 336/352/336 335/351/335 355/372/355 356/373/356
f 337/353/337 336/352/336 356/373/356 357/374/357
f 338/354/338 337/353/337 357/374/357 358/375/358
f 339/355/339 338/354/338 358/375/358 359/376/359
f 340/356/340 339/355/339 359/376/359 360/377/360
f 321/357/321 340/356/340 360/377/360 341/378/341
f 342/359/342 341/358/341 361/379/361 362/380/362
f 343/360/343 342/359/342 362/380/362 363/381/363
f 344/361/344 343/360/343 363/381/363 364/382/364
f 345/362/345 344/361/344 364/382/364 365/383/365
f 346/363/346 345/362/345 365/383/365 366/384/366
f 347/364/347 346/363/346 366/384/366 367/385/367
f 348/365/348 347/364/347 367/385/367 368/386/368
f 349/366/349 348/365/348 368/386/368 369/387/369
f 350/367/350 349/366/349 369/387/369 370/388/370
f 351/368/351 350/367/350 370/388/370 371/389/371
f 352/369/352 351/368/351 371/389/371 372/390/372
f 353/370/353 352/369/352 372/390/372 373/391/373
f 354/371/354 353/370/353 373/391/373 374/392/374
f 355/372/355 354/371/354 374/392/374 375/393/375
f 356/373/356 355/372/355 375/393/375 376/394/376
f 357/374/357 356/373/356 376/394/376 377/395/377
f 358/375/358 357/374/357 377/395/377 378/396/378
f 359/376/359 358/375/358 378/396/378 379/397/379
f 360/377/360 359/376/359 379/397/379 380/398/380
f 341/378/341 360/377/360 380/398/380 361/399/361
f 362/380/362 361/379/361 381/400/381 382/401/382
f 363/381/363 362/380/362 382/401/382 383/402/383
f 364/382/364 363/381/363 383/402/383 384/403/384
f 365/383/365 364/382/364 384/403/384 385/404/385
f 366/384/366 365/383/365 385/404/385 386/405/386
f 367/385/367 366/384/366 386/405/386 387/406/387
f 368/386/368 367/385/367 387/406/387 388/407/388
f 369/387/369 368/386/368 388/407/388 389/408/389
f 370/388/370 369/387/369 389/408/389 390/409/390
f 371/389/371 370/388/370 390/409/390 391/410/391
f 372/390/372 371/389/371 391/410/391 392/411/392
f 373/391/373 372/390/372 392/411/392 393/412/393
f 374/392/374 373/391/373 393/412/393 394/413/394
f 375/393/375 374/392/374 394/413/394 395/414/395
f 376/394/376 375/393/375 395/414/395 396/415/396
f 377/395/377 376/394/376 396/415/396 397/416/397
f 378/396/378 377/395/377 397/416/397 398/417/398
f 379/397/379 378/396/378 398/417/398 399/418/399
f 380/398/380 379/397/379 399/418/399 400/419/400
f 361/399/361 380/398/380 400/419/400 381/420/381
f 382/401/382 381/400/381 1/421/2 2/422/1
f 383/402/383 382/401/382 2/422/1 3/423/5
f 384/403/384 383/402/383 3/423/5 4/424/7
f 385/404/385 384/403/384 4/424/7 5/425/9
f 386/405/386 385/404/385 5/425/9 6/426/11
f 387/406/387 386/405/386 6/426/11 7/427/13
f 388/407/388 387/406/387 7/427/13 8/428/15
f 389/408/389 388/407/388 8/428/15 9/429/17
f 390/409/390 389/408/389 9/429/17 10/430/19
f 391/410/391 390/409/390 10/430/19 11/431/21
f 392/411/392 391/410/391 11/431/21 12/432/23
f 393/412/393 392/411/392 12/432/23 13/433/25
f 394/413/394 393/412/393 13/433/25 14/434/27
f 395/414/395 394/413/394 14/434/27 15/435/29
f 396/415/396 395/414/395 15/435/29 16/436/31
f 397/416/397 396/415/396 16/436/31 17/437/33
f 398/417/398 397/416/397 17/437/33 18/438/35
f 399/418/399 398/417/398 18/438/35 19/439/37
f 400/419/400 399/418/399 19/439/37 20/440/39
f 381/420/381 400/419/400 20/440/39 1/441/2
