# This file uses centimeters as units for non-parametric coordinates.

mtllib FPVDroneBlade.mtl
g default
v 64.271658 -49.292768 33.169288
v 64.271658 -48.878725 33.169288
v 62.260257 -48.736703 36.443824
v 62.261892 -49.361554 36.443287
v 59.284324 -49.292768 43.941950
v 59.284324 -48.878725 43.941950
v 57.454193 -48.736703 40.562766
v 57.453840 -49.361554 40.564456
v 52.448588 -49.292768 34.236466
v 52.448588 -48.878725 34.236466
v 56.290115 -48.736703 34.341124
v 56.288833 -49.361554 34.339976
v 81.582701 -48.880891 33.191981
v 81.582701 -49.198888 33.191981
v 81.606195 -48.896208 35.045780
v 81.606195 -49.201957 35.045780
v 50.609152 -48.880891 58.922397
v 50.609152 -49.198880 58.922397
v 48.991968 -48.896199 58.015863
v 48.991968 -49.201948 58.015863
v 43.812725 -48.880891 19.233315
v 43.812725 -49.198888 19.233315
v 45.406406 -48.896208 18.286065
v 45.406406 -49.201957 18.286065
v 86.687383 -48.921328 33.622959
v 86.687383 -49.098762 33.622959
v 86.698317 -48.957912 34.485555
v 86.698317 -49.117475 34.485555
v 47.683576 -48.921328 63.127698
v 47.683576 -49.098753 63.127698
v 46.931080 -48.957912 62.705878
v 46.931080 -49.117467 62.705874
v 41.633614 -48.921328 14.597047
v 41.633614 -49.098762 14.597047
v 42.375181 -48.957912 14.156280
v 42.375181 -49.117475 14.156278
v 59.410505 -48.855425 38.050967
v 59.597635 -48.827894 38.356415
v 59.772709 -48.847190 37.546017
v 60.110998 -48.771265 37.493627
v 59.106800 -48.855425 36.005514
v 59.277767 -48.827894 35.690731
v 58.488399 -48.847190 35.944310
v 58.273887 -48.771265 35.677538
v 57.487238 -48.855425 37.291251
v 57.129150 -48.827894 37.300587
v 57.743436 -48.847190 37.857405
v 57.619671 -48.771265 38.176560
v 59.104928 -49.234461 36.008453
v 59.276565 -49.202479 35.692821
v 59.614829 -49.244383 36.402664
v 59.961734 -49.312797 36.344230
v 59.408894 -49.234453 38.047877
v 59.596426 -49.202471 38.354334
v 58.812546 -49.244383 38.292362
v 58.689703 -49.312788 38.622002
v 57.490722 -49.234461 37.291403
v 57.131557 -49.202479 37.300579
v 57.577173 -49.244383 36.652709
v 57.353115 -49.312797 36.381501
v 59.839705 -48.842334 36.939968
v 60.183507 -48.763577 36.878382
v 59.597854 -48.847249 36.380299
v 59.937526 -48.771627 36.313091
v 57.930044 -48.842334 36.189316
v 57.704807 -48.763577 35.922363
v 57.566289 -48.847249 36.678595
v 57.338249 -48.771635 36.418034
v 58.234795 -48.842334 38.218456
v 58.116234 -48.763577 38.546984
v 58.840409 -48.847249 38.288837
v 58.728777 -48.771635 38.616604
v 59.844593 -49.245883 36.938664
v 60.190617 -49.326242 36.876124
v 59.784526 -49.244585 37.515933
v 60.127272 -49.314036 37.449523
v 58.233476 -49.245883 38.223341
v 58.114628 -49.326242 38.554274
v 57.763581 -49.244585 37.882682
v 57.649720 -49.314036 38.212716
v 57.926479 -49.245891 36.185734
v 57.699303 -49.326242 35.917337
v 58.456437 -49.244593 35.949120
v 58.227556 -49.314036 35.685499
v 57.486353 -48.852433 36.979763
v 57.493872 -48.780562 36.652962
v 57.282584 -48.788992 36.762254
v 57.848750 -48.766148 38.355263
v 58.206551 -48.773313 38.290093
v 57.967107 -48.843666 38.070122
v 59.133759 -49.264023 35.951006
v 59.683966 -49.270480 36.114021
v 59.681107 -49.306551 36.362737
v 59.388673 -49.238457 36.174466
v 58.780977 -49.238591 35.936802
v 58.434943 -49.307360 35.876443
v 58.605065 -49.271340 35.707794
v 60.073817 -49.324320 36.600168
v 59.922978 -49.315039 36.926527
v 59.766018 -49.246077 36.660853
v 59.444232 -49.264023 38.101563
v 59.027952 -49.270472 38.496557
v 58.813992 -49.306542 38.369718
v 59.123251 -49.238448 38.210603
v 59.632922 -49.238583 37.803151
v 59.858212 -49.307360 37.533658
v 59.919200 -49.271332 37.765306
v 58.412022 -49.324312 38.591101
v 58.204799 -49.315031 38.297293
v 58.513356 -49.246068 38.294195
v 57.426558 -49.264023 37.295158
v 57.292631 -49.270480 36.737157
v 57.509450 -49.306551 36.615278
v 57.492620 -49.238457 36.962664
v 57.590648 -49.238591 37.607779
v 57.711388 -49.307360 37.937636
v 57.480279 -49.271340 37.874633
v 57.518717 -49.324320 36.156469
v 57.876767 -49.315039 36.123918
v 57.725174 -49.246077 36.392690
v 60.057077 -48.766392 36.578714
v 59.754691 -48.843708 36.645771
v 57.508505 -48.766392 36.181690
v 57.717769 -48.843708 36.410036
v 58.438966 -48.766392 38.587322
v 58.532083 -48.843708 38.291931
v 60.162483 -49.325180 37.175485
v 59.852921 -49.246203 37.225735
v 57.869447 -49.325180 38.380231
v 57.980709 -49.246203 38.087016
v 57.972622 -49.325180 35.792022
v 58.170917 -49.246212 36.034987
v 60.613498 -48.872251 34.224370
v 60.613498 -49.243953 34.224368
v 59.195166 -49.022811 35.226873
v 60.571254 -48.766755 35.856920
v 60.629423 -48.827987 37.400087
v 60.732529 -48.745352 37.165887
v 60.618411 -48.745613 36.384667
v 60.781235 -48.739696 36.758498
v 60.631508 -49.228864 37.394364
v 60.040649 -49.022803 38.516808
v 60.574379 -49.304637 35.860930
v 60.742993 -49.343776 37.137251
v 60.634063 -49.342874 36.404718
v 60.786550 -49.354237 36.756763
v 60.199676 -48.872251 40.246361
v 60.199676 -49.243953 40.246366
v 58.806967 -48.766755 39.393507
v 57.441461 -48.827996 38.672297
v 57.592730 -48.745352 38.878688
v 58.326343 -48.745613 39.170473
v 57.921187 -48.739696 39.124568
v 57.445373 -49.228864 38.676969
v 56.768742 -49.022811 37.604048
v 58.801932 -49.304629 39.394214
v 57.612295 -49.343776 38.902071
v 58.301152 -49.342874 39.174002
v 57.920028 -49.354237 39.130044
v 55.191387 -48.872251 36.876987
v 55.191387 -49.243953 36.876987
v 56.626339 -48.766755 36.097300
v 57.933676 -48.827996 35.275343
v 57.679298 -48.745352 35.303141
v 57.059803 -48.745613 35.792579
v 57.302126 -48.739696 35.464654
v 57.927676 -49.228864 35.276396
v 56.628245 -49.304637 36.092583
v 57.649268 -49.343776 35.308403
v 57.069342 -49.342874 35.769002
v 57.297977 -49.354237 35.460920
v 57.944532 -49.044096 36.207877
v 58.477042 -49.046574 35.971411
v 59.096029 -49.049390 36.026538
v 59.816390 -49.044096 36.943234
v 59.754914 -49.046574 37.522636
v 59.585563 -49.046574 36.406453
v 58.823900 -49.046574 38.265117
v 58.243626 -49.044088 38.196633
v 59.397679 -49.049390 38.031130
v 57.772579 -49.046574 37.853692
v 57.510831 -49.049390 37.290065
v 57.595080 -49.046574 36.676162
v 44.609566 -48.836568 18.759690
v 43.088983 -48.931165 14.889980
v 41.826396 -48.914980 14.077177
v 41.937002 -48.880891 15.574690
v 81.610113 -49.050612 35.354748
v 85.706010 -49.160011 34.736874
v 87.047841 -49.042604 34.573593
v 85.706010 -48.931165 34.736874
v 49.800560 -48.836560 58.469136
v 47.209585 -48.931157 61.720854
v 47.136968 -48.914980 63.220687
v 48.378554 -48.880891 62.376139
v 58.120331 -48.775614 43.384467
v 52.969594 -48.851034 50.241287
v 55.165948 -48.880891 51.472485
v 64.323719 -49.044644 36.591970
v 72.884394 -49.256159 35.488340
v 72.884394 -48.851042 35.488340
v 53.513387 -49.366350 33.507164
v 47.986144 -49.262118 26.904574
v 44.609566 -49.252407 18.759690
v 50.150578 -49.256159 25.618089
v 52.093658 -49.090669 34.479567
v 47.986144 -48.880891 26.904576
v 43.547107 -49.038355 19.391186
v 64.370847 -49.366350 34.456081
v 72.852482 -49.262118 32.970639
v 81.594448 -49.252407 34.118882
v 56.294166 -49.044644 42.275705
v 52.969594 -49.256150 50.241287
v 48.722432 -49.050604 57.864777
v 53.513387 -48.775614 33.507164
v 50.150578 -48.851042 25.618089
v 64.238589 -49.090669 32.740358
v 72.852482 -48.880891 32.970639
v 81.578791 -49.038355 32.883014
v 58.120331 -49.366350 43.384467
v 55.165948 -49.262118 51.472485
v 49.800560 -49.252399 58.469136
v 55.386680 -49.044644 32.480042
v 45.672024 -49.050612 18.128192
v 64.370847 -48.775614 34.456081
v 81.594448 -48.836568 34.118882
v 59.672319 -49.090669 44.127783
v 50.878683 -49.038355 59.073495
v 41.376133 -49.000498 14.344807
v 42.276659 -49.042604 13.809549
v 41.826396 -49.128122 14.077177
v 47.593874 -49.000490 63.476814
v 46.680065 -49.042596 62.964561
v 47.136968 -49.128113 63.220687
v 87.034571 -49.000498 33.526088
v 87.041210 -48.914980 34.049840
v 87.041210 -49.128122 34.049840
v 47.209585 -49.160003 61.720854
v 85.689021 -49.149955 33.396871
v 43.088983 -49.160011 14.889980
v 85.689021 -48.880891 33.396871
v 48.378554 -49.149946 62.376139
v 41.937002 -49.149955 15.574690
v 59.447284 -48.799183 38.107047
v 59.907900 -48.788747 37.795501
v 59.841226 -48.780318 37.578339
v 59.624432 -48.852391 37.822414
v 59.141190 -48.852433 38.207478
v 58.854413 -48.780562 38.364362
v 59.054711 -48.788992 38.492696
v 60.151217 -48.766139 37.205884
v 59.915870 -48.773313 36.928611
v 59.845096 -48.843666 37.245962
v 59.136981 -48.799183 35.945619
v 58.636870 -48.788747 35.702488
v 58.482134 -48.780318 35.868808
v 58.801905 -48.852391 35.934526
v 59.377001 -48.852433 36.160490
v 59.656254 -48.780562 36.330407
v 59.667253 -48.788992 36.092775
v 58.004581 -48.766148 35.786575
v 57.882122 -48.773313 36.129028
v 58.192345 -48.843666 36.031657
v 57.420279 -48.799183 37.295063
v 57.459782 -48.788747 37.849738
v 57.681188 -48.780318 37.900581
v 57.578207 -48.852391 37.590791
v 42.512997 -48.864538 15.232336
v 85.708843 -49.050612 34.960206
v 47.794065 -48.864529 62.048494
v 54.067771 -48.800431 50.856888
v 72.889718 -49.050612 35.907957
v 49.068361 -49.324666 26.261329
v 47.625404 -49.074485 27.118990
v 72.868446 -49.324666 34.229489
v 52.603542 -49.050604 50.036087
v 49.068361 -48.800431 26.261329
v 72.847166 -49.074485 32.551022
v 54.067771 -49.324657 50.856888
v 50.511314 -49.050612 25.403673
v 72.868446 -48.800431 34.229489
v 55.532004 -49.074485 51.677689
v 41.597526 -49.018563 13.692124
v 46.917938 -49.018563 63.611417
v 87.489101 -49.018563 34.044162
v 47.014751 -49.050604 61.611642
v 85.697511 -49.196469 34.066871
v 43.280984 -49.050612 14.775862
v 85.686189 -49.010395 33.173537
v 47.794065 -49.196460 62.048494
v 48.573384 -49.010395 62.485355
v 42.512997 -49.196469 15.232336
v 85.697511 -48.864538 34.066871
v 41.745001 -49.010395 15.688810
v 59.677635 -48.791883 37.868149
v 59.167137 -48.792043 38.274775
v 59.921096 -48.774636 37.257894
v 58.814909 -48.791883 35.865581
v 59.422310 -48.792043 36.104367
v 58.164680 -48.774645 35.959861
v 57.511999 -48.791883 37.614005
v 57.415096 -48.792043 36.968586
v 57.918767 -48.774645 38.129978
v 59.439152 -49.280967 36.125176
v 58.783759 -49.281515 35.869932
v 59.840793 -49.314972 36.633985
v 59.140701 -49.280958 38.278962
v 59.689443 -49.281506 37.838993
v 58.499236 -49.314963 38.372389
v 57.424698 -49.280967 36.943598
v 57.531341 -49.281506 37.638808
v 57.664515 -49.314972 36.341361
v 59.824184 -48.774797 36.612300
v 57.654041 -48.774805 36.366587
v 58.526328 -48.774805 38.368845
v 59.932426 -49.315511 37.227958
v 57.939029 -49.315511 38.154755
v 58.133097 -49.315520 35.965024
v 60.500319 -49.058780 34.013810
v 60.953039 -48.781574 34.856041
v 60.453116 -48.764799 37.463589
v 60.276298 -48.765018 36.201809
v 60.635563 -48.746515 37.026536
v 60.565647 -48.746718 36.560765
v 60.688191 -49.026731 37.378923
v 60.953043 -49.330533 34.856041
v 60.461465 -49.302235 37.440684
v 60.288800 -49.301518 36.217850
v 60.644001 -49.347577 37.003616
v 60.578237 -49.346861 36.576794
v 60.438616 -49.058780 40.253627
v 59.482863 -48.781574 40.224574
v 57.474623 -48.764799 38.487860
v 58.655760 -48.765018 38.965620
v 57.761896 -48.746515 38.864388
v 58.200222 -48.746726 39.036733
v 57.430407 -49.026731 38.733772
v 59.482863 -49.330533 40.224578
v 57.490277 -49.302235 38.506549
v 58.635613 -49.301510 38.968439
v 57.777524 -49.347577 38.883162
v 58.180049 -49.346852 39.039619
v 55.065630 -49.058780 37.080282
v 55.568667 -48.781574 36.267098
v 58.076822 -48.764799 35.396276
v 57.072494 -48.765018 36.180292
v 57.607094 -48.746515 35.456793
v 57.238678 -48.746726 35.750227
v 57.885963 -49.026731 35.235030
v 55.568663 -49.330533 36.267098
v 58.052810 -49.302235 35.400495
v 57.080135 -49.301518 36.161440
v 57.583032 -49.347577 35.460949
v 57.246270 -49.346861 35.731313
v 58.192548 -49.044897 36.056948
v 58.788814 -49.048420 35.958300
v 59.823088 -49.044888 37.233486
v 59.736306 -49.044888 36.663368
v 59.366874 -49.048420 36.185048
v 58.526030 -49.044888 38.267213
v 59.124979 -49.048412 38.186429
v 59.610390 -49.048412 37.799189
v 57.605344 -49.048420 37.590244
v 57.988904 -49.044888 38.057304
v 57.742203 -49.044897 36.417160
v 57.512686 -49.048420 36.976252
vt 0.059309 0.438918
vt 0.064251 0.449017
vt 0.019607 0.470824
vt 0.016048 0.463534
vt 0.069186 0.459130
vt 0.023162 0.478161
vt 0.011034 0.480835
vt 0.004989 0.477920
vt 0.006468 0.471399
vt 0.553996 0.520224
vt 0.556346 0.516763
vt 0.984992 0.028457
vt 0.593624 0.550390
vt 0.939859 0.049463
vt 0.983657 0.025756
vt 0.993382 0.018024
vt 0.997812 0.017294
vt 0.602045 0.559518
vt 0.385456 0.072050
vt 0.374234 0.071363
vt 0.377305 0.021772
vt 0.385402 0.022275
vt 0.363003 0.070662
vt 0.369170 0.021242
vt 0.372830 0.009375
vt 0.378349 0.005557
vt 0.383290 0.010062
vt 0.376286 0.281186
vt 0.360708 0.279529
vt 0.367741 0.176860
vt 0.382990 0.177767
vt 0.335678 0.304722
vt 0.352501 0.175950
vt 0.365395 0.378955
vt 0.388584 0.390166
vt 0.847979 0.102575
vt 0.468243 0.458238
vt 0.731650 0.159797
vt 0.845559 0.097460
vt 0.651711 0.159079
vt 0.616427 0.162866
vt 0.531900 0.104161
vt 0.540721 0.091686
vt 0.607999 0.176041
vt 0.523081 0.116619
vt 0.439016 0.052470
vt 0.445501 0.043279
vt 0.451967 0.034077
vt 0.604936 0.180916
vt 0.149994 0.383860
vt 0.245736 0.343679
vt 0.152469 0.388881
vt 0.057443 0.435155
vt 0.746040 0.127358
vt 0.839175 0.083580
vt 0.738855 0.113467
vt 0.832805 0.069709
vt 0.930418 0.029044
vt 0.935130 0.039259
vt 0.333711 0.279031
vt 0.682939 0.358048
vt 0.691145 0.228664
vt 0.688579 0.358493
vt 0.683321 0.464173
vt 0.679167 0.463846
vt 0.251986 0.358045
vt 0.159207 0.402590
vt 0.286249 0.367387
vt 0.165937 0.416293
vt 0.736168 0.108375
vt 0.448261 0.488351
vt 0.365311 0.425892
vt 0.451351 0.483683
vt 0.541513 0.538940
vt 0.539203 0.542448
vt 0.712132 0.257282
vt 0.703796 0.359857
vt 0.727757 0.257958
vt 0.718998 0.361229
vt 0.705730 0.466138
vt 0.694525 0.465145
vt 0.264863 0.381779
vt 0.543938 0.087032
vt 0.454336 0.030648
vt 0.374577 0.413258
vt 0.459798 0.470956
vt 0.547746 0.529582
vt 0.733511 0.258160
vt 0.388578 0.178094
vt 0.389650 0.072284
vt 0.391946 0.012059
vt 0.387625 0.010626
vt 0.000000 0.480387
vt 0.391539 0.005374
vt 0.007699 0.483878
vt 0.397959 0.003478
vt 0.694416 0.527135
vt 0.695346 0.531592
vt 0.378667 0.000000
vt 0.688839 0.530844
vt 0.371830 0.004972
vt 0.683977 0.526244
vt 0.988964 0.008525
vt 0.992368 0.005501
vt 0.607217 0.569275
vt 0.994955 0.011518
vt 0.596195 0.568216
vt 0.602573 0.566208
vt 0.679098 0.513776
vt 0.682106 0.513961
vt 0.980223 0.018394
vt 0.976814 0.011014
vt 0.411191 0.005520
vt 0.409520 0.008028
vt 0.582906 0.566550
vt 0.584574 0.563905
vt 0.690200 0.514643
vt 0.698298 0.515357
vt 0.388528 0.022388
vt 0.404866 0.014685
vt 0.400183 0.021330
vt 0.589078 0.557157
vt 0.014603 0.460760
vt 0.343144 0.343909
vt 0.344018 0.343401
vt 0.345395 0.347614
vt 0.344373 0.347852
vt 0.346852 0.341458
vt 0.347479 0.349861
vt 0.348011 0.354678
vt 0.345686 0.352044
vt 0.344532 0.351973
vt 0.341738 0.339736
vt 0.341549 0.336687
vt 0.340956 0.340468
vt 0.337977 0.337728
vt 0.338653 0.336786
vt 0.338517 0.333363
vt 0.344781 0.356305
vt 0.343656 0.355901
vt 0.346889 0.358197
vt 0.345356 0.362088
vt 0.342820 0.360112
vt 0.341846 0.359414
vt 0.327772 0.365735
vt 0.327770 0.366745
vt 0.323433 0.365824
vt 0.323742 0.364822
vt 0.328018 0.370165
vt 0.320438 0.366499
vt 0.316009 0.364544
vt 0.319459 0.363857
vt 0.320103 0.362897
vt 0.332088 0.366614
vt 0.334818 0.367982
vt 0.331851 0.365571
vt 0.335722 0.364368
vt 0.336195 0.365427
vt 0.339220 0.367030
vt 0.316235 0.360935
vt 0.317152 0.360165
vt 0.313535 0.361810
vt 0.310941 0.358536
vt 0.313932 0.357331
vt 0.315027 0.356836
vt 0.316577 0.341518
vt 0.315703 0.341012
vt 0.318656 0.337722
vt 0.319373 0.338489
vt 0.312619 0.339518
vt 0.319554 0.334796
vt 0.323449 0.331936
vt 0.322335 0.335260
vt 0.322850 0.336294
vt 0.313661 0.344808
vt 0.311113 0.346482
vt 0.314682 0.345124
vt 0.313786 0.349070
vt 0.312634 0.348950
vt 0.309735 0.350762
vt 0.326469 0.333923
vt 0.326682 0.335099
vt 0.327049 0.331153
vt 0.331176 0.330538
vt 0.330739 0.333730
vt 0.330622 0.334925
vt 0.692414 0.167035
vt 0.692548 0.166227
vt 0.697118 0.167140
vt 0.696658 0.167975
vt 0.693325 0.162779
vt 0.700013 0.166160
vt 0.704357 0.167884
vt 0.701154 0.169018
vt 0.700396 0.169869
vt 0.687762 0.166572
vt 0.684925 0.165413
vt 0.688025 0.167449
vt 0.684023 0.168915
vt 0.683356 0.167994
vt 0.680097 0.166773
vt 0.704261 0.171681
vt 0.703300 0.172421
vt 0.706781 0.170495
vt 0.709290 0.173364
vt 0.706456 0.174948
vt 0.705361 0.175508
vt 0.704412 0.191042
vt 0.705045 0.191562
vt 0.701976 0.195065
vt 0.701484 0.194251
vt 0.707641 0.193957
vt 0.701378 0.198058
vt 0.697716 0.200958
vt 0.698331 0.197616
vt 0.697974 0.196533
vt 0.707132 0.187246
vt 0.709557 0.185369
vt 0.706238 0.187036
vt 0.706971 0.182836
vt 0.708104 0.182721
vt 0.710794 0.180511
vt 0.694472 0.198976
vt 0.694309 0.197770
vt 0.694245 0.201757
vt 0.690505 0.202505
vt 0.690542 0.199256
vt 0.690600 0.198027
vt 0.677598 0.189443
vt 0.676832 0.189731
vt 0.675333 0.185313
vt 0.676283 0.185293
vt 0.673458 0.190782
vt 0.673041 0.183295
vt 0.672366 0.178667
vt 0.674944 0.180877
vt 0.676057 0.181109
vt 0.679536 0.193704
vt 0.679955 0.196744
vt 0.680165 0.193036
vt 0.683437 0.195778
vt 0.682974 0.196816
vt 0.683553 0.200248
vt 0.675706 0.176855
vt 0.676827 0.177320
vt 0.673420 0.175262
vt 0.674654 0.171653
vt 0.677445 0.173317
vt 0.678478 0.173986
vt 0.339855 0.363204
vt 0.339114 0.362267
vt 0.342170 0.364756
vt 0.312732 0.353224
vt 0.313914 0.353051
vt 0.310228 0.354449
vt 0.334895 0.334742
vt 0.334458 0.335855
vt 0.335075 0.331956
vt 0.707807 0.178612
vt 0.706638 0.178978
vt 0.710174 0.177065
vt 0.686687 0.198606
vt 0.686950 0.197410
vt 0.686852 0.201429
vt 0.679948 0.170312
vt 0.680852 0.171141
vt 0.677421 0.169035
vt 0.334569 0.392735
vt 0.700627 0.139050
vt 0.690380 0.157355
vt 0.703377 0.141471
vt 0.341898 0.388006
vt 0.343524 0.375286
vt 0.353377 0.358640
vt 0.351463 0.357065
vt 0.352971 0.362016
vt 0.342293 0.370029
vt 0.347148 0.369893
vt 0.351109 0.362982
vt 0.351130 0.366782
vt 0.347614 0.367679
vt 0.716736 0.178038
vt 0.355868 0.358331
vt 0.353003 0.342247
vt 0.709872 0.147261
vt 0.709505 0.160125
vt 0.714576 0.178996
vt 0.716751 0.174242
vt 0.707631 0.165232
vt 0.712467 0.166147
vt 0.715056 0.173085
vt 0.715711 0.169607
vt 0.712533 0.168369
vt 0.363073 0.324421
vt 0.724578 0.212083
vt 0.721109 0.213263
vt 0.355301 0.320474
vt 0.343488 0.325480
vt 0.324182 0.325315
vt 0.323780 0.327756
vt 0.327298 0.323977
vt 0.339566 0.329193
vt 0.337013 0.325062
vt 0.329064 0.325106
vt 0.332332 0.323179
vt 0.334869 0.325773
vt 0.682741 0.206641
vt 0.322664 0.323313
vt 0.310254 0.333783
vt 0.712855 0.216012
vt 0.701878 0.209292
vt 0.682985 0.204286
vt 0.686027 0.208544
vt 0.698385 0.205121
vt 0.695182 0.208858
vt 0.687874 0.207649
vt 0.690566 0.209949
vt 0.693222 0.207808
vt 0.289835 0.333837
vt 0.649277 0.196329
vt 0.649995 0.192736
vt 0.290247 0.342545
vt 0.300432 0.350341
vt 0.309877 0.367200
vt 0.312203 0.366334
vt 0.307163 0.365155
vt 0.305597 0.351914
vt 0.303279 0.356175
vt 0.307267 0.363061
vt 0.303967 0.361174
vt 0.304963 0.357687
vt 0.674979 0.162863
vt 0.308882 0.369511
vt 0.651757 0.184213
vt 0.663075 0.178089
vt 0.676891 0.164255
vt 0.671682 0.164750
vt 0.668434 0.177158
vt 0.666811 0.172511
vt 0.671528 0.166797
vt 0.668186 0.167970
vt 0.668703 0.171342
vt 0.682540 0.172733
vt 0.685314 0.170789
vt 0.317185 0.355851
vt 0.688653 0.169533
vt 0.692257 0.169214
vt 0.704417 0.179637
vt 0.704696 0.183007
vt 0.339923 0.358038
vt 0.701479 0.173828
vt 0.334855 0.362263
vt 0.695770 0.169970
vt 0.693994 0.195484
vt 0.690708 0.195754
vt 0.336600 0.339539
vt 0.700209 0.192488
vt 0.341231 0.344848
vt 0.704111 0.186539
vt 0.681662 0.191446
vt 0.679561 0.188491
vt 0.323897 0.338315
vt 0.687474 0.195158
vt 0.678951 0.178204
vt 0.316041 0.349370
vt 0.678451 0.185063
vt 0.318342 0.342714
vt 0.316751 0.345910
vt 0.678277 0.181515
vt 0.316202 0.352727
vt 0.680386 0.175227
vt 0.330388 0.337285
vt 0.327120 0.337366
vt 0.684420 0.193728
vt 0.320847 0.340146
vt 0.342256 0.351869
vt 0.342205 0.348302
vt 0.702609 0.189814
vt 0.339248 0.341880
vt 0.697212 0.194402
vt 0.333599 0.338001
vt 0.327926 0.363611
vt 0.331497 0.363385
vt 0.698937 0.171600
vt 0.337696 0.360443
vt 0.703334 0.176542
vt 0.341469 0.355154
vt 0.321342 0.360988
vt 0.324446 0.362723
vt 0.318905 0.358654
vt 0.632966 0.141416
vt 0.674467 0.160377
vt 0.324225 0.375072
vt 0.243457 0.338337
vt 0.289646 0.330169
vt 0.670248 0.196052
vt 0.685280 0.253746
vt 0.680848 0.208333
vt 0.382058 0.281840
vt 0.366356 0.326067
vt 0.713812 0.194103
vt 0.756324 0.152415
vt 0.719145 0.178837
vt 0.361843 0.430552
vt 0.331492 0.394741
vt 0.002041 0.472187
vt 0.398260 0.023877
vt 0.436553 0.055894
vt 0.384790 0.005822
vt 0.701466 0.515741
vt 0.709928 0.466549
vt 0.599106 0.571643
vt 0.975572 0.008075
vt 0.928687 0.025199
vt 0.395109 0.000009
vt 0.024441 0.480950
vt 0.070991 0.462904
vt 0.682407 0.530450
vt 0.366113 0.020978
vt 0.358829 0.070369
vt 0.606354 0.560865
vt 1.000000 0.009130
vt 0.688402 0.536409
vt 0.386946 0.002202
vt 0.724542 0.361746
vt 0.168364 0.421370
vt 0.830496 0.064642
vt 0.346888 0.175555
vt 0.519850 0.121154
vt 0.941641 0.053230
vt 0.471405 0.453583
vt 0.595389 0.547879
vn -0.142054 0.987039 0.074658
vn -0.000246 0.999983 -0.005844
vn 0.013579 0.999635 -0.023338
vn -0.148000 0.986977 0.063035
vn 0.133995 0.986548 -0.093638
vn 0.148087 0.981885 -0.118202
vn 0.145899 0.972242 -0.182920
vn -0.026298 0.992270 -0.121275
vn -0.184655 0.982728 0.012135
vn 0.014096 0.986548 0.162862
vn 0.070699 -0.000037 0.997498
vn 0.123685 -0.000808 0.992321
vn 0.028323 0.981885 0.187349
vn 0.016254 -0.987014 0.159810
vn 0.030902 -0.986768 0.159164
vn 0.090969 -0.982427 0.162977
vn 0.594269 -0.002148 0.804263
vn 0.085465 0.972241 0.217813
vn 0.135687 0.987039 0.085695
vn -0.004935 0.999983 0.003137
vn -0.026997 0.999636 -0.000087
vn 0.128595 0.986975 0.096657
vn -0.148089 0.986548 -0.069223
vn -0.176410 0.981885 -0.069145
vn -0.231360 0.972242 -0.034887
vn -0.091877 0.992271 0.083413
vn 0.102836 0.982729 0.153848
vn 0.175735 0.981199 0.079790
vn 0.020802 0.999674 0.014780
vn 0.011889 0.999858 0.011909
vn 0.145808 0.985650 0.085051
vn -0.100120 0.994664 -0.024876
vn -0.128567 0.990099 -0.056343
vn 0.028517 0.994664 0.099146
vn 0.100011 0.000164 0.994986
vn 0.082005 -0.000320 0.996632
vn 0.015489 0.990099 0.139516
vn 0.025043 -0.992212 0.122018
vn 0.017224 -0.988069 0.153045
vn 0.093150 -0.992212 -0.082697
vn -0.006659 -0.999978 0.000351
vn -0.006714 -0.999966 -0.004739
vn 0.123930 -0.988069 -0.091439
vn -0.141677 -0.984542 0.102974
vn -0.139083 -0.987502 0.074130
vn -0.148407 -0.986449 0.069958
vn -0.005575 -0.999950 -0.008287
vn 0.130273 -0.987014 -0.093981
vn -0.810693 -0.001510 0.585470
vn -0.868785 -0.000429 0.495190
vn -0.156968 0.981199 0.112296
vn -0.146559 0.985651 0.083747
vn -0.886965 0.000812 0.461836
vn 0.003025 -0.999978 -0.005942
vn 0.007461 -0.999966 -0.003445
vn -0.018340 -0.984542 -0.174183
vn 0.005343 -0.987502 -0.157515
vn 0.013618 -0.986449 -0.163503
vn 0.009964 -0.999950 -0.000684
vn -0.911689 0.000162 -0.410881
vn -0.904111 -0.000320 -0.427298
vn -0.118193 -0.992212 -0.039322
vn -0.141154 -0.988069 -0.061606
vn -0.146527 -0.987014 -0.065829
vn -0.899208 -0.000037 -0.437521
vn -0.023199 0.999674 0.010624
vn -0.016256 0.999858 0.004340
vn 0.071605 0.994664 -0.074269
vn 0.113080 0.990099 -0.083172
vn -0.101686 -0.001507 -0.994815
vn 0.005545 -0.000426 -0.999985
vn -0.018767 0.981199 -0.192086
vn 0.000753 0.985650 -0.168797
vn 0.006371 0.987039 -0.160352
vn 0.043521 0.000814 -0.999052
vn 0.003632 -0.999978 0.005591
vn -0.000749 -0.999966 0.008183
vn 0.160016 -0.984543 0.071208
vn 0.133737 -0.987503 0.083383
vn 0.134784 -0.986450 0.093542
vn -0.004391 -0.999950 0.008971
vn 0.811679 0.000165 -0.584104
vn 0.822107 -0.000318 -0.569334
vn 0.828509 -0.000036 -0.559976
vn 0.002399 0.999674 -0.025403
vn 0.004369 0.999858 -0.016248
vn 0.005184 0.999983 0.002710
vn 0.912378 -0.001508 0.409346
vn 0.863239 -0.000426 0.504795
vn 0.843444 0.000814 0.537217
vn -0.241277 -0.970182 0.023070
vn -0.995931 0.002684 -0.090080
vn -0.511050 0.000367 -0.859551
vn -0.088749 -0.991088 -0.099339
vn 0.399381 -0.002143 -0.916782
vn 0.095658 -0.982427 -0.160269
vn 0.140613 -0.970184 0.197412
vn 0.419960 0.002683 0.907539
vn -0.488866 0.000344 0.872359
vn -0.041654 -0.991088 0.126525
vn -0.993648 -0.002152 0.112515
vn -0.186626 -0.982427 -0.002709
vn 0.100660 -0.970182 -0.220487
vn 0.575974 0.002681 -0.817463
vn 0.999918 0.000361 -0.012802
vn 0.130406 -0.991088 -0.027189
vn 0.081819 0.982728 -0.165984
vn 0.118177 0.992270 0.037864
vn -0.921218 -0.000807 -0.389046
vn -0.153292 -0.986768 -0.052820
vn 0.020900 -0.999764 -0.005967
vn 0.031429 -0.981644 -0.188117
vn 0.797534 -0.000808 -0.603274
vn 0.122389 -0.986768 -0.106344
vn 0.097175 0.002716 -0.995264
vn 0.019410 0.986977 -0.159689
vn -0.005282 -0.999764 0.021083
vn 0.147194 -0.981645 0.121272
vn 0.813336 0.002714 0.581787
vn -0.015618 -0.999764 -0.015116
vn -0.178628 -0.981644 0.066841
vn 0.013422 0.999635 0.023429
vn -0.910511 0.002716 0.413476
vn -0.581427 0.363042 -0.728109
vn -0.041235 0.997795 -0.052016
vn -0.105762 0.994027 -0.026925
vn -0.762103 0.362796 -0.536264
vn 0.252642 0.966799 0.038360
vn 0.115784 0.978019 0.173418
vn -0.023125 0.999232 0.031635
vn -0.211369 0.976203 -0.048493
vn -0.870583 0.367513 -0.327139
vn 0.002105 0.994148 -0.108003
vn 0.059840 0.998203 -0.003029
vn -0.350452 0.369746 -0.860506
vn -0.121262 0.373840 -0.919532
vn 0.002985 0.977896 -0.209069
vn 0.036427 0.999175 -0.017967
vn -0.214309 0.976679 -0.013051
vn -0.924768 0.367313 -0.099429
vn -0.035683 0.999323 0.008948
vn -0.037844 0.999270 0.005261
vn -0.205129 0.978259 0.030502
vn -0.919477 0.367820 0.138819
vn -0.339840 0.363049 0.867585
vn -0.024428 0.997795 0.061718
vn 0.029563 0.994027 0.105058
vn -0.083368 0.362799 0.928131
vn -0.093103 0.966798 -0.237977
vn 0.092298 0.978014 -0.187001
vn 0.038952 0.999232 0.004221
vn 0.063678 0.976204 0.207295
vn 0.151976 0.367522 0.917513
vn -0.094587 0.994148 0.052176
vn -0.032545 0.998203 -0.050310
vn -0.569994 0.369747 0.733753
vn -0.735715 0.373840 0.564772
vn -0.182565 0.977894 0.101951
vn -0.033769 0.999175 -0.022581
vn 0.095842 0.976681 0.192115
vn 0.376279 0.367329 0.850578
vn 0.025592 0.999323 0.026436
vn 0.023480 0.999270 0.030145
vn 0.128978 0.978262 0.162383
vn 0.579951 0.367840 0.726878
vn 0.921272 0.363048 -0.139478
vn 0.065664 0.997795 -0.009702
vn 0.076201 0.994027 -0.078132
vn 0.845473 0.362791 -0.391866
vn -0.159544 0.966798 0.199619
vn -0.208095 0.978015 0.013569
vn -0.015821 0.999232 -0.035844
vn 0.147689 0.976202 -0.158801
vn 0.718610 0.367501 -0.590375
vn 0.092480 0.994148 0.055824
vn -0.027297 0.998203 0.053337
vn 0.920445 0.369750 0.126756
vn 0.856963 0.373848 0.354755
vn 0.179563 0.977897 0.107117
vn -0.002654 0.999175 0.040530
vn 0.118459 0.976680 -0.179065
vn 0.548492 0.367304 -0.751162
vn 0.010098 0.999323 -0.035382
vn 0.014367 0.999270 -0.035407
vn 0.076142 0.978260 -0.192899
vn 0.339527 0.367816 -0.865698
vn -0.334798 -0.387794 0.858793
vn 0.031803 -0.996002 -0.083484
vn -0.042629 -0.996167 -0.076380
vn -0.579532 -0.388339 0.716475
vn -0.109759 -0.967310 -0.228616
vn -0.042033 -0.994485 -0.096088
vn -0.029772 -0.994844 -0.096945
vn -0.156692 -0.987365 0.023607
vn -0.738882 -0.387941 0.550958
vn 0.078508 -0.996533 -0.027530
vn 0.135434 -0.955954 -0.260403
vn -0.063701 -0.377462 0.923831
vn 0.164349 -0.381106 0.909806
vn 0.098980 -0.986933 0.127144
vn 0.085553 -0.994430 -0.061556
vn -0.195507 -0.978668 0.063140
vn -0.849369 -0.387234 0.358638
vn -0.041318 -0.999101 -0.009467
vn -0.044205 -0.999009 0.005249
vn -0.210981 -0.976989 0.031307
vn -0.911531 -0.386832 0.139545
vn -0.576338 -0.387785 -0.719345
vn 0.056399 -0.996001 0.069283
vn 0.087460 -0.996167 0.001289
vn -0.330721 -0.388344 -0.860123
vn 0.252866 -0.967310 0.019252
vn 0.104231 -0.994485 0.011643
vn 0.098847 -0.994844 0.022689
vn 0.057903 -0.987367 -0.147492
vn -0.107700 -0.387955 -0.915364
vn -0.015405 -0.996533 0.081755
vn 0.157794 -0.955954 0.247494
vn -0.768212 -0.377455 -0.517087
vn -0.870089 -0.381110 -0.312571
vn -0.159612 -0.986931 0.022155
vn 0.010530 -0.994430 0.104875
vn 0.043076 -0.978669 -0.200877
vn 0.114094 -0.387227 -0.914898
vn 0.028864 -0.999101 -0.031055
vn 0.017573 -0.999008 -0.040906
vn 0.078392 -0.976988 -0.198365
vn 0.334929 -0.386830 -0.859177
vn 0.911138 -0.387790 -0.139450
vn -0.088194 -0.996002 0.014202
vn -0.044832 -0.996167 0.075107
vn 0.910255 -0.388329 0.143656
vn -0.143107 -0.967309 0.209363
vn -0.062198 -0.994485 0.084445
vn -0.069073 -0.994844 0.074255
vn 0.098788 -0.987366 0.123895
vn 0.846583 -0.387940 0.364417
vn -0.063086 -0.996534 -0.054223
vn -0.293230 -0.955955 0.012909
vn 0.831913 -0.377470 -0.406740
vn 0.705744 -0.381105 -0.597231
vn 0.060632 -0.986931 -0.149304
vn -0.096079 -0.994431 -0.043316
vn 0.152429 -0.978669 0.137741
vn 0.735268 -0.387240 0.556260
vn 0.012461 -0.999101 0.040516
vn 0.026646 -0.999009 0.035658
vn 0.132585 -0.976993 0.167050
vn 0.576607 -0.386842 0.719637
vn -0.198075 0.977450 0.073201
vn -0.853808 0.370173 0.366038
vn -0.037053 0.999312 0.001332
vn 0.162426 0.977450 0.134940
vn 0.743899 0.370186 0.556396
vn 0.019675 0.999312 0.031428
vn 0.035648 0.977449 -0.208139
vn 0.109899 0.370167 -0.922442
vn 0.017380 0.999312 -0.032754
vn -0.209236 -0.977858 -0.003798
vn -0.917815 -0.386385 -0.091230
vn -0.035893 -0.999158 0.019850
vn 0.107915 -0.977858 -0.179301
vn 0.537920 -0.386369 -0.749240
vn 0.000762 -0.999158 -0.041012
vn 0.101320 -0.977863 0.183080
vn 0.379906 -0.386380 0.840465
vn 0.035134 -0.999159 0.021155
vn -0.102677 0.967511 -0.231042
vn -0.439444 -0.000757 -0.898270
vn -0.426047 -0.001068 -0.904700
vn -0.117367 -0.970581 -0.210231
vn -0.020631 0.998078 -0.058444
vn -0.021095 0.999117 -0.036346
vn 0.260340 0.838179 0.479248
vn 0.124784 0.970970 0.204075
vn 0.081559 0.981256 0.174600
vn -0.025335 0.998714 -0.043907
vn -0.011532 0.999507 -0.029199
vn -0.018400 0.999771 0.010963
vn -0.009448 0.999955 0.001290
vn -0.021862 0.999746 -0.005552
vn 0.253122 -0.822987 0.508548
vn 0.394816 0.002242 0.918758
vn 0.996516 -0.001068 0.083389
vn -0.035056 -0.998651 -0.038317
vn -0.039274 -0.998979 -0.022319
vn 0.163278 -0.942466 0.291716
vn 0.105952 -0.964905 0.240275
vn -0.038688 -0.995577 -0.085612
vn -0.021296 -0.998191 -0.056222
vn -0.018816 -0.999578 0.022143
vn -0.011063 -0.999938 0.000874
vn -0.027019 -0.999485 -0.017324
vn 0.251426 0.967511 0.026601
vn 0.997646 -0.000758 0.068566
vn 0.240749 -0.970581 0.003472
vn 0.060929 0.998078 0.011355
vn 0.042023 0.999117 -0.000096
vn -0.545216 0.838176 -0.014162
vn -0.239148 0.970964 0.006033
vn -0.192003 0.981253 -0.016669
vn 0.050687 0.998715 0.000008
vn 0.031053 0.999507 0.004611
vn -0.000292 0.999770 -0.021420
vn 0.003608 0.999955 -0.008829
vn 0.015744 0.999746 -0.016156
vn -0.566980 -0.822985 -0.035064
vn -0.993075 0.002254 -0.117457
vn -0.570474 -0.001067 0.821315
vn 0.050711 -0.998651 -0.011203
vn 0.038966 -0.998979 -0.022854
vn -0.334277 -0.942464 -0.004448
vn -0.261061 -0.964905 -0.028380
vn 0.093494 -0.995576 0.009304
vn 0.059346 -0.998191 0.009669
vn -0.009767 -0.999578 -0.027367
vn 0.004777 -0.999938 -0.010019
vn 0.028518 -0.999485 -0.014740
vn -0.148750 0.967511 0.204442
vn -0.558204 -0.000760 0.829704
vn -0.123383 -0.970581 0.206758
vn -0.040298 0.998078 0.047089
vn -0.020929 0.999117 0.036441
vn 0.284875 0.838174 -0.465092
vn 0.114350 0.970964 -0.210127
vn 0.110438 0.981252 -0.157947
vn -0.025351 0.998715 0.043892
vn -0.019519 0.999507 0.024587
vn 0.018696 0.999770 0.010457
vn 0.005842 0.999955 0.007539
vn 0.006119 0.999746 0.021712
vn 0.313857 -0.822985 -0.473486
vn 0.598262 0.002251 -0.801298
vn -0.015656 -0.998650 0.049518
vn 0.000308 -0.998979 0.045172
vn 0.170992 -0.942465 -0.287267
vn 0.155110 -0.964905 -0.211895
vn -0.054799 -0.995577 0.076310
vn -0.038042 -0.998191 0.046554
vn 0.028584 -0.999578 0.005225
vn 0.006288 -0.999938 0.009143
vn -0.001494 -0.999485 0.032061
vn 0.405832 -0.011402 0.913877
vn 0.162586 -0.001298 0.986694
vn 0.624540 -0.013533 0.780875
vn -0.089132 0.008596 0.995983
vn -0.364073 0.011255 0.931303
vn -0.994356 -0.011397 -0.105482
vn -0.935794 -0.001297 -0.352544
vn -0.988528 -0.013543 0.150431
vn -0.918850 -0.009341 0.394496
vn -0.791660 0.000064 0.610963
vn -0.612402 0.008560 0.790500
vn 0.117779 -0.009342 -0.992996
vn 0.363994 -0.013543 -0.931303
vn -0.133285 0.000055 -0.991078
vn -0.378389 0.008553 -0.925607
vn -0.624488 0.011254 -0.780953
vn -0.817981 0.008601 -0.575181
vn 0.907115 0.008603 -0.420796
vn 0.988569 0.011262 -0.150351
vn 0.773212 -0.001299 -0.634146
vn 0.588530 -0.011405 -0.808395
vn 0.801067 -0.009329 0.598502
vn 0.924940 0.000071 0.380114
vn 0.990794 0.008561 0.135109
s 1
g polySurface23 polySurface19
usemtl CylinderFBXASC046002SG
f 21/1/1 184/2/2 268/3/3 187/4/4
f 184/2/2 23/5/5 185/6/6 268/3/3
f 268/3/3 185/6/6 35/7/7 186/8/8
f 187/4/4 268/3/3 186/8/8 33/9/9
f 15/10/10 188/11/11 269/432/12 191/13/13
f 188/430/11 16/14/14 189/15/15 269/12/12
f 269/12/12 189/15/15 28/16/16 190/17/17
f 191/13/13 269/432/12 190/421/17 27/18/18
f 17/19/19 192/20/20 270/21/21 195/22/22
f 192/20/20 19/23/23 193/24/24 270/21/21
f 270/21/21 193/24/24 31/25/25 194/26/26
f 195/22/22 270/21/21 194/26/26 29/27/27
f 6/28/28 196/29/29 271/30/30 198/31/31
f 196/29/29 7/32/32 197/33/33 271/30/30
f 271/30/30 197/33/33 19/23/23 192/20/20
f 198/31/31 271/30/30 192/20/20 17/19/19
f 3/34/34 199/35/35 272/431/36 201/37/37
f 199/402/35 4/38/38 200/39/39 272/36/36
f 272/36/36 200/39/39 16/14/14 188/430/11
f 201/37/37 272/431/36 188/11/11 15/10/10
f 12/40/40 202/41/41 273/42/42 205/43/43
f 202/41/41 9/44/44 203/45/45 273/42/42
f 273/42/42 203/45/45 22/46/46 204/47/47
f 205/43/43 273/42/42 204/47/47 24/48/48
f 9/44/44 206/49/49 274/429/50 203/45/45
f 206/394/49 10/51/51 207/52/52 274/50/50
f 274/50/50 207/52/52 21/1/1 208/53/53
f 203/45/45 274/429/50 208/408/53 22/46/46
f 4/38/38 209/54/54 275/55/55 200/39/39
f 209/54/54 1/56/56 210/57/57 275/55/55
f 275/55/55 210/57/57 14/58/58 211/59/59
f 200/39/39 275/55/55 211/59/59 16/14/14
f 7/32/32 212/60/60 276/428/61 197/33/33
f 212/397/60 8/62/62 213/63/63 276/61/61
f 276/61/61 213/63/63 20/64/64 214/65/65
f 197/33/33 276/428/61 214/420/65 19/23/23
f 10/51/51 215/66/66 277/67/67 207/52/52
f 215/66/66 11/68/68 216/69/69 277/67/67
f 277/67/67 216/69/69 23/5/5 184/2/2
f 207/52/52 277/67/67 184/2/2 21/1/1
f 1/56/56 217/70/70 278/427/71 210/57/57
f 217/404/70 2/72/72 218/73/73 278/71/71
f 278/71/71 218/73/73 13/74/74 219/75/75
f 210/57/57 278/427/71 219/414/75 14/58/58
f 8/62/62 220/76/76 279/77/77 213/63/63
f 220/76/76 5/78/78 221/79/79 279/77/77
f 279/77/77 221/79/79 18/80/80 222/81/81
f 213/63/63 279/77/77 222/81/81 20/64/64
f 11/68/68 223/82/82 280/426/83 216/69/69
f 223/391/82 12/40/40 205/43/43 280/83/83
f 280/83/83 205/43/43 24/48/48 224/84/84
f 216/69/69 280/426/83 224/417/84 23/5/5
f 2/72/72 225/85/85 281/86/86 218/73/73
f 225/85/85 3/34/34 201/37/37 281/86/86
f 281/86/86 201/37/37 15/10/10 226/87/87
f 218/73/73 281/86/86 226/87/87 13/74/74
f 5/78/78 227/88/88 282/425/89 221/79/79
f 227/399/88 6/28/28 198/31/31 282/89/89
f 282/89/89 198/31/31 17/19/19 228/90/90
f 221/79/79 282/425/89 228/411/90 18/80/80
f 34/91/91 229/92/92 283/424/93 231/94/94
f 229/406/92 33/9/9 186/8/8 283/93/93
f 283/93/93 186/8/8 35/7/7 230/95/95
f 231/94/94 283/424/93 230/415/95 36/96/96
f 30/97/97 232/98/98 284/423/99 234/100/100
f 232/409/98 29/27/27 194/26/26 284/99/99
f 284/99/99 194/26/26 31/25/25 233/101/101
f 234/100/100 284/423/99 233/418/101 32/102/102
f 26/103/103 235/104/104 285/422/105 237/106/106
f 235/412/104 25/107/107 236/108/108 285/105/105
f 285/105/105 236/108/108 27/18/18 190/421/17
f 237/106/106 285/422/105 190/17/17 28/16/16
f 19/23/23 214/420/65 286/419/109 193/24/24
f 214/65/65 20/64/64 238/110/110 286/109/109
f 286/109/109 238/110/110 32/102/102 233/418/101
f 193/24/24 286/419/109 233/101/101 31/25/25
f 16/14/14 211/59/59 287/111/111 189/15/15
f 211/59/59 14/58/58 239/112/112 287/111/111
f 287/111/111 239/112/112 26/103/103 237/106/106
f 189/15/15 287/111/111 237/106/106 28/16/16
f 23/5/5 224/417/84 288/416/113 185/6/6
f 224/84/84 24/48/48 240/114/114 288/113/113
f 288/113/113 240/114/114 36/96/96 230/415/95
f 185/6/6 288/416/113 230/95/95 35/7/7
f 14/58/58 219/414/75 289/413/115 239/112/112
f 219/75/75 13/74/74 241/116/116 289/115/115
f 289/115/115 241/116/116 25/107/107 235/412/104
f 239/112/112 289/413/115 235/104/104 26/103/103
f 20/64/64 222/81/81 290/117/117 238/110/110
f 222/81/81 18/80/80 242/118/118 290/117/117
f 290/117/117 242/118/118 30/97/97 234/100/100
f 238/110/110 290/117/117 234/100/100 32/102/102
f 18/80/80 228/411/90 291/410/119 242/118/118
f 228/90/90 17/19/19 195/22/22 291/119/119
f 291/119/119 195/22/22 29/27/27 232/409/98
f 242/118/118 291/410/119 232/98/98 30/97/97
f 24/48/48 204/47/47 292/120/120 240/114/114
f 204/47/47 22/46/46 243/121/121 292/120/120
f 292/120/120 243/121/121 34/91/91 231/94/94
f 240/114/114 292/120/120 231/94/94 36/96/96
f 13/74/74 226/87/87 293/122/122 241/116/116
f 226/87/87 15/10/10 191/13/13 293/122/122
f 293/122/122 191/13/13 27/18/18 236/108/108
f 241/116/116 293/122/122 236/108/108 25/107/107
f 22/46/46 208/408/53 294/407/123 243/121/121
f 208/53/53 21/1/1 187/4/4 294/123/123
f 294/123/123 187/4/4 33/9/9 229/406/92
f 243/121/121 294/407/123 229/92/92 34/91/91
f 37/124/124 244/125/125 295/126/126 247/127/127
f 244/125/125 38/128/128 245/129/129 295/126/126
f 295/126/126 245/129/129 40/130/130 246/131/131
f 247/127/127 295/126/126 246/131/131 39/132/132
f 38/128/128 244/125/125 296/133/133 250/134/134
f 244/125/125 37/124/124 248/135/135 296/133/133
f 296/133/133 248/135/135 71/136/136 249/137/137
f 250/134/134 296/133/133 249/137/137 72/138/138
f 39/132/132 246/131/131 297/139/139 253/140/140
f 246/131/131 40/130/130 251/141/141 297/139/139
f 297/139/139 251/141/141 62/142/142 252/143/143
f 253/140/140 297/139/139 252/143/143 61/144/144
f 41/145/145 254/146/146 298/147/147 257/148/148
f 254/146/146 42/149/149 255/150/150 298/147/147
f 298/147/147 255/150/150 44/151/151 256/152/152
f 257/148/148 298/147/147 256/152/152 43/153/153
f 42/149/149 254/146/146 299/154/154 260/155/155
f 254/146/146 41/145/145 258/156/156 299/154/154
f 299/154/154 258/156/156 63/157/157 259/158/158
f 260/155/155 299/154/154 259/158/158 64/159/159
f 43/153/153 256/152/152 300/160/160 263/161/161
f 256/152/152 44/151/151 261/162/162 300/160/160
f 300/160/160 261/162/162 66/163/163 262/164/164
f 263/161/161 300/160/160 262/164/164 65/165/165
f 45/166/166 264/167/167 301/168/168 267/169/169
f 264/167/167 46/170/170 265/171/171 301/168/168
f 301/168/168 265/171/171 48/172/172 266/173/173
f 267/169/169 301/168/168 266/173/173 47/174/174
f 46/170/170 264/167/167 302/175/175 87/176/176
f 264/167/167 45/166/166 85/177/177 302/175/175
f 302/175/175 85/177/177 67/178/178 86/179/179
f 87/176/176 302/175/175 86/179/179 68/180/180
f 47/174/174 266/173/173 303/181/181 90/182/182
f 266/173/173 48/172/172 88/183/183 303/181/181
f 303/181/181 88/183/183 70/184/184 89/185/185
f 90/182/182 303/181/181 89/185/185 69/186/186
f 49/187/187 91/188/188 304/189/189 94/190/190
f 91/188/188 50/191/191 92/192/192 304/189/189
f 304/189/189 92/192/192 52/193/193 93/194/194
f 94/190/190 304/189/189 93/194/194 51/195/195
f 50/191/191 91/188/188 305/196/196 97/197/197
f 91/188/188 49/187/187 95/198/198 305/196/196
f 305/196/196 95/198/198 83/199/199 96/200/200
f 97/197/197 305/196/196 96/200/200 84/201/201
f 51/195/195 93/194/194 306/202/202 100/203/203
f 93/194/194 52/193/193 98/204/204 306/202/202
f 306/202/202 98/204/204 74/205/205 99/206/206
f 100/203/203 306/202/202 99/206/206 73/207/207
f 53/208/208 101/209/209 307/210/210 104/211/211
f 101/209/209 54/212/212 102/213/213 307/210/210
f 307/210/210 102/213/213 56/214/214 103/215/215
f 104/211/211 307/210/210 103/215/215 55/216/216
f 54/212/212 101/209/209 308/217/217 107/218/218
f 101/209/209 53/208/208 105/219/219 308/217/217
f 308/217/217 105/219/219 75/220/220 106/221/221
f 107/218/218 308/217/217 106/221/221 76/222/222
f 55/216/216 103/215/215 309/223/223 110/224/224
f 103/215/215 56/214/214 108/225/225 309/223/223
f 309/223/223 108/225/225 78/226/226 109/227/227
f 110/224/224 309/223/223 109/227/227 77/228/228
f 57/229/229 111/230/230 310/231/231 114/232/232
f 111/230/230 58/233/233 112/234/234 310/231/231
f 310/231/231 112/234/234 60/235/235 113/236/236
f 114/232/232 310/231/231 113/236/236 59/237/237
f 58/233/233 111/230/230 311/238/238 117/239/239
f 111/230/230 57/229/229 115/240/240 311/238/238
f 311/238/238 115/240/240 79/241/241 116/242/242
f 117/239/239 311/238/238 116/242/242 80/243/243
f 59/237/237 113/236/236 312/244/244 120/245/245
f 113/236/236 60/235/235 118/246/246 312/244/244
f 312/244/244 118/246/246 82/247/247 119/248/248
f 120/245/245 312/244/244 119/248/248 81/249/249
f 61/144/144 252/143/143 313/250/250 122/251/251
f 252/143/143 62/142/142 121/252/252 313/250/250
f 313/250/250 121/252/252 64/159/159 259/158/158
f 122/251/251 313/250/250 259/158/158 63/157/157
f 65/165/165 262/164/164 314/253/253 124/254/254
f 262/164/164 66/163/163 123/255/255 314/253/253
f 314/253/253 123/255/255 68/180/180 86/179/179
f 124/254/254 314/253/253 86/179/179 67/178/178
f 69/186/186 89/185/185 315/256/256 126/257/257
f 89/185/185 70/184/184 125/258/258 315/256/256
f 315/256/256 125/258/258 72/138/138 249/137/137
f 126/257/257 315/256/256 249/137/137 71/136/136
f 73/207/207 99/206/206 316/259/259 128/260/260
f 99/206/206 74/205/205 127/261/261 316/259/259
f 316/259/259 127/261/261 76/222/222 106/221/221
f 128/260/260 316/259/259 106/221/221 75/220/220
f 77/228/228 109/227/227 317/262/262 130/263/263
f 109/227/227 78/226/226 129/264/264 317/262/262
f 317/262/262 129/264/264 80/243/243 116/242/242
f 130/263/263 317/262/262 116/242/242 79/241/241
f 81/249/249 119/248/248 318/265/265 132/266/266
f 119/248/248 82/247/247 131/267/267 318/265/265
f 318/265/265 131/267/267 84/201/201 96/200/200
f 132/266/266 318/265/265 96/200/200 83/199/199
f 42/149/149 133/268/268 319/405/269 135/393/270
f 133/268/268 2/72/72 217/404/70 319/405/269
f 319/269/269 217/70/70 1/56/56 134/271/271
f 135/270/270 319/269/269 134/271/271 50/191/191
f 2/72/72 133/268/268 320/272/272 225/85/85
f 42/149/149 136/273/273 320/272/272 133/268/268
f 3/34/34 225/85/85 320/272/272 136/273/273
f 38/128/128 137/274/274 321/275/275 245/129/129
f 3/34/34 138/276/276 321/275/275 137/274/274
f 40/130/130 245/129/129 321/275/275 138/276/276
f 42/149/149 260/155/155 322/277/277 136/273/273
f 64/159/159 139/278/278 322/277/277 260/155/155
f 3/34/34 136/273/273 322/277/277 139/278/278
f 40/130/130 138/276/276 323/279/279 251/141/141
f 3/34/34 140/280/280 323/279/279 138/276/276
f 62/142/142 251/141/141 323/279/279 140/280/280
f 3/34/34 139/278/278 324/281/281 140/280/280
f 64/159/159 121/252/252 324/281/281 139/278/278
f 62/142/142 140/280/280 324/281/281 121/252/252
f 54/212/212 141/282/282 325/403/283 142/401/284
f 141/282/282 4/38/38 199/402/35 325/403/283
f 325/283/283 199/35/35 3/34/34 137/274/274
f 142/284/284 325/283/283 137/274/274 38/128/128
f 1/56/56 209/54/54 326/285/285 134/271/271
f 4/38/38 143/286/286 326/285/285 209/54/54
f 50/191/191 134/271/271 326/285/285 143/286/286
f 54/212/212 107/218/218 327/287/287 141/282/282
f 76/222/222 144/288/288 327/287/287 107/218/218
f 4/38/38 141/282/282 327/287/287 144/288/288
f 50/191/191 143/286/286 328/289/289 92/192/192
f 4/38/38 145/290/290 328/289/289 143/286/286
f 52/193/193 92/192/192 328/289/289 145/290/290
f 76/222/222 127/261/261 329/291/291 144/288/288
f 74/205/205 146/292/292 329/291/291 127/261/261
f 4/38/38 144/288/288 329/291/291 146/292/292
f 4/38/38 146/292/292 330/293/293 145/290/290
f 74/205/205 98/204/204 330/293/293 146/292/292
f 52/193/193 145/290/290 330/293/293 98/204/204
f 38/128/128 147/294/294 331/400/295 142/284/284
f 147/294/294 6/28/28 227/399/88 331/400/295
f 331/295/295 227/88/88 5/78/78 148/296/296
f 142/401/284 331/295/295 148/296/296 54/212/212
f 6/28/28 147/294/294 332/297/297 196/29/29
f 38/128/128 149/298/298 332/297/297 147/294/294
f 7/32/32 196/29/29 332/297/297 149/298/298
f 46/170/170 150/299/299 333/300/300 265/171/171
f 7/32/32 151/301/301 333/300/300 150/299/299
f 48/172/172 265/171/171 333/300/300 151/301/301
f 38/128/128 250/134/134 334/302/302 149/298/298
f 72/138/138 152/303/303 334/302/302 250/134/134
f 7/32/32 149/298/298 334/302/302 152/303/303
f 48/172/172 151/301/301 335/304/304 88/183/183
f 7/32/32 153/305/305 335/304/304 151/301/301
f 70/184/184 88/183/183 335/304/304 153/305/305
f 7/32/32 152/303/303 336/306/306 153/305/305
f 72/138/138 125/258/258 336/306/306 152/303/303
f 70/184/184 153/305/305 336/306/306 125/258/258
f 58/233/233 154/307/307 337/398/308 155/396/309
f 154/307/307 8/62/62 212/397/60 337/398/308
f 337/308/308 212/60/60 7/32/32 150/299/299
f 155/309/309 337/308/308 150/299/299 46/170/170
f 5/78/78 220/76/76 338/310/310 148/296/296
f 8/62/62 156/311/311 338/310/310 220/76/76
f 54/212/212 148/296/296 338/310/310 156/311/311
f 58/233/233 117/239/239 339/312/312 154/307/307
f 80/243/243 157/313/313 339/312/312 117/239/239
f 8/62/62 154/307/307 339/312/312 157/313/313
f 54/212/212 156/311/311 340/314/314 102/213/213
f 8/62/62 158/315/315 340/314/314 156/311/311
f 56/214/214 102/213/213 340/314/314 158/315/315
f 80/243/243 129/264/264 341/316/316 157/313/313
f 78/226/226 159/317/317 341/316/316 129/264/264
f 8/62/62 157/313/313 341/316/316 159/317/317
f 8/62/62 159/317/317 342/318/318 158/315/315
f 78/226/226 108/225/225 342/318/318 159/317/317
f 56/214/214 158/315/315 342/318/318 108/225/225
f 46/170/170 160/319/319 343/395/320 155/309/309
f 160/319/319 10/51/51 206/394/49 343/395/320
f 343/320/320 206/49/49 9/44/44 161/321/321
f 155/396/309 343/320/320 161/321/321 58/233/233
f 10/51/51 160/319/319 344/322/322 215/66/66
f 46/170/170 162/323/323 344/322/322 160/319/319
f 11/68/68 215/66/66 344/322/322 162/323/323
f 42/149/149 163/324/324 345/325/325 255/150/150
f 11/68/68 164/326/326 345/325/325 163/324/324
f 44/151/151 255/150/150 345/325/325 164/326/326
f 46/170/170 87/176/176 346/327/327 162/323/323
f 68/180/180 165/328/328 346/327/327 87/176/176
f 11/68/68 162/323/323 346/327/327 165/328/328
f 44/151/151 164/326/326 347/329/329 261/162/162
f 11/68/68 166/330/330 347/329/329 164/326/326
f 66/163/163 261/162/162 347/329/329 166/330/330
f 11/68/68 165/328/328 348/331/331 166/330/330
f 68/180/180 123/255/255 348/331/331 165/328/328
f 66/163/163 166/330/330 348/331/331 123/255/255
f 50/191/191 167/332/332 349/392/333 135/270/270
f 167/332/332 12/40/40 223/391/82 349/392/333
f 349/333/333 223/82/82 11/68/68 163/324/324
f 135/393/270 349/333/333 163/324/324 42/149/149
f 9/44/44 202/41/41 350/334/334 161/321/321
f 12/40/40 168/335/335 350/334/334 202/41/41
f 58/233/233 161/321/321 350/334/334 168/335/335
f 50/191/191 97/197/197 351/336/336 167/332/332
f 84/201/201 169/337/337 351/336/336 97/197/197
f 12/40/40 167/332/332 351/336/336 169/337/337
f 58/233/233 168/335/335 352/338/338 112/234/234
f 12/40/40 170/339/339 352/338/338 168/335/335
f 60/235/235 112/234/234 352/338/338 170/339/339
f 84/201/201 131/267/267 353/340/340 169/337/337
f 82/247/247 171/341/341 353/340/340 131/267/267
f 12/40/40 169/337/337 353/340/340 171/341/341
f 12/40/40 171/341/341 354/342/342 170/339/339
f 82/247/247 118/246/246 354/342/342 171/341/341
f 60/235/235 170/339/339 354/342/342 118/246/246
f 43/153/153 263/161/161 355/390/343 173/388/344
f 263/161/161 65/165/165 172/345/345 355/390/343
f 355/343/343 172/371/345 81/249/249 132/266/266
f 173/344/344 355/343/343 132/266/266 83/199/199
f 41/145/145 257/148/148 356/389/346 174/382/347
f 257/148/148 43/153/153 173/388/344 356/389/346
f 356/346/346 173/344/344 83/199/199 95/198/198
f 174/347/347 356/346/346 95/198/198 49/187/187
f 39/132/132 253/140/140 357/387/348 176/376/349
f 253/140/140 61/144/144 175/350/350 357/387/348
f 357/348/348 175/386/350 73/207/207 128/260/260
f 176/349/349 357/348/348 128/260/260 75/220/220
f 61/144/144 122/251/251 358/385/351 175/350/350
f 122/251/251 63/157/157 177/352/352 358/385/351
f 358/351/351 177/384/352 51/195/195 100/203/203
f 175/386/350 358/351/351 100/203/203 73/207/207
f 63/157/157 258/156/156 359/383/353 177/352/352
f 258/156/156 41/145/145 174/382/347 359/383/353
f 359/353/353 174/347/347 49/187/187 94/190/190
f 177/384/352 359/353/353 94/190/190 51/195/195
f 69/186/186 126/257/257 360/381/354 179/372/355
f 126/257/257 71/136/136 178/356/356 360/381/354
f 360/354/354 178/380/356 55/216/216 110/224/224
f 179/355/355 360/354/354 110/224/224 77/228/228
f 71/136/136 248/135/135 361/379/357 178/356/356
f 248/135/135 37/124/124 180/358/358 361/379/357
f 361/357/357 180/378/358 53/208/208 104/211/211
f 178/380/356 361/357/357 104/211/211 55/216/216
f 37/124/124 247/127/127 362/377/359 180/358/358
f 247/127/127 39/132/132 176/376/349 362/377/359
f 362/359/359 176/349/349 75/220/220 105/219/219
f 180/378/358 362/359/359 105/219/219 53/208/208
f 45/166/166 267/169/169 363/375/360 182/367/361
f 267/169/169 47/174/174 181/362/362 363/375/360
f 363/360/360 181/374/362 79/241/241 115/240/240
f 182/361/361 363/360/360 115/240/240 57/229/229
f 47/174/174 90/182/182 364/373/363 181/362/362
f 90/182/182 69/186/186 179/372/355 364/373/363
f 364/363/363 179/355/355 77/228/228 130/263/263
f 181/374/362 364/363/363 130/263/263 79/241/241
f 65/165/165 124/254/254 365/370/364 172/345/345
f 124/254/254 67/178/178 183/365/365 365/370/364
f 365/364/364 183/369/365 59/237/237 120/245/245
f 172/371/345 365/364/364 120/245/245 81/249/249
f 67/178/178 85/177/177 366/368/366 183/365/365
f 85/177/177 45/166/166 182/367/361 366/368/366
f 366/366/366 182/361/361 57/229/229 114/232/232
f 183/369/365 366/366/366 114/232/232 59/237/237
